<?xml version="1.0" encoding="UTF-8"?>
<!DOCTYPE svg PUBLIC "-//W3C//DTD SVG 1.1//EN" "http://www.w3.org/Graphics/SVG/1.1/DTD/svg11.dtd">
<!-- Creator: CorelDRAW X7 -->
<svg xmlns="http://www.w3.org/2000/svg" xml:space="preserve" width="200px" height="200px" version="1.1" shape-rendering="geometricPrecision" text-rendering="geometricPrecision" image-rendering="optimizeQuality" fill-rule="evenodd" clip-rule="evenodd"
viewBox="0 0 200 200"
 xmlns:xlink="http://www.w3.org/1999/xlink">
 <g id="Layer_x0020_1">
  <metadata id="CorelCorpID_0Corel-Layer"/>
  <path fill="black" d="M93.65 175.63l0.32 1.42c1.41,0.16 0.89,-0.2 1.17,1.46 1.57,1.07 3.56,5.09 4.22,7.09 1.52,-1.13 0.3,0.02 1.51,-1.41 2.31,-2.76 1.7,-4.15 3.99,-5.68 0.27,-1.66 -0.25,-1.3 1.17,-1.46l0.31 -1.42c2.56,-4.92 6.66,-9.65 10.24,-13.59 13.18,-14.51 6.61,-9.34 24.4,-23.77 20.57,-16.69 53.55,-28.47 58.4,-62.09 6.51,-45.19 -39.38,-74.19 -75.24,-56.21 -16.11,8.08 -16.71,14.91 -24.37,23.28 -9.67,-17.37 -33.42,-36.39 -64.15,-25.8 -3.19,1.11 -5.59,2.2 -8.27,3.77 -7.96,4.67 -13.16,9.78 -18.73,17.33 -6.76,9.15 -10.32,24.91 -7.82,38.46 4.99,27.03 26.27,39.9 44.79,51.48 2.48,1.55 4.42,3.42 6.89,5.11 2.22,1.52 4.83,3.21 7.1,4.96l12.98 11.09c3.97,3.57 18.13,20.3 21.09,25.98zm-67.4 -96.09l81.7 0 4.91 -12.28 1.87 0.04 6.8 19.08 4 -11.13 1.86 -0.03 6.99 17.55 10.28 -28.27 1.89 0.08 3.89 14.96 23.31 0 -0.17 1.96 -24.83 0 -3.29 -13.38 -10.1 27.79 -1.87 0.03 -6.98 -17.54 -4.05 11.28 -1.88 -0.01 -6.85 -19.22 -4.6 11.05 -83.05 0 0.17 -1.96z"/>
 </g>
</svg>
