<?xml version="1.0" encoding="UTF-8"?>
<!DOCTYPE svg PUBLIC "-//W3C//DTD SVG 1.1//EN" "http://www.w3.org/Graphics/SVG/1.1/DTD/svg11.dtd">
<!-- Creator: CorelDRAW X7 -->
<svg xmlns="http://www.w3.org/2000/svg" xml:space="preserve" width="1000px" height="600px" version="1.1" shape-rendering="geometricPrecision" text-rendering="geometricPrecision" image-rendering="optimizeQuality" fill-rule="evenodd" clip-rule="evenodd"
viewBox="0 0 1000 600"
 xmlns:xlink="http://www.w3.org/1999/xlink">
 <g id="Layer_x0020_2">
  <metadata id="CorelCorpID_0Corel-Layer"/>
  <g id="_1991237906464">
   <rect fill="#5EA290" width="1000" height="600" rx="50.37" ry="50"/>
   <rect fill="none" stroke="white" stroke-width="10" x="50" y="50" width="900" height="500" rx="27.2" ry="25"/>
  </g>
 </g>
 <g id="Layer_x0020_1">
  <metadata id="CorelCorpID_1Corel-Layer"/>
  <polygon fill="white" fill-rule="nonzero" points="362.04,130.83 396.29,130.83 396.29,141.17 374.29,141.17 374.29,153.75 393.13,153.75 393.13,164.08 374.29,164.08 374.29,185.17 362.04,185.17 "/>
  <path id="1" fill="white" fill-rule="nonzero" d="M404.71 143.83l12.25 0 0 41.34 -12.25 0 0 -41.34zm6.08 -6.08c-2.05,0 -3.75,-0.6 -5.08,-1.79 -1.33,-1.2 -2,-2.74 -2,-4.63 0,-1.89 0.67,-3.41 2,-4.58 1.33,-1.17 3.03,-1.75 5.08,-1.75 2.11,0 3.82,0.58 5.13,1.75 1.3,1.17 1.96,2.69 1.96,4.58 0,1.89 -0.66,3.43 -1.96,4.63 -1.31,1.19 -3.02,1.79 -5.13,1.79z"/>
  <path id="2" fill="white" fill-rule="nonzero" d="M427.71 143.83l10 0 0.83 5.25 0.34 0c1.77,-1.66 3.72,-3.12 5.83,-4.37 2.11,-1.25 4.58,-1.88 7.42,-1.88 4.5,0 7.76,1.47 9.79,4.42 2.02,2.94 3.04,7.03 3.04,12.25l0 25.67 -12.25 0 0 -24.09c0,-3 -0.4,-5.05 -1.21,-6.16 -0.81,-1.12 -2.1,-1.67 -3.87,-1.67 -1.56,0 -2.89,0.35 -4,1.04 -1.12,0.7 -2.34,1.68 -3.67,2.96l0 27.92 -12.25 0 0 -41.34z"/>
  <path id="3" fill="white" fill-rule="nonzero" d="M490.12 186.17c-2.55,0 -4.87,-0.51 -6.95,-1.5 -2.09,-1 -3.86,-2.44 -5.34,-4.3 -1.47,-1.86 -2.61,-4.12 -3.41,-6.79 -0.81,-2.66 -1.21,-5.69 -1.21,-9.08 0,-3.39 0.48,-6.42 1.46,-9.08 0.97,-2.67 2.25,-4.93 3.83,-6.8 1.58,-1.86 3.42,-3.29 5.5,-4.29 2.08,-1 4.21,-1.5 6.38,-1.5 2.33,0 4.24,0.39 5.74,1.17 1.5,0.78 2.98,1.83 4.42,3.17l-0.5 -6.34 0 -14.08 12.25 0 0 58.42 -10 0 -0.83 -4.09 -0.34 0c-1.44,1.45 -3.13,2.65 -5.08,3.63 -1.94,0.97 -3.92,1.46 -5.92,1.46zm3.17 -10c1.33,0 2.54,-0.28 3.63,-0.84 1.08,-0.55 2.12,-1.53 3.12,-2.91l0 -16.92c-1.11,-1 -2.25,-1.7 -3.42,-2.08 -1.16,-0.39 -2.3,-0.59 -3.41,-0.59 -1.95,0 -3.67,0.93 -5.17,2.79 -1.5,1.86 -2.25,4.77 -2.25,8.71 0,4.11 0.65,7.11 1.96,9 1.31,1.89 3.15,2.84 5.54,2.84z"/>
  <path id="4" fill="white" fill-rule="nonzero" d="M540.79 130.83l13.42 0 8.75 24.17c0.55,1.61 1.08,3.26 1.58,4.96 0.5,1.69 1.03,3.37 1.58,5.04l0.34 0c0.55,-1.67 1.07,-3.35 1.54,-5.04 0.47,-1.7 0.98,-3.35 1.54,-4.96l8.58 -24.17 13.34 0 0 54.34 -11.17 0 0 -19.92c0,-1.33 0.05,-2.81 0.17,-4.42 0.11,-1.61 0.25,-3.23 0.41,-4.87 0.17,-1.64 0.34,-3.25 0.5,-4.84 0.17,-1.58 0.34,-3.04 0.5,-4.37l-0.33 0 -4.42 12.92 -7.75 20.74 -6.75 0 -7.75 -20.74 -4.33 -12.92 -0.33 0c0.16,1.33 0.33,2.79 0.5,4.37 0.16,1.59 0.33,3.2 0.5,4.84 0.16,1.64 0.3,3.26 0.41,4.87 0.11,1.61 0.17,3.09 0.17,4.42l0 19.92 -11 0 0 -54.34z"/>
  <path id="5" fill="white" fill-rule="nonzero" d="M621.79 186.17c-2.95,0 -5.7,-0.49 -8.25,-1.46 -2.56,-0.98 -4.78,-2.39 -6.67,-4.25 -1.89,-1.86 -3.36,-4.13 -4.42,-6.79 -1.05,-2.67 -1.58,-5.73 -1.58,-9.17 0,-3.33 0.56,-6.35 1.67,-9.04 1.11,-2.7 2.57,-4.97 4.37,-6.84 1.81,-1.86 3.88,-3.29 6.21,-4.29 2.34,-1 4.75,-1.5 7.25,-1.5 2.95,0 5.52,0.5 7.71,1.5 2.19,1 4.03,2.39 5.5,4.17 1.47,1.78 2.57,3.87 3.29,6.29 0.72,2.42 1.08,5.04 1.08,7.88 0,1.11 -0.05,2.16 -0.16,3.16 -0.11,1 -0.22,1.75 -0.34,2.25l-24.74 0c0.55,3 1.79,5.21 3.7,6.63 1.92,1.41 4.27,2.12 7.04,2.12 2.95,0 5.92,-0.91 8.92,-2.75l4.09 7.42c-2.12,1.44 -4.46,2.58 -7.05,3.41 -2.58,0.84 -5.12,1.26 -7.62,1.26zm5.75 -26.17c0,-2.33 -0.53,-4.22 -1.58,-5.67 -1.06,-1.44 -2.84,-2.16 -5.34,-2.16 -1.94,0 -3.65,0.64 -5.12,1.91 -1.48,1.28 -2.43,3.25 -2.88,5.92l14.92 0z"/>
  <g id="_1991237905984">
   <path fill="#FDFDFF" d="M465.16 269.58c33.49,-5.74 60.15,17.73 65.05,45.14 6.04,33.79 -17.8,60.36 -45.18,65.46 -33.59,6.25 -60.64,-18.04 -65.41,-44.87 -6.04,-33.93 17.71,-60.96 45.54,-65.73zm-64.76 63.3c3.12,38.3 39.06,70.75 82.2,66.57 38.79,-3.77 71.27,-38.45 66.82,-82.36 -4.2,-41.38 -40.66,-70.36 -81.93,-66.79 -16.91,1.46 -40.26,12.8 -49.56,25.59 -5.24,7.2 -10.17,13.68 -13.77,24.25 -3.61,10.59 -4.72,20.89 -3.76,32.74z"/>
   <path fill="#FDFDFF" d="M570.88 446.85c16.7,10.98 37,-9.55 25.85,-25.8 -3.54,-5.16 -11.02,-11.75 -15.64,-16.38 -10.32,-10.35 -21.44,-22.79 -32.21,-32.12l-1.17 1c-0.15,0.14 -0.4,0.36 -0.55,0.52l-1.83 2.26c-10.43,14.66 -14.76,14.75 -21.25,20.83 -1.43,1.34 -0.56,0.31 -1.55,1.72l48.35 47.97z"/>
   <path fill="#FDFDFF" d="M431.21 324.62l12.35 0.22c1.4,-18.16 13.05,-29.92 31.07,-31.29l0.22 -12.33c-24.57,0.27 -43.29,19.17 -43.64,43.4z"/>
  </g>
 </g>
</svg>
