<?xml version="1.0" encoding="UTF-8"?>
<!DOCTYPE svg PUBLIC "-//W3C//DTD SVG 1.1//EN" "http://www.w3.org/Graphics/SVG/1.1/DTD/svg11.dtd">
<!-- Creator: CorelDRAW X7 -->
<svg xmlns="http://www.w3.org/2000/svg" xml:space="preserve" width="200px" height="200px" version="1.1" shape-rendering="geometricPrecision" text-rendering="geometricPrecision" image-rendering="optimizeQuality" fill-rule="evenodd" clip-rule="evenodd"
viewBox="0 0 200 200"
 xmlns:xlink="http://www.w3.org/1999/xlink">
 <g id="Layer_x0020_1">
  <metadata id="CorelCorpID_0Corel-Layer"/>
  <g id="_2914580086928">
   <path fill="black" d="M0 116.71c16.36,0 13.1,1.1 13.37,-7.55 0.25,-8.05 3.66,-19.21 6.46,-26.18 6.26,-15.59 15.45,-25.8 28.1,-36.33l13.42 -8.34c28.67,-13.4 66.11,-11.2 90.26,7.96 8.08,6.4 14.85,13.51 20.79,21.89 6.99,9.85 13.42,28.4 14.2,40.19 0.63,9.4 -3.71,8.36 13.4,8.36 0,-32.64 -17.1,-65.09 -42.68,-82.01 -2.41,-1.6 -5.1,-3.59 -7.54,-5.01 -65.47,-37.89 -149.78,9.23 -149.78,87.02z"/>
   <path fill="black" d="M105.44 183.65c1.78,-1.3 2.72,-3.03 3.9,-5.3 1.29,-2.44 2,-3.53 3.36,-5.85l10.19 -17.42c2.73,-5.12 2.52,-52.92 3.97,-61.31l0.34 -35.64c-0.42,5.06 -2.94,10.35 -4.19,15.06l-23.3 76.13 4.4 25.62c0.6,3.32 1.33,5.1 1.33,8.71z"/>
  </g>
 </g>
</svg>
