<?xml version="1.0" encoding="UTF-8"?>
<!DOCTYPE svg PUBLIC "-//W3C//DTD SVG 1.1//EN" "http://www.w3.org/Graphics/SVG/1.1/DTD/svg11.dtd">
<!-- Creator: CorelDRAW X7 -->
<svg xmlns="http://www.w3.org/2000/svg" xml:space="preserve" width="200px" height="200px" version="1.1" shape-rendering="geometricPrecision" text-rendering="geometricPrecision" image-rendering="optimizeQuality" fill-rule="evenodd" clip-rule="evenodd"
viewBox="0 0 200 200"
 xmlns:xlink="http://www.w3.org/1999/xlink">
 <g id="Layer_x0020_1">
  <metadata id="CorelCorpID_0Corel-Layer"/>
  <path fill="black" d="M85.06 5c0,27.96 -10.95,47.52 -24.79,68.21 -2.32,3.47 -10.59,15.03 -13.21,16.79 0,-9.62 -3.75,-27.15 -9,-31 0,19.29 -22.53,46.25 -25,74.54l0 9.7c1.02,11.04 5.77,22.17 16.74,33.01 9.47,9.36 20.32,17.43 32.26,23.75 -4.24,-18.17 -15.92,-28.57 4.79,-59.2 4.25,-6.28 12.46,-21.85 13.21,-30.8 5.61,4.11 7.21,18.5 5,28 12.14,-8.13 20.42,-39.29 17,-54 13.16,3.52 38,42.33 38,71 0,36.31 -7.32,36.79 -8,45 14.41,-9.65 24.21,-14.53 36.7,-29.29 31.15,-36.8 18.27,-83.29 -8.57,-116.85 -3.22,-4.03 -11.4,-14.6 -16.13,-15.86 4.43,9.24 5.26,28.8 -4,35 -0.25,-10.86 -12.93,-34.72 -19.85,-44.16 -7.04,-9.59 -23.31,-25.85 -36.15,-28.84 0.52,2.24 1,2.3 1,5z"/>
 </g>
</svg>
