<?xml version="1.0" encoding="UTF-8"?>
<!DOCTYPE svg PUBLIC "-//W3C//DTD SVG 1.1//EN" "http://www.w3.org/Graphics/SVG/1.1/DTD/svg11.dtd">
<!-- Creator: CorelDRAW X7 -->
<svg xmlns="http://www.w3.org/2000/svg" xml:space="preserve" width="1000px" height="600px" version="1.1" shape-rendering="geometricPrecision" text-rendering="geometricPrecision" image-rendering="optimizeQuality" fill-rule="evenodd" clip-rule="evenodd"
viewBox="0 0 1000 600"
 xmlns:xlink="http://www.w3.org/1999/xlink">
 <g id="Layer_x0020_2">
  <metadata id="CorelCorpID_0Corel-Layer"/>
  <g id="_1991610129632">
   <rect fill="#5EA290" width="1000" height="600" rx="50.37" ry="50"/>
   <rect fill="none" stroke="white" stroke-width="10" x="50" y="50" width="900" height="500" rx="27.2" ry="25"/>
  </g>
 </g>
 <g id="Layer_x0020_1">
  <metadata id="CorelCorpID_1Corel-Layer"/>
  <path fill="white" fill-rule="nonzero" d="M298.26 129.08l18.58 0c2.83,0 5.46,0.21 7.87,0.63 2.42,0.41 4.53,1.15 6.34,2.21 1.8,1.05 3.22,2.44 4.25,4.16 1.02,1.72 1.54,3.89 1.54,6.5 0,1.22 -0.17,2.45 -0.5,3.67 -0.34,1.22 -0.81,2.36 -1.42,3.42 -0.61,1.05 -1.35,2 -2.21,2.83 -0.86,0.83 -1.84,1.44 -2.96,1.83l0 0.34c1.39,0.33 2.67,0.84 3.84,1.54 1.16,0.69 2.19,1.57 3.08,2.62 0.89,1.06 1.58,2.29 2.08,3.71 0.5,1.42 0.75,3.04 0.75,4.88 0,2.77 -0.54,5.16 -1.62,7.16 -1.08,2 -2.58,3.65 -4.5,4.96 -1.92,1.31 -4.15,2.28 -6.71,2.92 -2.55,0.64 -5.3,0.95 -8.25,0.95l-20.16 0 0 -54.33zm17.99 21.75c3,0 5.18,-0.58 6.55,-1.75 1.36,-1.16 2.04,-2.72 2.04,-4.66 0,-2.12 -0.7,-3.62 -2.08,-4.5 -1.39,-0.89 -3.53,-1.34 -6.42,-1.34l-5.84 0 0 12.25 5.75 0zm1.17 23.09c6.72,0 10.08,-2.45 10.08,-7.34 0,-2.39 -0.83,-4.1 -2.5,-5.12 -1.66,-1.03 -4.19,-1.54 -7.58,-1.54l-6.92 0 0 14 6.92 0z"/>
  <path id="1" fill="white" fill-rule="nonzero" d="M365.42 184.42c-2.61,0 -5.14,-0.49 -7.58,-1.46 -2.45,-0.98 -4.6,-2.38 -6.46,-4.21 -1.86,-1.83 -3.35,-4.1 -4.46,-6.79 -1.11,-2.7 -1.67,-5.77 -1.67,-9.21 0,-3.45 0.56,-6.51 1.67,-9.21 1.11,-2.69 2.6,-4.96 4.46,-6.79 1.86,-1.83 4.01,-3.24 6.46,-4.21 2.44,-0.97 4.97,-1.46 7.58,-1.46 2.61,0 5.13,0.49 7.54,1.46 2.42,0.97 4.56,2.38 6.42,4.21 1.86,1.83 3.35,4.1 4.46,6.79 1.11,2.7 1.66,5.76 1.66,9.21 0,3.44 -0.55,6.51 -1.66,9.21 -1.11,2.69 -2.6,4.96 -4.46,6.79 -1.86,1.83 -4,3.23 -6.42,4.21 -2.41,0.97 -4.93,1.46 -7.54,1.46zm0 -9.92c2.5,0 4.39,-1.06 5.67,-3.17 1.28,-2.11 1.91,-4.97 1.91,-8.58 0,-3.61 -0.63,-6.47 -1.91,-8.58 -1.28,-2.12 -3.17,-3.17 -5.67,-3.17 -2.56,0 -4.46,1.05 -5.71,3.17 -1.25,2.11 -1.87,4.97 -1.87,8.58 0,3.61 0.62,6.47 1.87,8.58 1.25,2.11 3.15,3.17 5.71,3.17z"/>
  <path id="2" fill="white" fill-rule="nonzero" d="M411.67 184.42c-2.61,0 -5.14,-0.49 -7.58,-1.46 -2.45,-0.98 -4.6,-2.38 -6.46,-4.21 -1.86,-1.83 -3.35,-4.1 -4.46,-6.79 -1.11,-2.7 -1.67,-5.77 -1.67,-9.21 0,-3.45 0.56,-6.51 1.67,-9.21 1.11,-2.69 2.6,-4.96 4.46,-6.79 1.86,-1.83 4.01,-3.24 6.46,-4.21 2.44,-0.97 4.97,-1.46 7.58,-1.46 2.61,0 5.12,0.49 7.54,1.46 2.42,0.97 4.56,2.38 6.42,4.21 1.86,1.83 3.34,4.1 4.45,6.79 1.12,2.7 1.67,5.76 1.67,9.21 0,3.44 -0.55,6.51 -1.67,9.21 -1.11,2.69 -2.59,4.96 -4.45,6.79 -1.86,1.83 -4,3.23 -6.42,4.21 -2.42,0.97 -4.93,1.46 -7.54,1.46zm0 -9.92c2.5,0 4.39,-1.06 5.67,-3.17 1.27,-2.11 1.91,-4.97 1.91,-8.58 0,-3.61 -0.64,-6.47 -1.91,-8.58 -1.28,-2.12 -3.17,-3.17 -5.67,-3.17 -2.56,0 -4.46,1.05 -5.71,3.17 -1.25,2.11 -1.87,4.97 -1.87,8.58 0,3.61 0.62,6.47 1.87,8.58 1.25,2.11 3.15,3.17 5.71,3.17z"/>
  <path id="3" fill="white" fill-rule="nonzero" d="M453.92 184.42c-2.56,0 -4.74,-0.39 -6.54,-1.17 -1.81,-0.78 -3.28,-1.86 -4.42,-3.25 -1.14,-1.39 -1.97,-3.07 -2.5,-5.04 -0.53,-1.98 -0.79,-4.16 -0.79,-6.55l0 -16.74 -5.67 0 0 -9.09 6.34 -0.5 1.41 -11 10.17 0 0 11 9.91 0 0 9.59 -9.91 0 0 16.58c0,2.33 0.48,4.01 1.46,5.04 0.97,1.03 2.26,1.54 3.87,1.54 0.67,0 1.35,-0.08 2.04,-0.25 0.7,-0.17 1.32,-0.36 1.88,-0.58l1.91 8.92c-1.11,0.33 -2.41,0.66 -3.91,0.99 -1.5,0.34 -3.25,0.51 -5.25,0.51z"/>
  <path id="4" fill="white" fill-rule="nonzero" d="M481.17 184.42c-2.11,0 -3.89,-0.34 -5.34,-1.01 -1.44,-0.66 -2.59,-1.59 -3.45,-2.79 -0.87,-1.19 -1.49,-2.64 -1.88,-4.33 -0.39,-1.69 -0.58,-3.6 -0.58,-5.71l0 -45.58 12.25 0 0 46.08c0,1.28 0.23,2.17 0.71,2.67 0.47,0.5 0.95,0.75 1.45,0.75 0.28,0 0.52,0 0.71,0 0.2,0 0.46,-0.06 0.79,-0.17l1.5 9.08c-0.66,0.28 -1.51,0.52 -2.54,0.71 -1.03,0.2 -2.23,0.3 -3.62,0.3z"/>
  <path id="5" fill="white" fill-rule="nonzero" d="M511.5 184.42c-2.61,0 -5.14,-0.49 -7.58,-1.46 -2.45,-0.98 -4.6,-2.38 -6.46,-4.21 -1.86,-1.83 -3.35,-4.1 -4.46,-6.79 -1.11,-2.7 -1.67,-5.77 -1.67,-9.21 0,-3.45 0.56,-6.51 1.67,-9.21 1.11,-2.69 2.6,-4.96 4.46,-6.79 1.86,-1.83 4.01,-3.24 6.46,-4.21 2.44,-0.97 4.97,-1.46 7.58,-1.46 2.61,0 5.12,0.49 7.54,1.46 2.42,0.97 4.56,2.38 6.42,4.21 1.86,1.83 3.34,4.1 4.45,6.79 1.12,2.7 1.67,5.76 1.67,9.21 0,3.44 -0.55,6.51 -1.67,9.21 -1.11,2.69 -2.59,4.96 -4.45,6.79 -1.86,1.83 -4,3.23 -6.42,4.21 -2.42,0.97 -4.93,1.46 -7.54,1.46zm0 -9.92c2.5,0 4.39,-1.06 5.67,-3.17 1.27,-2.11 1.91,-4.97 1.91,-8.58 0,-3.61 -0.64,-6.47 -1.91,-8.58 -1.28,-2.12 -3.17,-3.17 -5.67,-3.17 -2.56,0 -4.46,1.05 -5.71,3.17 -1.25,2.11 -1.87,4.97 -1.87,8.58 0,3.61 0.62,6.47 1.87,8.58 1.25,2.11 3.15,3.17 5.71,3.17z"/>
  <path id="6" fill="white" fill-rule="nonzero" d="M549.5 184.42c-1.89,0 -3.6,-0.32 -5.13,-0.96 -1.52,-0.64 -2.82,-1.53 -3.87,-2.67 -1.06,-1.14 -1.88,-2.46 -2.46,-3.96 -0.58,-1.5 -0.88,-3.14 -0.88,-4.91 0,-4.34 1.84,-7.73 5.5,-10.17 3.67,-2.45 9.59,-4.08 17.75,-4.92 -0.11,-1.83 -0.65,-3.29 -1.62,-4.37 -0.97,-1.09 -2.6,-1.63 -4.87,-1.63 -1.78,0 -3.55,0.34 -5.3,1 -1.75,0.67 -3.62,1.59 -5.62,2.75l-4.42 -8.08c2.67,-1.61 5.46,-2.92 8.38,-3.92 2.91,-1 6.01,-1.5 9.29,-1.5 5.33,0 9.4,1.52 12.21,4.54 2.8,3.03 4.2,7.74 4.2,14.13l0 23.66 -10 0 -0.83 -4.24 -0.33 0c-1.78,1.55 -3.64,2.81 -5.59,3.79 -1.94,0.97 -4.08,1.46 -6.41,1.46zm4.16 -9.51c1.39,0 2.59,-0.3 3.59,-0.91 1,-0.61 2.05,-1.47 3.16,-2.59l0 -7.24c-4.33,0.61 -7.33,1.5 -9,2.66 -1.66,1.17 -2.5,2.56 -2.5,4.17 0,1.33 0.44,2.32 1.3,2.96 0.86,0.64 2.01,0.95 3.45,0.95z"/>
  <path id="7" fill="white" fill-rule="nonzero" d="M597.75 184.42c-2.56,0 -4.88,-0.51 -6.96,-1.5 -2.08,-1.01 -3.86,-2.44 -5.33,-4.3 -1.48,-1.86 -2.62,-4.12 -3.42,-6.79 -0.81,-2.67 -1.21,-5.69 -1.21,-9.08 0,-3.39 0.49,-6.42 1.46,-9.08 0.97,-2.67 2.25,-4.93 3.83,-6.8 1.59,-1.86 3.42,-3.29 5.5,-4.29 2.09,-1 4.21,-1.5 6.38,-1.5 2.33,0 4.25,0.39 5.75,1.17 1.5,0.78 2.97,1.83 4.41,3.17l-0.5 -6.34 0 -14.08 12.25 0 0 58.41 -10 0 -0.83 -4.08 -0.33 0c-1.45,1.45 -3.14,2.65 -5.09,3.63 -1.94,0.97 -3.91,1.46 -5.91,1.46zm3.16 -10.01c1.34,0 2.55,-0.27 3.63,-0.83 1.08,-0.55 2.12,-1.53 3.12,-2.92l0 -16.91c-1.11,-1 -2.25,-1.7 -3.41,-2.08 -1.17,-0.39 -2.31,-0.59 -3.42,-0.59 -1.94,0 -3.67,0.93 -5.17,2.79 -1.5,1.86 -2.25,4.77 -2.25,8.71 0,4.11 0.66,7.11 1.96,9 1.31,1.89 3.16,2.83 5.54,2.83z"/>
  <path id="8" fill="white" fill-rule="nonzero" d="M649.25 184.42c-2.95,0 -5.7,-0.49 -8.25,-1.46 -2.56,-0.98 -4.78,-2.39 -6.67,-4.25 -1.89,-1.86 -3.36,-4.13 -4.42,-6.79 -1.05,-2.67 -1.58,-5.73 -1.58,-9.17 0,-3.34 0.55,-6.35 1.67,-9.04 1.11,-2.7 2.56,-4.97 4.37,-6.84 1.81,-1.86 3.88,-3.29 6.21,-4.29 2.33,-1 4.75,-1.5 7.25,-1.5 2.94,0 5.51,0.5 7.71,1.5 2.19,1 4.02,2.39 5.5,4.17 1.47,1.78 2.57,3.87 3.29,6.29 0.72,2.42 1.08,5.04 1.08,7.87 0,1.12 -0.05,2.17 -0.17,3.17 -0.11,1 -0.22,1.75 -0.33,2.25l-24.75 0c0.56,3 1.79,5.21 3.71,6.63 1.92,1.41 4.26,2.12 7.04,2.12 2.95,0 5.92,-0.91 8.92,-2.75l4.08 7.42c-2.11,1.44 -4.46,2.58 -7.04,3.41 -2.58,0.84 -5.12,1.26 -7.62,1.26zm5.75 -26.17c0,-2.33 -0.53,-4.22 -1.59,-5.67 -1.05,-1.44 -2.83,-2.16 -5.33,-2.16 -1.95,0 -3.65,0.63 -5.13,1.91 -1.47,1.28 -2.43,3.25 -2.87,5.92l14.92 0z"/>
  <path id="9" fill="white" fill-rule="nonzero" d="M673.91 142.08l10 0 0.83 7.25 0.34 0c1.5,-2.83 3.3,-4.91 5.41,-6.25 2.12,-1.33 4.23,-2 6.34,-2 1.16,0 2.12,0.07 2.87,0.21 0.75,0.14 1.43,0.35 2.04,0.63l-2 10.58c-0.77,-0.22 -1.5,-0.39 -2.16,-0.5 -0.67,-0.11 -1.45,-0.17 -2.34,-0.17 -1.55,0 -3.18,0.56 -4.87,1.67 -1.69,1.11 -3.1,3.08 -4.21,5.91l0 24 -12.25 0 0 -41.33z"/>
  <g id="_1991610127840">
   <path fill="#FAFCFC" d="M492.73 265.85c46.37,-4.23 86.71,29.74 91.39,75.44 4.76,46.52 -28.85,87.93 -75.27,92.54 -47.71,4.73 -87.21,-29.34 -92.86,-75.96 -5.57,-45.96 31.32,-87.87 76.74,-92.02zm106.45 97.99c8.08,-53.58 -30.29,-105.77 -83.95,-112.86 -56.32,-7.43 -103.75,27.98 -113.95,83.12 -10.08,54.54 30.7,106.35 83.9,114.68 55.6,8.71 105.75,-30.32 114,-84.94z"/>
   <g>
    <rect fill="white" x="429.55" y="324.7" width="140.9" height="50.96" rx="4.7" ry="4.5"/>
    <rect fill="white" x="443.41" y="314.96" width="10.87" height="70.08" rx="3.88" ry="2"/>
    <rect fill="white" x="469.27" y="314.96" width="10.87" height="70.08" rx="3.88" ry="2"/>
    <rect fill="white" x="495.13" y="314.96" width="10.87" height="70.08" rx="3.88" ry="2"/>
    <rect fill="white" x="520.99" y="314.96" width="10.87" height="70.08" rx="3.88" ry="2"/>
    <rect fill="white" x="546.85" y="314.96" width="10.87" height="70.08" rx="3.88" ry="2"/>
   </g>
  </g>
 </g>
</svg>
