<?xml version="1.0" encoding="UTF-8"?>
<!DOCTYPE svg PUBLIC "-//W3C//DTD SVG 1.1//EN" "http://www.w3.org/Graphics/SVG/1.1/DTD/svg11.dtd">
<!-- Creator: CorelDRAW X7 -->
<svg xmlns="http://www.w3.org/2000/svg" xml:space="preserve" width="1000px" height="600px" version="1.1" shape-rendering="geometricPrecision" text-rendering="geometricPrecision" image-rendering="optimizeQuality" fill-rule="evenodd" clip-rule="evenodd"
viewBox="0 0 1000 600"
 xmlns:xlink="http://www.w3.org/1999/xlink">
 <g id="Layer_x0020_2">
  <metadata id="CorelCorpID_0Corel-Layer"/>
  <g id="_1991245327776">
   <rect fill="#5EA290" width="1000" height="600" rx="50.37" ry="50"/>
   <rect fill="none" stroke="white" stroke-width="10" x="50" y="50" width="900" height="500" rx="27.2" ry="25"/>
  </g>
 </g>
 <g id="Layer_x0020_1">
  <metadata id="CorelCorpID_1Corel-Layer"/>
  <path fill="white" fill-rule="nonzero" d="M154.72 182.33c-3.45,0 -6.7,-0.59 -9.75,-1.79 -3.06,-1.19 -5.74,-2.96 -8.05,-5.29 -2.3,-2.33 -4.12,-5.24 -5.45,-8.71 -1.34,-3.47 -2,-7.48 -2,-12.04 0,-4.5 0.69,-8.51 2.08,-12.04 1.39,-3.53 3.25,-6.52 5.58,-8.96 2.34,-2.44 5.06,-4.31 8.17,-5.58 3.11,-1.28 6.39,-1.92 9.83,-1.92 3.5,0 6.64,0.71 9.42,2.12 2.78,1.42 5.08,3.07 6.92,4.96l-6.51 7.84c-1.38,-1.28 -2.84,-2.32 -4.37,-3.13 -1.53,-0.8 -3.26,-1.21 -5.21,-1.21 -1.83,0 -3.57,0.41 -5.21,1.21 -1.63,0.81 -3.05,1.96 -4.25,3.46 -1.19,1.5 -2.13,3.33 -2.83,5.5 -0.69,2.17 -1.04,4.61 -1.04,7.33 0,5.61 1.19,9.96 3.58,13.04 2.39,3.09 5.59,4.63 9.59,4.63 2.22,0 4.2,-0.49 5.95,-1.46 1.75,-0.97 3.3,-2.18 4.63,-3.62l6.5 7.66c-4.56,5.34 -10.42,8 -17.58,8z"/>
  <path id="1" fill="white" fill-rule="nonzero" d="M203.55 158.83l-1.25 -5c-0.78,-2.72 -1.53,-5.61 -2.25,-8.66 -0.72,-3.06 -1.45,-6 -2.17,-8.84l-0.33 0c-0.67,2.89 -1.35,5.85 -2.04,8.88 -0.7,3.03 -1.43,5.9 -2.21,8.62l-1.34 5 11.59 0zm2.5 9.59l-16.59 0 -3.33 12.91 -12.5 0 17 -54.33 14.75 0 17 54.33 -13 0 -3.33 -12.91z"/>
  <path id="2" fill="white" fill-rule="nonzero" d="M228.3 127l18.66 0c3,0 5.81,0.29 8.42,0.88 2.61,0.58 4.89,1.55 6.83,2.91 1.95,1.36 3.49,3.17 4.63,5.42 1.14,2.25 1.71,5.01 1.71,8.29 0,3.17 -0.57,5.92 -1.71,8.25 -1.14,2.33 -2.68,4.25 -4.63,5.75 -1.94,1.5 -4.19,2.61 -6.75,3.33 -2.55,0.73 -5.28,1.09 -8.16,1.09l-6.75 0 0 18.41 -12.25 0 0 -54.33zm18.25 26.17c6.66,0 10,-2.89 10,-8.67 0,-2.83 -0.89,-4.83 -2.67,-6 -1.78,-1.17 -4.33,-1.75 -7.67,-1.75l-5.66 0 0 16.42 6 0z"/>
  <path id="3" fill="white" fill-rule="nonzero" d="M293.71 182.33c-3.55,0 -7.1,-0.65 -10.62,-1.96 -3.53,-1.3 -6.68,-3.26 -9.46,-5.87l7 -8.42c1.94,1.67 4.1,3.03 6.46,4.09 2.36,1.05 4.68,1.58 6.96,1.58 2.55,0 4.45,-0.47 5.7,-1.42 1.25,-0.94 1.88,-2.22 1.88,-3.83 0,-0.83 -0.18,-1.56 -0.54,-2.17 -0.36,-0.61 -0.89,-1.15 -1.59,-1.62 -0.69,-0.47 -1.52,-0.92 -2.5,-1.34 -0.97,-0.41 -2.04,-0.87 -3.21,-1.37l-7.08 -3c-1.39,-0.56 -2.73,-1.28 -4.04,-2.17 -1.31,-0.89 -2.47,-1.93 -3.5,-3.12 -1.03,-1.2 -1.85,-2.59 -2.46,-4.17 -0.61,-1.58 -0.91,-3.37 -0.91,-5.37 0,-2.23 0.47,-4.32 1.41,-6.29 0.95,-1.98 2.28,-3.7 4,-5.17 1.72,-1.47 3.77,-2.63 6.13,-3.46 2.36,-0.83 4.95,-1.25 7.79,-1.25 3.16,0 6.29,0.61 9.37,1.83 3.09,1.23 5.79,3 8.13,5.34l-6.25 7.75c-1.78,-1.39 -3.56,-2.46 -5.33,-3.21 -1.78,-0.75 -3.75,-1.13 -5.92,-1.13 -2.11,0 -3.79,0.43 -5.04,1.29 -1.25,0.87 -1.88,2.07 -1.88,3.63 0,0.83 0.21,1.54 0.63,2.12 0.41,0.59 1,1.12 1.75,1.59 0.75,0.47 1.62,0.91 2.62,1.33 1,0.42 2.08,0.88 3.25,1.38l7 2.83c3.34,1.33 5.96,3.17 7.88,5.5 1.91,2.33 2.87,5.42 2.87,9.25 0,2.28 -0.46,4.43 -1.37,6.46 -0.92,2.02 -2.25,3.8 -4,5.33 -1.75,1.53 -3.91,2.75 -6.46,3.67 -2.56,0.91 -5.45,1.37 -8.67,1.37z"/>
  <polygon id="4" fill="white" fill-rule="nonzero" points="323.46,127 357.46,127 357.46,137.33 335.71,137.33 335.71,148.25 354.21,148.25 354.21,158.5 335.71,158.5 335.71,171 358.29,171 358.29,181.33 323.46,181.33 "/>
  <path id="5" fill="white" fill-rule="nonzero" d="M369.13 127l12.58 0 14.17 27 5.33 12 0.33 0c-0.27,-2.89 -0.59,-6.11 -0.95,-9.67 -0.37,-3.55 -0.55,-6.94 -0.55,-10.16l0 -19.17 11.67 0 0 54.33 -12.58 0 -14.17 -27.08 -5.33 -11.83 -0.34 0c0.28,3 0.6,6.22 0.96,9.66 0.36,3.45 0.54,6.78 0.54,10l0 19.25 -11.66 0 0 -54.33z"/>
  <path id="6" fill="white" fill-rule="nonzero" d="M441.13 182.33c-3.56,0 -7.1,-0.65 -10.63,-1.96 -3.53,-1.3 -6.68,-3.26 -9.46,-5.87l7 -8.42c1.95,1.67 4.1,3.03 6.46,4.09 2.36,1.05 4.68,1.58 6.96,1.58 2.55,0 4.46,-0.47 5.71,-1.42 1.25,-0.94 1.87,-2.22 1.87,-3.83 0,-0.83 -0.18,-1.56 -0.54,-2.17 -0.36,-0.61 -0.89,-1.15 -1.58,-1.62 -0.7,-0.47 -1.53,-0.92 -2.5,-1.34 -0.97,-0.41 -2.04,-0.87 -3.21,-1.37l-7.08 -3c-1.39,-0.56 -2.74,-1.28 -4.05,-2.17 -1.3,-0.89 -2.47,-1.93 -3.5,-3.12 -1.02,-1.2 -1.84,-2.59 -2.45,-4.17 -0.62,-1.58 -0.92,-3.37 -0.92,-5.37 0,-2.23 0.47,-4.32 1.42,-6.29 0.94,-1.98 2.27,-3.7 4,-5.17 1.72,-1.47 3.76,-2.63 6.12,-3.46 2.36,-0.83 4.96,-1.25 7.79,-1.25 3.17,0 6.29,0.61 9.38,1.83 3.08,1.23 5.79,3 8.12,5.34l-6.25 7.75c-1.78,-1.39 -3.55,-2.46 -5.33,-3.21 -1.78,-0.75 -3.75,-1.13 -5.92,-1.13 -2.11,0 -3.79,0.43 -5.04,1.29 -1.25,0.87 -1.87,2.07 -1.87,3.63 0,0.83 0.2,1.54 0.62,2.12 0.42,0.59 1,1.12 1.75,1.59 0.75,0.47 1.63,0.91 2.63,1.33 1,0.42 2.08,0.88 3.25,1.38l7 2.83c3.33,1.33 5.95,3.17 7.87,5.5 1.92,2.33 2.87,5.42 2.87,9.25 0,2.28 -0.45,4.43 -1.37,6.46 -0.92,2.02 -2.25,3.8 -4,5.33 -1.75,1.53 -3.9,2.75 -6.46,3.67 -2.55,0.91 -5.44,1.37 -8.66,1.37z"/>
  <polygon id="7" fill="white" fill-rule="nonzero" points="470.88,127 504.87,127 504.87,137.33 483.12,137.33 483.12,148.25 501.62,148.25 501.62,158.5 483.12,158.5 483.12,171 505.71,171 505.71,181.33 470.88,181.33 "/>
  <path id="8" fill="white" fill-rule="nonzero" d="M517.71 132.25l-7.25 0 0 -7.25 22.41 0 0 7.25 -7.25 0 0 18.92 -7.91 0 0 -18.92zm18.75 -7.25l9 0 3.25 8.25 1.83 5.5 0.33 0 1.92 -5.5 3.17 -8.25 9.08 0 0 26.17 -7.33 0 0 -8 0.91 -9.59 -0.33 0 -4.75 13.75 -5.67 0 -4.66 -13.75 -0.34 0 0.92 9.59 0 8 -7.33 0 0 -26.17z"/>
  <path id="9" fill="white" fill-rule="nonzero" d="M590.04 127l18.58 0c2.84,0 5.46,0.21 7.88,0.63 2.41,0.41 4.53,1.15 6.33,2.2 1.81,1.06 3.22,2.45 4.25,4.17 1.03,1.72 1.54,3.89 1.54,6.5 0,1.22 -0.16,2.44 -0.5,3.67 -0.33,1.22 -0.8,2.36 -1.41,3.41 -0.62,1.06 -1.35,2 -2.21,2.84 -0.86,0.83 -1.85,1.44 -2.96,1.83l0 0.33c1.39,0.34 2.67,0.85 3.83,1.54 1.17,0.7 2.2,1.57 3.09,2.63 0.88,1.05 1.58,2.29 2.08,3.71 0.5,1.41 0.75,3.04 0.75,4.87 0,2.78 -0.54,5.17 -1.63,7.17 -1.08,2 -2.58,3.65 -4.5,4.96 -1.91,1.3 -4.15,2.28 -6.7,2.91 -2.56,0.64 -5.31,0.96 -8.25,0.96l-20.17 0 0 -54.33zm18 21.75c3,0 5.18,-0.58 6.54,-1.75 1.36,-1.17 2.04,-2.72 2.04,-4.67 0,-2.11 -0.69,-3.61 -2.08,-4.5 -1.39,-0.89 -3.53,-1.33 -6.42,-1.33l-5.83 0 0 12.25 5.75 0zm1.17 23.08c6.72,0 10.08,-2.44 10.08,-7.33 0,-2.39 -0.83,-4.1 -2.5,-5.13 -1.67,-1.02 -4.2,-1.54 -7.58,-1.54l-6.92 0 0 14 6.92 0z"/>
  <path id="10" fill="white" fill-rule="nonzero" d="M651.87 182.33c-4.5,0 -7.76,-1.47 -9.79,-4.41 -2.03,-2.95 -3.04,-7.03 -3.04,-12.25l0 -25.67 12.25 0 0 24.08c0,3 0.41,5.06 1.25,6.17 0.83,1.11 2.14,1.67 3.91,1.67 1.56,0 2.87,-0.36 3.92,-1.09 1.06,-0.72 2.2,-1.89 3.42,-3.5l0 -27.33 12.25 0 0 41.33 -10 0 -0.92 -5.75 -0.25 0c-1.78,2.11 -3.68,3.77 -5.71,4.96 -2.02,1.2 -4.46,1.79 -7.29,1.79z"/>
  <path id="11" fill="white" fill-rule="nonzero" d="M702.7 182.33c-2.55,0 -4.73,-0.39 -6.54,-1.16 -1.8,-0.78 -3.28,-1.87 -4.41,-3.25 -1.14,-1.39 -1.98,-3.07 -2.5,-5.05 -0.53,-1.97 -0.8,-4.15 -0.8,-6.54l0 -16.75 -5.66 0 0 -9.08 6.33 -0.5 1.42 -11 10.16 0 0 11 9.92 0 0 9.58 -9.92 0 0 16.59c0,2.33 0.49,4.01 1.46,5.04 0.97,1.03 2.27,1.54 3.88,1.54 0.66,0 1.35,-0.08 2.04,-0.25 0.69,-0.17 1.32,-0.36 1.87,-0.58l1.92 8.91c-1.11,0.34 -2.42,0.67 -3.92,1 -1.5,0.34 -3.25,0.5 -5.25,0.5z"/>
  <path id="12" fill="white" fill-rule="nonzero" d="M732.95 182.33c-2.55,0 -4.73,-0.39 -6.54,-1.16 -1.8,-0.78 -3.28,-1.87 -4.41,-3.25 -1.14,-1.39 -1.98,-3.07 -2.5,-5.05 -0.53,-1.97 -0.8,-4.15 -0.8,-6.54l0 -16.75 -5.66 0 0 -9.08 6.33 -0.5 1.42 -11 10.16 0 0 11 9.92 0 0 9.58 -9.92 0 0 16.59c0,2.33 0.49,4.01 1.46,5.04 0.97,1.03 2.27,1.54 3.88,1.54 0.66,0 1.34,-0.08 2.04,-0.25 0.69,-0.17 1.32,-0.36 1.87,-0.58l1.92 8.91c-1.11,0.34 -2.42,0.67 -3.92,1 -1.5,0.34 -3.25,0.5 -5.25,0.5z"/>
  <path id="13" fill="white" fill-rule="nonzero" d="M765.2 182.33c-2.61,0 -5.14,-0.48 -7.58,-1.46 -2.44,-0.97 -4.6,-2.37 -6.46,-4.2 -1.86,-1.84 -3.35,-4.1 -4.46,-6.8 -1.11,-2.69 -1.66,-5.76 -1.66,-9.2 0,-3.45 0.55,-6.52 1.66,-9.21 1.11,-2.7 2.6,-4.96 4.46,-6.79 1.86,-1.84 4.02,-3.24 6.46,-4.21 2.44,-0.97 4.97,-1.46 7.58,-1.46 2.61,0 5.13,0.49 7.54,1.46 2.42,0.97 4.56,2.37 6.42,4.21 1.86,1.83 3.35,4.09 4.46,6.79 1.11,2.69 1.67,5.76 1.67,9.21 0,3.44 -0.56,6.51 -1.67,9.2 -1.11,2.7 -2.6,4.96 -4.46,6.8 -1.86,1.83 -4,3.23 -6.42,4.2 -2.41,0.98 -4.93,1.46 -7.54,1.46zm0 -9.91c2.5,0 4.39,-1.06 5.67,-3.17 1.28,-2.11 1.92,-4.97 1.92,-8.58 0,-3.62 -0.64,-6.48 -1.92,-8.59 -1.28,-2.11 -3.17,-3.16 -5.67,-3.16 -2.55,0 -4.46,1.05 -5.71,3.16 -1.25,2.11 -1.87,4.97 -1.87,8.59 0,3.61 0.62,6.47 1.87,8.58 1.25,2.11 3.16,3.17 5.71,3.17z"/>
  <path id="14" fill="white" fill-rule="nonzero" d="M793.7 140l10 0 0.83 5.25 0.34 0c1.78,-1.67 3.72,-3.13 5.83,-4.38 2.11,-1.24 4.58,-1.87 7.42,-1.87 4.5,0 7.76,1.47 9.79,4.42 2.03,2.94 3.04,7.02 3.04,12.25l0 25.66 -12.25 0 0 -24.08c0,-3 -0.4,-5.06 -1.21,-6.17 -0.8,-1.11 -2.09,-1.66 -3.87,-1.66 -1.56,0 -2.89,0.34 -4,1.04 -1.11,0.69 -2.34,1.68 -3.67,2.96l0 27.91 -12.25 0 0 -41.33z"/>
  <path id="15" fill="white" fill-rule="nonzero" d="M853.53 182.33c-2.72,0 -5.51,-0.53 -8.37,-1.58 -2.86,-1.06 -5.35,-2.44 -7.46,-4.17l5.5 -7.66c1.89,1.44 3.69,2.52 5.42,3.25 1.72,0.72 3.47,1.08 5.25,1.08 1.83,0 3.16,-0.31 4,-0.92 0.83,-0.61 1.25,-1.47 1.25,-2.58 0,-0.67 -0.24,-1.26 -0.71,-1.79 -0.47,-0.53 -1.11,-1.02 -1.92,-1.46 -0.8,-0.45 -1.71,-0.85 -2.71,-1.21 -1,-0.36 -2.02,-0.76 -3.08,-1.21 -1.28,-0.5 -2.56,-1.08 -3.83,-1.75 -1.28,-0.66 -2.45,-1.48 -3.5,-2.46 -1.06,-0.97 -1.92,-2.11 -2.59,-3.41 -0.66,-1.31 -1,-2.82 -1,-4.54 0,-1.89 0.38,-3.64 1.13,-5.25 0.75,-1.62 1.82,-2.98 3.21,-4.09 1.39,-1.11 3.05,-1.98 5,-2.62 1.94,-0.64 4.11,-0.96 6.5,-0.96 3.16,0 5.94,0.54 8.33,1.62 2.39,1.09 4.47,2.3 6.25,3.63l-5.5 7.33c-1.5,-1.11 -2.97,-1.97 -4.42,-2.58 -1.44,-0.61 -2.89,-0.92 -4.33,-0.92 -3.11,0 -4.67,1.09 -4.67,3.25 0,0.67 0.23,1.24 0.67,1.71 0.45,0.47 1.04,0.9 1.79,1.29 0.75,0.39 1.61,0.77 2.58,1.13 0.98,0.36 1.99,0.73 3.05,1.12 1.33,0.5 2.65,1.07 3.96,1.71 1.3,0.64 2.5,1.43 3.58,2.38 1.08,0.94 1.96,2.09 2.62,3.45 0.67,1.37 1,2.99 1,4.88 0,1.89 -0.36,3.64 -1.08,5.25 -0.72,1.61 -1.81,3.01 -3.25,4.21 -1.44,1.19 -3.22,2.14 -5.33,2.83 -2.11,0.7 -4.56,1.04 -7.34,1.04z"/>
  <g id="_1991245326624">
   <path fill="#FEFEFF" d="M553.59 351.01c2.62,-0.72 1.56,-0.28 3.18,-2.07l6.3 -9.72c3.41,-3.79 10.27,-7.25 14.12,-0.89 4.13,6.84 -6.09,26.04 -6.84,34.96 4.01,-1.7 1.06,0.48 3.71,-3.05 4.61,-6.13 10.82,-21.52 19.06,-22.92 8.23,-1.39 10.09,5.32 8.59,12.54 -1.3,6.25 -4.58,13.86 -4.85,20.01 6.92,-2.81 13.93,-24.96 23.83,-19.88 9.92,5.08 -7.28,72.19 -9.8,76.18 -6.05,9.59 -27.83,4.54 -40.21,4.38 -19.1,-0.25 -26.84,5.5 -36.71,-8.84 -14.21,-20.65 -22.36,-40.54 -26.01,-66.23 -2.5,-17.61 -2.75,-28.13 17.58,-22.6l1.09 44.74 7.64 0.27c1.96,-10.11 -2.54,-75.58 0.29,-102.26 0.83,-7.89 8.29,-11.56 15.46,-7.4 5.67,3.29 4.31,13.07 4.3,21.46 -0.01,16.91 -1.28,34.98 -0.73,51.32zm-28.05 -16.9c-18.78,-2.65 -28.88,3.17 -26.88,22.54 1.47,14.25 3.91,27.69 8.49,40.64 4.45,12.6 10.04,23.55 16.61,33.57 7.35,11.2 11.91,19.98 30.87,18.42 15.36,-1.26 37.42,2.29 50.05,-0.17 14.67,-2.87 16.21,-14.29 19.55,-29.67 2.93,-13.49 6.04,-28.89 7.51,-42.52 1.93,-17.91 -2.65,-29.6 -20.93,-24.13 -5.23,-11.43 -8.83,-16.39 -24.08,-12.1 -4.03,-9.88 -6.57,-17.59 -24.46,-12.03 0.58,-12.92 0.62,-28.02 0.07,-40.95 -0.55,-12.85 -6.52,-20.34 -20.66,-18.98 -14.33,1.39 -15.06,11.48 -15.7,25.64 -0.59,12.75 -0.63,26.65 -0.44,39.74z"/>
   <path fill="#FEFEFF" d="M395.35 261.35c26.74,-8.49 42.35,35.34 11.15,44.64 -26.06,7.76 -43.65,-34.31 -11.15,-44.64zm-26.8 30.32c7.02,38.32 73.22,32.04 64.63,-15.93 -2.9,-16.24 -19.7,-28.59 -40.33,-24.46 -16.11,3.22 -28.07,19.78 -24.3,40.39z"/>
   <path fill="#FEFEFF" d="M523.04 310.18c-0.23,-9.96 0.53,-9.94 -2.41,-18.63 -10.22,-30.27 36.96,-46.71 46.7,-14.63 4.25,14.02 -4.43,12.58 -2.77,33.65 9.34,-5.2 16.95,-22.37 11.31,-38.1 -15.12,-42.13 -77.72,-19.43 -64.37,22.13 2.04,6.33 5.77,13.23 11.54,15.58z"/>
  </g>
 </g>
</svg>
