<?xml version="1.0" encoding="UTF-8"?>
<!DOCTYPE svg PUBLIC "-//W3C//DTD SVG 1.1//EN" "http://www.w3.org/Graphics/SVG/1.1/DTD/svg11.dtd">
<!-- Creator: CorelDRAW X7 -->
<svg xmlns="http://www.w3.org/2000/svg" xml:space="preserve" width="1000px" height="600px" version="1.1" shape-rendering="geometricPrecision" text-rendering="geometricPrecision" image-rendering="optimizeQuality" fill-rule="evenodd" clip-rule="evenodd"
viewBox="0 0 1000 600"
 xmlns:xlink="http://www.w3.org/1999/xlink">
 <g id="Layer_x0020_2">
  <metadata id="CorelCorpID_0Corel-Layer"/>
  <g id="_1992667519408">
   <rect fill="#5EA290" width="1000" height="600" rx="50.37" ry="50"/>
   <rect fill="none" stroke="white" stroke-width="10" x="50" y="50" width="900" height="500" rx="27.2" ry="25"/>
  </g>
 </g>
 <g id="Layer_x0020_1">
  <metadata id="CorelCorpID_1Corel-Layer"/>
  <path fill="white" fill-rule="nonzero" d="M86.27 152.75l5.7 0c2.9,0 5.11,-0.61 6.64,-1.84 1.52,-1.22 2.29,-3.04 2.29,-5.44 0,-2.4 -0.77,-4.07 -2.29,-5.02 -1.53,-0.95 -3.74,-1.43 -6.64,-1.43l-5.7 0 0 13.73zm15.45 26.4l-9.37 -17.63 -6.08 0 0 17.63 -11.02 0 0 -48.9 17.62 0c2.6,0 5.04,0.25 7.31,0.75 2.28,0.5 4.27,1.34 5.97,2.51 1.7,1.18 3.05,2.74 4.05,4.69 1,1.95 1.5,4.37 1.5,7.27 0,3.6 -0.79,6.57 -2.37,8.89 -1.57,2.33 -3.68,4.06 -6.33,5.21l11.1 19.58 -12.38 0z"/>
  <path id="1" fill="white" fill-rule="nonzero" d="M131.5 180.05c-4.05,0 -6.99,-1.33 -8.82,-3.98 -1.82,-2.65 -2.73,-6.32 -2.73,-11.02l0 -23.1 11.02 0 0 21.67c0,2.7 0.38,4.55 1.13,5.55 0.75,1 1.92,1.5 3.52,1.5 1.4,0 2.57,-0.32 3.53,-0.97 0.95,-0.65 1.97,-1.7 3.07,-3.15l0 -24.6 11.02 0 0 37.2 -8.99 0 -0.83 -5.18 -0.22 0c-1.6,1.9 -3.32,3.39 -5.14,4.47 -1.83,1.07 -4.01,1.61 -6.56,1.61z"/>
  <path id="2" fill="white" fill-rule="nonzero" d="M162.92 141.95l9 0 0.75 4.72 0.3 0c1.6,-1.5 3.35,-2.81 5.25,-3.93 1.9,-1.13 4.12,-1.69 6.67,-1.69 4.05,0 6.99,1.32 8.82,3.97 1.82,2.65 2.73,6.33 2.73,11.03l0 23.1 -11.02 0 0 -21.68c0,-2.7 -0.36,-4.55 -1.09,-5.55 -0.72,-1 -1.89,-1.5 -3.49,-1.5 -1.4,0 -2.6,0.32 -3.6,0.94 -1,0.63 -2.1,1.51 -3.3,2.66l0 25.13 -11.02 0 0 -37.2z"/>
  <path id="3" fill="white" fill-rule="nonzero" d="M205.82 141.95l9 0 0.75 4.72 0.3 0c1.6,-1.5 3.35,-2.81 5.25,-3.93 1.9,-1.13 4.12,-1.69 6.67,-1.69 4.05,0 6.99,1.32 8.82,3.97 1.82,2.65 2.73,6.33 2.73,11.03l0 23.1 -11.02 0 0 -21.68c0,-2.7 -0.36,-4.55 -1.09,-5.55 -0.72,-1 -1.89,-1.5 -3.49,-1.5 -1.4,0 -2.6,0.32 -3.6,0.94 -1,0.63 -2.1,1.51 -3.3,2.66l0 25.13 -11.02 0 0 -37.2z"/>
  <path id="4" fill="white" fill-rule="nonzero" d="M248.72 141.95l11.02 0 0 37.2 -11.02 0 0 -37.2zm5.47 -5.48c-1.85,0 -3.37,-0.53 -4.57,-1.61 -1.2,-1.07 -1.8,-2.46 -1.8,-4.16 0,-1.7 0.6,-3.08 1.8,-4.13 1.2,-1.05 2.72,-1.57 4.57,-1.57 1.9,0 3.44,0.52 4.61,1.57 1.18,1.05 1.77,2.43 1.77,4.13 0,1.7 -0.59,3.09 -1.77,4.16 -1.17,1.08 -2.71,1.61 -4.61,1.61z"/>
  <path id="5" fill="white" fill-rule="nonzero" d="M269.42 141.95l9 0 0.75 4.72 0.3 0c1.6,-1.5 3.35,-2.81 5.25,-3.93 1.9,-1.13 4.12,-1.69 6.67,-1.69 4.05,0 6.99,1.32 8.81,3.97 1.83,2.65 2.74,6.33 2.74,11.03l0 23.1 -11.02 0 0 -21.68c0,-2.7 -0.37,-4.55 -1.09,-5.55 -0.73,-1 -1.89,-1.5 -3.49,-1.5 -1.4,0 -2.6,0.32 -3.6,0.94 -1,0.63 -2.1,1.51 -3.3,2.66l0 25.13 -11.02 0 0 -37.2z"/>
  <path id="6" fill="white" fill-rule="nonzero" d="M325.59 194.97c-2.2,0 -4.24,-0.18 -6.11,-0.56 -1.88,-0.37 -3.53,-0.94 -4.95,-1.69 -1.43,-0.75 -2.54,-1.72 -3.34,-2.92 -0.8,-1.2 -1.2,-2.63 -1.2,-4.28 0,-3 1.78,-5.5 5.33,-7.5l0 -0.3c-1,-0.65 -1.83,-1.47 -2.48,-2.47 -0.65,-1 -0.97,-2.28 -0.97,-3.83 0,-1.35 0.4,-2.63 1.2,-3.86 0.8,-1.22 1.8,-2.26 3,-3.11l0 -0.3c-1.3,-0.9 -2.47,-2.19 -3.49,-3.86 -1.03,-1.68 -1.54,-3.62 -1.54,-5.82 0,-2.25 0.43,-4.21 1.28,-5.88 0.85,-1.68 1.98,-3.08 3.41,-4.2 1.42,-1.13 3.06,-1.97 4.91,-2.52 1.85,-0.55 3.78,-0.82 5.78,-0.82 2.2,0 4.12,0.3 5.77,0.9l13.58 0 0 8.02 -5.93 0c0.35,0.55 0.64,1.25 0.86,2.1 0.23,0.85 0.34,1.78 0.34,2.78 0,2.15 -0.37,4.01 -1.12,5.59 -0.75,1.57 -1.79,2.87 -3.12,3.9 -1.32,1.02 -2.87,1.78 -4.65,2.28 -1.77,0.5 -3.68,0.75 -5.73,0.75 -1.45,0 -2.95,-0.25 -4.5,-0.75 -0.5,0.4 -0.85,0.8 -1.05,1.2 -0.2,0.4 -0.3,0.93 -0.3,1.58 0,0.95 0.41,1.65 1.23,2.1 0.83,0.45 2.29,0.67 4.39,0.67l6 0c4.6,0 8.11,0.74 10.54,2.22 2.42,1.47 3.64,3.88 3.64,7.23 0,1.95 -0.49,3.74 -1.47,5.37 -0.97,1.62 -2.36,3.02 -4.16,4.2 -1.8,1.17 -3.97,2.1 -6.52,2.77 -2.55,0.68 -5.43,1.01 -8.63,1.01zm0.83 -34.27c1.45,0 2.66,-0.51 3.63,-1.54 0.98,-1.02 1.47,-2.59 1.47,-4.69 0,-1.95 -0.49,-3.43 -1.47,-4.46 -0.97,-1.02 -2.18,-1.54 -3.63,-1.54 -1.45,0 -2.67,0.5 -3.64,1.5 -0.98,1 -1.46,2.5 -1.46,4.5 0,2.1 0.48,3.67 1.46,4.69 0.97,1.03 2.19,1.54 3.64,1.54zm0.9 27.37c2.5,0 4.55,-0.43 6.15,-1.31 1.6,-0.87 2.4,-1.96 2.4,-3.26 0,-1.15 -0.49,-1.93 -1.47,-2.33 -0.97,-0.4 -2.38,-0.6 -4.23,-0.6l-3.83 0c-1.3,0 -2.35,-0.03 -3.15,-0.11 -0.8,-0.07 -1.5,-0.19 -2.1,-0.34 -1.35,1.2 -2.02,2.43 -2.02,3.68 0,1.4 0.75,2.46 2.25,3.19 1.5,0.72 3.5,1.08 6,1.08z"/>
  <path id="7" fill="white" fill-rule="nonzero" d="M383.19 180.05c-3.2,0 -6.39,-0.59 -9.56,-1.76 -3.18,-1.18 -6.02,-2.94 -8.52,-5.29l6.3 -7.58c1.75,1.5 3.69,2.73 5.82,3.68 2.12,0.95 4.21,1.42 6.26,1.42 2.3,0 4.01,-0.42 5.14,-1.27 1.12,-0.85 1.68,-2 1.68,-3.45 0,-0.75 -0.16,-1.4 -0.48,-1.95 -0.33,-0.55 -0.8,-1.04 -1.43,-1.46 -0.62,-0.43 -1.37,-0.83 -2.25,-1.2 -0.87,-0.38 -1.84,-0.79 -2.89,-1.24l-6.37 -2.7c-1.25,-0.5 -2.46,-1.15 -3.64,-1.95 -1.17,-0.8 -2.22,-1.74 -3.15,-2.81 -0.92,-1.08 -1.66,-2.33 -2.21,-3.75 -0.55,-1.43 -0.83,-3.04 -0.83,-4.84 0,-2 0.43,-3.89 1.28,-5.66 0.85,-1.78 2.05,-3.33 3.6,-4.65 1.55,-1.33 3.39,-2.37 5.51,-3.12 2.13,-0.75 4.46,-1.12 7.01,-1.12 2.85,0 5.67,0.55 8.44,1.65 2.78,1.1 5.21,2.7 7.31,4.8l-5.62 6.97c-1.6,-1.25 -3.2,-2.21 -4.8,-2.88 -1.6,-0.68 -3.38,-1.02 -5.33,-1.02 -1.89,0 -3.41,0.39 -4.53,1.17 -1.13,0.77 -1.69,1.86 -1.69,3.26 0,0.75 0.19,1.39 0.56,1.91 0.38,0.53 0.9,1 1.58,1.43 0.67,0.42 1.46,0.82 2.36,1.2 0.9,0.37 1.87,0.78 2.92,1.23l6.3 2.55c3,1.2 5.37,2.85 7.09,4.95 1.73,2.1 2.59,4.88 2.59,8.33 0,2.05 -0.41,3.99 -1.24,5.81 -0.82,1.83 -2.02,3.43 -3.6,4.8 -1.57,1.38 -3.51,2.48 -5.81,3.3 -2.3,0.83 -4.9,1.24 -7.8,1.24z"/>
  <path id="8" fill="white" fill-rule="nonzero" d="M409.06 141.95l9 0 0.75 3.67 0.3 0c1.45,-1.3 3.09,-2.38 4.92,-3.26 1.82,-0.87 3.71,-1.31 5.66,-1.31 2.25,0 4.27,0.45 6.07,1.35 1.8,0.9 3.33,2.17 4.58,3.82 1.25,1.65 2.21,3.64 2.89,5.97 0.67,2.32 1.01,4.91 1.01,7.76 0,3.2 -0.44,6.04 -1.31,8.51 -0.88,2.48 -2.05,4.58 -3.53,6.3 -1.47,1.73 -3.15,3.04 -5.02,3.94 -1.88,0.9 -3.82,1.35 -5.82,1.35 -1.6,0 -3.15,-0.34 -4.65,-1.01 -1.5,-0.68 -2.9,-1.64 -4.2,-2.89l0.38 5.92 0 10.88 -11.03 0 0 -51zm16.95 29.1c1.9,0 3.53,-0.86 4.88,-2.59 1.35,-1.72 2.02,-4.51 2.02,-8.36 0,-6.7 -2.15,-10.05 -6.45,-10.05 -2.15,0 -4.27,1.12 -6.37,3.37l0 15.23c1,0.9 2,1.52 3,1.87 1,0.35 1.97,0.53 2.92,0.53z"/>
  <path id="9" fill="white" fill-rule="nonzero" d="M468.69 180.05c-2.65,0 -5.13,-0.44 -7.43,-1.31 -2.3,-0.88 -4.3,-2.15 -6,-3.83 -1.7,-1.67 -3.02,-3.71 -3.97,-6.11 -0.95,-2.4 -1.43,-5.15 -1.43,-8.25 0,-3 0.5,-5.71 1.5,-8.14 1,-2.42 2.32,-4.47 3.94,-6.15 1.63,-1.67 3.49,-2.96 5.59,-3.86 2.1,-0.9 4.27,-1.35 6.52,-1.35 2.65,0 4.97,0.45 6.94,1.35 1.98,0.9 3.63,2.15 4.95,3.75 1.33,1.6 2.31,3.49 2.96,5.66 0.65,2.18 0.98,4.54 0.98,7.09 0,1 -0.05,1.95 -0.15,2.85 -0.1,0.9 -0.2,1.57 -0.3,2.02l-22.28 0c0.5,2.7 1.62,4.69 3.34,5.97 1.73,1.27 3.84,1.91 6.34,1.91 2.65,0 5.32,-0.83 8.02,-2.48l3.68 6.68c-1.9,1.3 -4.01,2.32 -6.34,3.07 -2.32,0.75 -4.61,1.13 -6.86,1.13zm5.17 -23.55c0,-2.1 -0.47,-3.8 -1.42,-5.1 -0.95,-1.3 -2.55,-1.95 -4.8,-1.95 -1.75,0 -3.29,0.57 -4.61,1.72 -1.33,1.15 -2.19,2.93 -2.59,5.33l13.42 0z"/>
  <path id="10" fill="white" fill-rule="nonzero" d="M507.54 180.05c-2.65,0 -5.13,-0.44 -7.43,-1.31 -2.3,-0.88 -4.3,-2.15 -6,-3.83 -1.7,-1.67 -3.02,-3.71 -3.97,-6.11 -0.95,-2.4 -1.43,-5.15 -1.43,-8.25 0,-3 0.5,-5.71 1.5,-8.14 1,-2.42 2.31,-4.47 3.94,-6.15 1.62,-1.67 3.49,-2.96 5.59,-3.86 2.1,-0.9 4.27,-1.35 6.52,-1.35 2.65,0 4.96,0.45 6.94,1.35 1.97,0.9 3.62,2.15 4.95,3.75 1.32,1.6 2.31,3.49 2.96,5.66 0.65,2.18 0.98,4.54 0.98,7.09 0,1 -0.05,1.95 -0.15,2.85 -0.1,0.9 -0.2,1.57 -0.3,2.02l-22.28 0c0.5,2.7 1.61,4.69 3.34,5.97 1.72,1.27 3.84,1.91 6.34,1.91 2.65,0 5.32,-0.83 8.02,-2.48l3.68 6.68c-1.9,1.3 -4.02,2.32 -6.34,3.07 -2.33,0.75 -4.61,1.13 -6.86,1.13zm5.17 -23.55c0,-2.1 -0.47,-3.8 -1.42,-5.1 -0.95,-1.3 -2.55,-1.95 -4.8,-1.95 -1.75,0 -3.29,0.57 -4.62,1.72 -1.32,1.15 -2.18,2.93 -2.58,5.33l13.42 0z"/>
  <path id="11" fill="white" fill-rule="nonzero" d="M543.01 180.05c-2.3,0 -4.39,-0.45 -6.26,-1.35 -1.88,-0.9 -3.48,-2.19 -4.8,-3.86 -1.33,-1.68 -2.35,-3.72 -3.08,-6.12 -0.72,-2.4 -1.08,-5.12 -1.08,-8.17 0,-3.05 0.43,-5.78 1.31,-8.18 0.87,-2.4 2.02,-4.43 3.45,-6.11 1.42,-1.67 3.07,-2.96 4.95,-3.86 1.87,-0.9 3.79,-1.35 5.74,-1.35 2.1,0 3.82,0.35 5.17,1.05 1.35,0.7 2.68,1.65 3.98,2.85l-0.45 -5.7 0 -12.68 11.02 0 0 52.58 -9 0 -0.75 -3.68 -0.3 0c-1.3,1.3 -2.82,2.39 -4.57,3.27 -1.75,0.87 -3.53,1.31 -5.33,1.31zm2.85 -9c1.2,0 2.29,-0.25 3.26,-0.75 0.98,-0.5 1.92,-1.38 2.82,-2.63l0 -15.22c-1,-0.9 -2.03,-1.53 -3.08,-1.88 -1.05,-0.35 -2.07,-0.52 -3.07,-0.52 -1.75,0 -3.3,0.84 -4.65,2.51 -1.35,1.68 -2.03,4.29 -2.03,7.84 0,3.7 0.59,6.4 1.76,8.1 1.18,1.7 2.84,2.55 4.99,2.55z"/>
  <path id="12" fill="white" fill-rule="nonzero" d="M595.14 165.42c0,1.85 0.66,3.35 1.98,4.5 1.33,1.15 3.09,1.73 5.29,1.73 2,0 4.07,-0.65 6.23,-1.95 -1.9,-1.55 -3.72,-3.18 -5.44,-4.88 -1.73,-1.7 -3.32,-3.45 -4.76,-5.25 -1,0.85 -1.8,1.75 -2.4,2.7 -0.6,0.95 -0.9,2 -0.9,3.15zm4.57 -23.32c0,0.9 0.14,1.85 0.41,2.85 0.28,1 0.66,2 1.17,3 1.74,-1.05 3.22,-2.15 4.42,-3.3 1.2,-1.15 1.8,-2.55 1.8,-4.2 0,-1.15 -0.28,-2.08 -0.82,-2.78 -0.55,-0.7 -1.41,-1.05 -2.55,-1.05 -1.26,0 -2.31,0.49 -3.15,1.47 -0.85,0.97 -1.28,2.31 -1.28,4.01zm29.17 37.95c-2.04,-0.4 -4.12,-1.03 -6.22,-1.88 -2.1,-0.85 -4.2,-1.87 -6.3,-3.07 -2.1,1.55 -4.41,2.76 -6.94,3.64 -2.52,0.87 -5.34,1.31 -8.43,1.31 -2.65,0 -4.99,-0.38 -7.02,-1.13 -2.02,-0.75 -3.72,-1.76 -5.1,-3.03 -1.37,-1.28 -2.41,-2.75 -3.11,-4.43 -0.7,-1.67 -1.05,-3.46 -1.05,-5.36 0,-1.7 0.24,-3.24 0.71,-4.61 0.48,-1.38 1.13,-2.62 1.95,-3.72 0.83,-1.1 1.78,-2.1 2.85,-3 1.08,-0.9 2.22,-1.72 3.42,-2.47 -0.95,-1.75 -1.69,-3.49 -2.22,-5.21 -0.52,-1.73 -0.78,-3.37 -0.78,-4.92 0,-1.75 0.31,-3.4 0.93,-4.95 0.63,-1.55 1.52,-2.91 2.67,-4.08 1.14,-1.18 2.53,-2.1 4.16,-2.78 1.62,-0.67 3.46,-1.01 5.51,-1.01 3.7,0 6.62,1 8.78,3 2.15,2 3.22,4.7 3.22,8.1 0,1.6 -0.29,3.06 -0.86,4.39 -0.58,1.32 -1.35,2.55 -2.33,3.67 -0.97,1.13 -2.07,2.16 -3.3,3.11 -1.22,0.95 -2.46,1.85 -3.71,2.7 1.4,1.6 2.94,3.17 4.61,4.69 1.68,1.53 3.42,2.94 5.22,4.24 1.25,-1.6 2.34,-3.38 3.3,-5.33 0.95,-1.95 1.72,-4.07 2.32,-6.37l10.05 0c-0.9,3 -2.01,5.86 -3.34,8.59 -1.32,2.72 -2.94,5.36 -4.84,7.91 1.56,0.8 3.04,1.46 4.47,1.99 1.42,0.52 2.76,0.88 4.01,1.08l-2.63 8.93z"/>
  <path id="13" fill="white" fill-rule="nonzero" d="M674.03 180.05c-3.09,0 -6.02,-0.54 -8.77,-1.61 -2.75,-1.08 -5.16,-2.67 -7.24,-4.77 -2.07,-2.1 -3.71,-4.71 -4.91,-7.83 -1.2,-3.13 -1.8,-6.74 -1.8,-10.84 0,-4.05 0.62,-7.66 1.87,-10.84 1.26,-3.17 2.93,-5.86 5.03,-8.06 2.1,-2.2 4.55,-3.88 7.35,-5.03 2.8,-1.15 5.75,-1.72 8.85,-1.72 3.15,0 5.97,0.64 8.47,1.91 2.5,1.28 4.58,2.76 6.23,4.46l-5.85 7.05c-1.25,-1.15 -2.56,-2.08 -3.94,-2.81 -1.37,-0.72 -2.94,-1.09 -4.69,-1.09 -1.65,0 -3.21,0.37 -4.68,1.09 -1.48,0.73 -2.75,1.76 -3.83,3.11 -1.07,1.35 -1.92,3 -2.55,4.95 -0.62,1.95 -0.94,4.15 -0.94,6.6 0,5.05 1.08,8.97 3.23,11.74 2.15,2.78 5.02,4.16 8.62,4.16 2,0 3.79,-0.43 5.37,-1.31 1.57,-0.87 2.96,-1.96 4.16,-3.26l5.85 6.9c-4.1,4.8 -9.38,7.2 -15.83,7.2z"/>
  <path id="14" fill="white" fill-rule="nonzero" d="M705.76 180.05c-1.7,0 -3.24,-0.29 -4.61,-0.86 -1.38,-0.58 -2.54,-1.38 -3.49,-2.4 -0.95,-1.03 -1.69,-2.22 -2.21,-3.57 -0.53,-1.35 -0.79,-2.82 -0.79,-4.42 0,-3.9 1.65,-6.95 4.95,-9.15 3.3,-2.2 8.62,-3.68 15.97,-4.43 -0.1,-1.65 -0.58,-2.96 -1.46,-3.93 -0.87,-0.98 -2.34,-1.47 -4.39,-1.47 -1.6,0 -3.18,0.3 -4.76,0.9 -1.57,0.6 -3.26,1.43 -5.06,2.48l-3.98 -7.28c2.4,-1.45 4.92,-2.62 7.54,-3.52 2.63,-0.9 5.41,-1.35 8.36,-1.35 4.8,0 8.47,1.36 10.99,4.09 2.53,2.72 3.79,6.96 3.79,12.71l0 21.3 -9 0 -0.75 -3.83 -0.3 0c-1.6,1.4 -3.28,2.54 -5.03,3.42 -1.75,0.87 -3.67,1.31 -5.77,1.31zm3.75 -8.55c1.25,0 2.32,-0.28 3.22,-0.83 0.9,-0.55 1.85,-1.32 2.85,-2.32l0 -6.53c-3.9,0.55 -6.6,1.35 -8.1,2.4 -1.5,1.05 -2.25,2.3 -2.25,3.75 0,1.2 0.39,2.09 1.17,2.67 0.77,0.57 1.81,0.86 3.11,0.86z"/>
  <path id="15" fill="white" fill-rule="nonzero" d="M749.18 180.05c-2.3,0 -4.38,-0.45 -6.26,-1.35 -1.87,-0.9 -3.47,-2.19 -4.8,-3.86 -1.32,-1.68 -2.35,-3.72 -3.07,-6.12 -0.73,-2.4 -1.09,-5.12 -1.09,-8.17 0,-3.05 0.44,-5.78 1.31,-8.18 0.88,-2.4 2.03,-4.43 3.45,-6.11 1.43,-1.67 3.08,-2.96 4.95,-3.86 1.88,-0.9 3.79,-1.35 5.74,-1.35 2.1,0 3.82,0.35 5.17,1.05 1.35,0.7 2.68,1.65 3.98,2.85l-0.45 -5.7 0 -12.68 11.02 0 0 52.58 -9 0 -0.75 -3.68 -0.3 0c-1.3,1.3 -2.82,2.39 -4.57,3.27 -1.75,0.87 -3.53,1.31 -5.33,1.31zm2.85 -9c1.2,0 2.29,-0.25 3.27,-0.75 0.97,-0.5 1.91,-1.38 2.81,-2.63l0 -15.22c-1,-0.9 -2.03,-1.53 -3.08,-1.88 -1.05,-0.35 -2.07,-0.52 -3.07,-0.52 -1.75,0 -3.3,0.84 -4.65,2.51 -1.35,1.68 -2.03,4.29 -2.03,7.84 0,3.7 0.59,6.4 1.77,8.1 1.17,1.7 2.83,2.55 4.98,2.55z"/>
  <path id="16" fill="white" fill-rule="nonzero" d="M795.53 180.05c-2.65,0 -5.12,-0.44 -7.42,-1.31 -2.3,-0.88 -4.3,-2.15 -6,-3.83 -1.7,-1.67 -3.03,-3.71 -3.98,-6.11 -0.95,-2.4 -1.42,-5.15 -1.42,-8.25 0,-3 0.5,-5.71 1.5,-8.14 1,-2.42 2.31,-4.47 3.94,-6.15 1.62,-1.67 3.48,-2.96 5.58,-3.86 2.1,-0.9 4.28,-1.35 6.53,-1.35 2.65,0 4.96,0.45 6.93,1.35 1.98,0.9 3.63,2.15 4.95,3.75 1.33,1.6 2.32,3.49 2.97,5.66 0.65,2.18 0.97,4.54 0.97,7.09 0,1 -0.05,1.95 -0.15,2.85 -0.1,0.9 -0.2,1.57 -0.3,2.02l-22.27 0c0.5,2.7 1.61,4.69 3.34,5.97 1.72,1.27 3.83,1.91 6.33,1.91 2.65,0 5.33,-0.83 8.03,-2.48l3.67 6.68c-1.9,1.3 -4.01,2.32 -6.34,3.07 -2.32,0.75 -4.61,1.13 -6.86,1.13zm5.18 -23.55c0,-2.1 -0.48,-3.8 -1.43,-5.1 -0.95,-1.3 -2.55,-1.95 -4.8,-1.95 -1.75,0 -3.28,0.57 -4.61,1.72 -1.33,1.15 -2.19,2.93 -2.59,5.33l13.43 0z"/>
  <path id="17" fill="white" fill-rule="nonzero" d="M817.73 141.95l9 0 0.75 4.72 0.3 0c1.6,-1.5 3.35,-2.81 5.25,-3.93 1.9,-1.13 4.13,-1.69 6.68,-1.69 4.05,0 6.98,1.32 8.81,3.97 1.82,2.65 2.74,6.33 2.74,11.03l0 23.1 -11.03 0 0 -21.68c0,-2.7 -0.36,-4.55 -1.09,-5.55 -0.72,-1 -1.88,-1.5 -3.48,-1.5 -1.4,0 -2.6,0.32 -3.6,0.94 -1,0.63 -2.1,1.51 -3.3,2.66l0 25.13 -11.03 0 0 -37.2z"/>
  <path id="18" fill="white" fill-rule="nonzero" d="M876.83 180.05c-2.6,0 -5.01,-0.44 -7.24,-1.31 -2.22,-0.88 -4.16,-2.14 -5.81,-3.79 -1.65,-1.65 -2.95,-3.69 -3.9,-6.11 -0.95,-2.43 -1.42,-5.19 -1.42,-8.29 0,-3.1 0.52,-5.86 1.57,-8.29 1.05,-2.42 2.46,-4.46 4.24,-6.11 1.77,-1.65 3.84,-2.91 6.19,-3.79 2.34,-0.87 4.8,-1.31 7.35,-1.31 2.3,0 4.33,0.37 6.11,1.12 1.77,0.75 3.36,1.7 4.76,2.85l-5.17 7.13c-1.75,-1.45 -3.43,-2.18 -5.03,-2.18 -2.7,0 -4.82,0.95 -6.37,2.85 -1.56,1.9 -2.33,4.48 -2.33,7.73 0,3.25 0.79,5.82 2.36,7.72 1.58,1.9 3.57,2.85 5.97,2.85 1.2,0 2.36,-0.26 3.48,-0.78 1.13,-0.53 2.19,-1.17 3.19,-1.92l4.35 7.2c-1.85,1.6 -3.85,2.74 -6,3.42 -2.15,0.67 -4.25,1.01 -6.3,1.01z"/>
  <path id="19" fill="white" fill-rule="nonzero" d="M910.2 180.05c-2.64,0 -5.12,-0.44 -7.42,-1.31 -2.3,-0.88 -4.3,-2.15 -6,-3.83 -1.7,-1.67 -3.02,-3.71 -3.98,-6.11 -0.95,-2.4 -1.42,-5.15 -1.42,-8.25 0,-3 0.5,-5.71 1.5,-8.14 1,-2.42 2.31,-4.47 3.94,-6.15 1.62,-1.67 3.48,-2.96 5.58,-3.86 2.1,-0.9 4.28,-1.35 6.53,-1.35 2.65,0 4.96,0.45 6.94,1.35 1.97,0.9 3.62,2.15 4.95,3.75 1.32,1.6 2.31,3.49 2.96,5.66 0.65,2.18 0.97,4.54 0.97,7.09 0,1 -0.05,1.95 -0.15,2.85 -0.1,0.9 -0.2,1.57 -0.3,2.02l-22.27 0c0.5,2.7 1.61,4.69 3.34,5.97 1.72,1.27 3.84,1.91 6.33,1.91 2.65,0 5.33,-0.83 8.03,-2.48l3.67 6.68c-1.9,1.3 -4.01,2.32 -6.33,3.07 -2.33,0.75 -4.62,1.13 -6.87,1.13zm5.18 -23.55c0,-2.1 -0.48,-3.8 -1.43,-5.1 -0.95,-1.3 -2.55,-1.95 -4.8,-1.95 -1.74,0 -3.28,0.57 -4.61,1.72 -1.32,1.15 -2.19,2.93 -2.59,5.33l13.43 0z"/>
  <g id="_1992667518384">
   <path fill="#FEFEFF" d="M414.6 404.18c4.92,-1.66 2.08,-0.67 4.97,-3.11 3.03,-2.57 -1.16,-1.2 3.61,-2.04 3.31,-4.97 5.47,-2.58 9.81,-4.62 2.66,-1.25 -1.85,-0.68 4.49,-2.25 1.37,-0.34 4.9,-0.7 6.4,-0.83 5.93,-0.5 22.88,-0.12 29.06,0.33 12.96,0.95 11.87,-4.25 19.08,-10.03 7.04,-5.65 7.17,-9.75 12.91,-15.63 6.81,4.57 15.93,7.79 23.08,12.11 0.21,6.01 -1.21,9.67 0.38,15.96 1.29,5.11 3.45,6.1 5.22,10.75 5.98,15.69 0.18,18.21 1.09,25.05 8.44,3.11 10.41,-0.74 19.52,-0.64 5.38,0.04 9.41,-2.89 12.81,-5.73 -0.58,-2.51 0.9,-1.14 -1.1,-2.36 -12.25,-0.25 -12.67,-1.18 -19.32,-5.35 -3.27,-2.05 -1.18,0.96 -1.77,-0.99 -0.08,-0.26 -0.41,-0.17 -0.59,-0.3 -2.05,-10.82 -3.58,-26.88 -3.6,-38.04 -0.01,-8.18 -3.2,-8.85 -6.63,-13.04 -4.83,-5.9 -1.16,-2.82 -9.08,-10.94 -2.23,-2.29 -3.28,-2.97 -5.3,-5.66 -0.84,-1.11 -1.39,-1.71 -2.15,-2.91 -3.34,-5.28 -1.08,-15.4 2.18,-19.68 2.44,-3.21 20.96,-8.96 28.05,-12.27l-1.54 -7.64c-1.62,-0.86 -4.02,-2.16 -6.49,-1.04 -7.46,3.36 5.09,7.13 -16.63,9.04 0.27,-7.54 1.8,-9.25 -1.05,-15.87 -2.09,-4.85 -4.9,-7.4 -3.89,-13.74 6.07,-1.43 7.16,1.14 8.57,-3.19 0.9,-2.74 -1.28,-1.99 4.2,-6.02 -1.35,-4.17 -2.44,-2.46 -0.18,-6.54l-1.75 -11.67 -6.04 -1.74c-26.24,-0.29 -9.34,14.69 -16.98,23.94l-1.46 0.56c-14.24,3.91 -7.75,3.02 -15.45,5.56 -21.29,7.01 -18.44,9 -23.58,24.38 -3.08,9.24 -6.52,12.05 -6.71,17.84 2.78,0.81 4.22,2.21 8.11,2.47 10.32,-12.88 -6.26,-1.45 8.58,-22.32 6.68,-9.38 -0.06,-7.28 16.36,-8.2 -1.35,14.5 1.7,16.84 1.71,22.47 0.03,16.14 -7.53,10.37 -8.22,30.31 -0.27,7.95 -0.86,4.48 -2.99,10.39 -2.59,7.16 -4.43,12.27 -7.54,18.26 -7.29,0.7 -8.89,-4.02 -18.36,-0.28 -6.38,2.51 -9.99,3.83 -17.46,5.07l-3.39 -4.11c-2.12,-2.91 0.1,-1.81 -3.61,-3.88 -6.61,1.38 -6.79,6.61 -11.05,11.43 -3.65,4.13 -6.71,8.18 -6.28,16.74z"/>
   <path fill="#FEFEFF" d="M408.45 392.62c5.22,-2.09 -0.39,-0.37 6.63,-7.97 7.43,-8.06 -2.04,-7.44 -1.72,-35.15 0.56,-47.77 37.97,-84.46 87.71,-85.67 0.2,-5.86 1.31,-9.04 4.96,-11.39l-2.62 -2.44c-10.76,1.62 -18.46,1.13 -28.89,3.93 -50.37,13.56 -82.33,63.02 -72.78,114.82 1.28,6.95 6.57,20 6.71,23.87z"/>
   <path fill="#FEFEFF" d="M536.17 268.7c1.68,5.27 2.78,4.46 7.48,7.06 35.15,19.42 52.34,64.75 37.61,105.07 -7.49,20.48 -17.22,25.86 -22.4,33.83 4.1,-0.01 7.15,-0.73 10.53,1.41 1.8,1.13 0.7,0.42 1.84,1.63 4.13,1.55 12.14,-12.03 14.32,-15.61 13.98,-23.03 18.16,-51.66 10.85,-78.01 -8.24,-29.74 -33,-58.03 -60.59,-66.6l0.36 11.22z"/>
   <path fill="#FEFEFF" d="M426.62 402.81c-0.95,0.96 -2.21,2.21 -3.18,3.12l-3.85 3.57c15.31,26.82 59.5,46.1 97.7,39.35 15.85,-2.8 21.97,-7.86 34.08,-12.21 -1.43,-0.84 1.83,-0.64 -3.09,-1.46 -0.24,0.19 -0.57,0.37 -0.77,0.48 -6.64,3.45 -11.27,3.14 -18.58,-3.45 -39.5,12.31 -74.77,0.63 -98.7,-30.68l-3.61 1.28z"/>
  </g>
 </g>
</svg>
