<?xml version="1.0" encoding="UTF-8"?>
<!DOCTYPE svg PUBLIC "-//W3C//DTD SVG 1.1//EN" "http://www.w3.org/Graphics/SVG/1.1/DTD/svg11.dtd">
<!-- Creator: CorelDRAW X7 -->
<svg xmlns="http://www.w3.org/2000/svg" xml:space="preserve" width="1000px" height="600px" version="1.1" shape-rendering="geometricPrecision" text-rendering="geometricPrecision" image-rendering="optimizeQuality" fill-rule="evenodd" clip-rule="evenodd"
viewBox="0 0 1000 600"
 xmlns:xlink="http://www.w3.org/1999/xlink">
 <g id="Layer_x0020_2">
  <metadata id="CorelCorpID_0Corel-Layer"/>
  <g id="_1991245340768">
   <rect fill="#5EA290" width="1000" height="600" rx="50.37" ry="50"/>
   <rect fill="none" stroke="white" stroke-width="10" x="50" y="50" width="900" height="500" rx="27.2" ry="25"/>
  </g>
 </g>
 <g id="Layer_x0020_1">
  <metadata id="CorelCorpID_1Corel-Layer"/>
  <g id="_1991245337376">
   <rect fill="white" x="480.83" y="250" width="38.33" height="6.27"/>
   <rect fill="white" x="462.68" y="271.39" width="74.64" height="170.61" rx="7.46" ry="8.44"/>
   <rect fill="none" stroke="white" stroke-width="5" x="453.35" y="263.4" width="93.3" height="186.6" rx="13.87" ry="15.24"/>
  </g>
  <path fill="white" fill-rule="nonzero" d="M224.71 130.83l18.59 0c2.83,0 5.45,0.21 7.87,0.63 2.42,0.41 4.53,1.15 6.34,2.21 1.8,1.05 3.22,2.44 4.24,4.16 1.03,1.72 1.55,3.89 1.55,6.5 0,1.22 -0.17,2.45 -0.5,3.67 -0.34,1.22 -0.81,2.36 -1.42,3.42 -0.61,1.05 -1.35,2 -2.21,2.83 -0.86,0.83 -1.85,1.44 -2.96,1.83l0 0.34c1.39,0.33 2.67,0.84 3.84,1.54 1.16,0.69 2.19,1.57 3.08,2.62 0.89,1.06 1.58,2.29 2.08,3.71 0.5,1.42 0.75,3.04 0.75,4.88 0,2.77 -0.54,5.16 -1.62,7.16 -1.09,2 -2.59,3.65 -4.5,4.96 -1.92,1.31 -4.15,2.28 -6.71,2.92 -2.56,0.64 -5.31,0.96 -8.25,0.96l-20.17 0 0 -54.34zm18 21.75c3,0 5.18,-0.58 6.55,-1.75 1.36,-1.16 2.04,-2.72 2.04,-4.66 0,-2.12 -0.7,-3.62 -2.09,-4.5 -1.39,-0.89 -3.52,-1.34 -6.41,-1.34l-5.84 0 0 12.25 5.75 0zm1.17 23.09c6.72,0 10.08,-2.45 10.08,-7.34 0,-2.39 -0.83,-4.1 -2.5,-5.12 -1.66,-1.03 -4.19,-1.54 -7.58,-1.54l-6.92 0 0 14 6.92 0z"/>
  <path id="1" fill="white" fill-rule="nonzero" d="M284.55 186.17c-1.89,0 -3.6,-0.32 -5.13,-0.96 -1.53,-0.64 -2.82,-1.53 -3.87,-2.67 -1.06,-1.14 -1.88,-2.46 -2.46,-3.96 -0.59,-1.5 -0.88,-3.14 -0.88,-4.91 0,-4.34 1.84,-7.73 5.5,-10.17 3.67,-2.45 9.59,-4.08 17.75,-4.92 -0.11,-1.83 -0.65,-3.29 -1.62,-4.37 -0.97,-1.09 -2.6,-1.63 -4.88,-1.63 -1.78,0 -3.54,0.34 -5.29,1 -1.75,0.67 -3.62,1.59 -5.62,2.75l-4.42 -8.08c2.67,-1.61 5.46,-2.92 8.37,-3.92 2.92,-1 6.02,-1.5 9.3,-1.5 5.33,0 9.4,1.52 12.2,4.54 2.81,3.03 4.21,7.74 4.21,14.13l0 23.67 -10 0 -0.83 -4.25 -0.33 0c-1.78,1.55 -3.64,2.81 -5.59,3.79 -1.94,0.97 -4.08,1.46 -6.41,1.46zm4.16 -9.51c1.39,0 2.59,-0.3 3.59,-0.91 1,-0.61 2.05,-1.47 3.16,-2.58l0 -7.25c-4.33,0.61 -7.33,1.5 -9,2.66 -1.66,1.17 -2.5,2.56 -2.5,4.17 0,1.33 0.43,2.32 1.29,2.96 0.87,0.64 2.02,0.95 3.46,0.95z"/>
  <path id="2" fill="white" fill-rule="nonzero" d="M332.46 186.17c-2.55,0 -4.73,-0.39 -6.54,-1.17 -1.81,-0.78 -3.28,-1.86 -4.42,-3.25 -1.14,-1.39 -1.97,-3.07 -2.5,-5.04 -0.52,-1.98 -0.79,-4.16 -0.79,-6.54l0 -16.75 -5.67 0 0 -9.09 6.34 -0.5 1.42 -11 10.16 0 0 11 9.92 0 0 9.59 -9.92 0 0 16.58c0,2.33 0.49,4.01 1.46,5.04 0.97,1.03 2.26,1.54 3.87,1.54 0.67,0 1.35,-0.08 2.05,-0.25 0.69,-0.16 1.32,-0.36 1.87,-0.58l1.92 8.92c-1.11,0.33 -2.42,0.66 -3.92,0.99 -1.5,0.34 -3.25,0.51 -5.25,0.51z"/>
  <path id="3" fill="white" fill-rule="nonzero" d="M362.71 186.17c-2.55,0 -4.74,-0.39 -6.54,-1.17 -1.81,-0.78 -3.28,-1.86 -4.42,-3.25 -1.14,-1.39 -1.97,-3.07 -2.5,-5.04 -0.52,-1.98 -0.79,-4.16 -0.79,-6.54l0 -16.75 -5.67 0 0 -9.09 6.34 -0.5 1.41 -11 10.17 0 0 11 9.92 0 0 9.59 -9.92 0 0 16.58c0,2.33 0.49,4.01 1.46,5.04 0.97,1.03 2.26,1.54 3.87,1.54 0.67,0 1.35,-0.08 2.05,-0.25 0.69,-0.16 1.32,-0.36 1.87,-0.58l1.92 8.92c-1.11,0.33 -2.42,0.66 -3.92,0.99 -1.5,0.34 -3.25,0.51 -5.25,0.51z"/>
  <path id="4" fill="white" fill-rule="nonzero" d="M395.71 186.17c-2.94,0 -5.69,-0.49 -8.25,-1.46 -2.56,-0.98 -4.78,-2.39 -6.67,-4.25 -1.88,-1.86 -3.36,-4.13 -4.41,-6.79 -1.06,-2.67 -1.59,-5.73 -1.59,-9.17 0,-3.33 0.56,-6.35 1.67,-9.04 1.11,-2.7 2.57,-4.97 4.37,-6.84 1.81,-1.86 3.88,-3.29 6.21,-4.29 2.34,-1 4.75,-1.5 7.25,-1.5 2.95,0 5.52,0.5 7.71,1.5 2.2,1 4.03,2.39 5.5,4.17 1.47,1.78 2.57,3.87 3.29,6.29 0.73,2.42 1.09,5.04 1.09,7.88 0,1.11 -0.06,2.16 -0.17,3.16 -0.11,1 -0.22,1.75 -0.33,2.25l-24.75 0c0.55,3 1.79,5.21 3.7,6.63 1.92,1.41 4.27,2.12 7.05,2.12 2.94,0 5.91,-0.91 8.91,-2.75l4.09 7.42c-2.12,1.44 -4.46,2.58 -7.05,3.41 -2.58,0.84 -5.12,1.26 -7.62,1.26zm5.75 -26.17c0,-2.33 -0.53,-4.22 -1.58,-5.67 -1.06,-1.44 -2.84,-2.16 -5.34,-2.16 -1.94,0 -3.65,0.64 -5.12,1.91 -1.47,1.28 -2.43,3.25 -2.88,5.92l14.92 0z"/>
  <path id="5" fill="white" fill-rule="nonzero" d="M420.38 143.83l10 0 0.83 7.25 0.33 0c1.5,-2.83 3.31,-4.91 5.42,-6.25 2.11,-1.33 4.22,-2 6.33,-2 1.17,0 2.13,0.07 2.88,0.21 0.75,0.14 1.43,0.35 2.04,0.63l-2 10.58c-0.78,-0.22 -1.5,-0.39 -2.17,-0.5 -0.66,-0.11 -1.44,-0.17 -2.33,-0.17 -1.56,0 -3.18,0.56 -4.88,1.67 -1.69,1.11 -3.09,3.08 -4.2,5.92l0 24 -12.25 0 0 -41.34z"/>
  <path id="6" fill="white" fill-rule="nonzero" d="M458.71 201.33c-1.28,0 -2.36,-0.07 -3.25,-0.21 -0.89,-0.14 -1.75,-0.34 -2.58,-0.62l2.16 -9.33c0.39,0.11 0.84,0.22 1.33,0.33 0.5,0.11 0.98,0.16 1.42,0.16 2.06,0 3.64,-0.49 4.75,-1.5 1.11,-0.99 1.95,-2.3 2.5,-3.91l0.58 -2.17 -15.91 -40.25 12.33 0 5.92 17.75c0.61,1.89 1.16,3.81 1.66,5.75 0.5,1.95 1.03,3.95 1.59,6l0.33 0c0.45,-1.94 0.9,-3.9 1.38,-5.87 0.47,-1.98 0.95,-3.93 1.45,-5.88l5 -17.75 11.75 0 -14.33 41.75c-1,2.61 -2.04,4.9 -3.12,6.88 -1.09,1.97 -2.34,3.61 -3.75,4.91 -1.42,1.31 -3.03,2.29 -4.84,2.96 -1.8,0.67 -3.93,1 -6.37,1z"/>
  <path id="7" fill="white" fill-rule="nonzero" d="M531.79 186.17c-3.55,0 -7.1,-0.66 -10.62,-1.96 -3.53,-1.31 -6.68,-3.27 -9.46,-5.88l7 -8.41c1.94,1.66 4.09,3.02 6.46,4.08 2.36,1.05 4.68,1.58 6.95,1.58 2.56,0 4.46,-0.47 5.71,-1.41 1.25,-0.95 1.88,-2.23 1.88,-3.84 0,-0.83 -0.18,-1.55 -0.54,-2.16 -0.37,-0.62 -0.89,-1.16 -1.59,-1.63 -0.69,-0.47 -1.53,-0.92 -2.5,-1.33 -0.97,-0.42 -2.04,-0.88 -3.21,-1.38l-7.08 -3c-1.39,-0.55 -2.74,-1.28 -4.04,-2.16 -1.31,-0.89 -2.47,-1.94 -3.5,-3.13 -1.03,-1.19 -1.85,-2.58 -2.46,-4.17 -0.61,-1.58 -0.92,-3.37 -0.92,-5.37 0,-2.22 0.48,-4.32 1.42,-6.29 0.95,-1.97 2.28,-3.7 4,-5.17 1.72,-1.47 3.76,-2.62 6.13,-3.46 2.36,-0.83 4.95,-1.25 7.79,-1.25 3.16,0 6.29,0.61 9.37,1.84 3.08,1.22 5.79,3 8.13,5.33l-6.25 7.75c-1.78,-1.39 -3.56,-2.46 -5.34,-3.21 -1.77,-0.75 -3.75,-1.12 -5.91,-1.12 -2.11,0 -3.79,0.43 -5.04,1.29 -1.26,0.86 -1.88,2.07 -1.88,3.62 0,0.84 0.21,1.54 0.62,2.13 0.42,0.58 1.01,1.11 1.76,1.58 0.75,0.47 1.62,0.92 2.62,1.33 1,0.42 2.08,0.88 3.25,1.38l7 2.83c3.33,1.34 5.96,3.17 7.87,5.5 1.92,2.34 2.88,5.42 2.88,9.25 0,2.28 -0.46,4.43 -1.37,6.46 -0.92,2.03 -2.26,3.81 -4.01,5.33 -1.74,1.53 -3.9,2.75 -6.45,3.67 -2.56,0.92 -5.45,1.38 -8.67,1.38z"/>
  <path id="8" fill="white" fill-rule="nonzero" d="M579.04 186.17c-2.95,0 -5.69,-0.49 -8.25,-1.46 -2.56,-0.98 -4.78,-2.39 -6.67,-4.25 -1.89,-1.86 -3.36,-4.13 -4.41,-6.79 -1.06,-2.67 -1.59,-5.73 -1.59,-9.17 0,-3.33 0.56,-6.35 1.67,-9.04 1.11,-2.7 2.57,-4.97 4.37,-6.84 1.81,-1.86 3.88,-3.29 6.21,-4.29 2.34,-1 4.75,-1.5 7.25,-1.5 2.95,0 5.52,0.5 7.71,1.5 2.2,1 4.03,2.39 5.5,4.17 1.47,1.78 2.57,3.87 3.29,6.29 0.72,2.42 1.09,5.04 1.09,7.88 0,1.11 -0.06,2.16 -0.17,3.16 -0.11,1 -0.22,1.75 -0.33,2.25l-24.75 0c0.55,3 1.79,5.21 3.7,6.63 1.92,1.41 4.27,2.12 7.05,2.12 2.94,0 5.91,-0.91 8.91,-2.75l4.09 7.42c-2.12,1.44 -4.46,2.58 -7.05,3.41 -2.58,0.84 -5.12,1.26 -7.62,1.26zm5.75 -26.17c0,-2.33 -0.53,-4.22 -1.58,-5.67 -1.06,-1.44 -2.84,-2.16 -5.34,-2.16 -1.94,0 -3.65,0.64 -5.12,1.91 -1.47,1.28 -2.43,3.25 -2.88,5.92l14.92 0z"/>
  <path id="9" fill="white" fill-rule="nonzero" d="M603.71 143.83l9.99 0 0.84 7.25 0.33 0c1.5,-2.83 3.31,-4.91 5.42,-6.25 2.11,-1.33 4.22,-2 6.33,-2 1.17,0 2.13,0.07 2.88,0.21 0.75,0.14 1.43,0.35 2.04,0.63l-2 10.58c-0.78,-0.22 -1.5,-0.39 -2.17,-0.5 -0.66,-0.11 -1.44,-0.17 -2.33,-0.17 -1.56,0 -3.18,0.56 -4.88,1.67 -1.69,1.11 -3.09,3.08 -4.21,5.92l0 24 -12.24 0 0 -41.34z"/>
  <path id="10" fill="white" fill-rule="nonzero" d="M633.04 143.83l12.33 0 5.33 19.5c0.56,2.06 1.1,4.16 1.63,6.29 0.53,2.14 1.07,4.3 1.62,6.46l0.34 0c0.5,-2.16 1.01,-4.32 1.54,-6.46 0.53,-2.13 1.07,-4.23 1.62,-6.29l5.42 -19.5 11.75 0 -13.5 41.34 -14.17 0 -13.91 -41.34z"/>
  <path id="11" fill="white" fill-rule="nonzero" d="M681.04 143.83l12.25 0 0 41.34 -12.25 0 0 -41.34zm6.08 -6.08c-2.06,0 -3.75,-0.6 -5.08,-1.79 -1.34,-1.2 -2,-2.74 -2,-4.63 0,-1.89 0.66,-3.41 2,-4.58 1.33,-1.17 3.02,-1.75 5.08,-1.75 2.11,0 3.82,0.58 5.13,1.75 1.3,1.17 1.95,2.69 1.95,4.58 0,1.89 -0.65,3.43 -1.95,4.63 -1.31,1.19 -3.02,1.79 -5.13,1.79z"/>
  <path id="12" fill="white" fill-rule="nonzero" d="M722.04 186.17c-2.89,0 -5.57,-0.49 -8.05,-1.46 -2.47,-0.98 -4.62,-2.38 -6.45,-4.21 -1.84,-1.83 -3.28,-4.1 -4.34,-6.79 -1.05,-2.7 -1.58,-5.77 -1.58,-9.21 0,-3.45 0.58,-6.51 1.75,-9.21 1.17,-2.69 2.74,-4.96 4.71,-6.79 1.97,-1.83 4.26,-3.24 6.87,-4.21 2.61,-0.97 5.34,-1.46 8.17,-1.46 2.56,0 4.82,0.42 6.79,1.25 1.97,0.84 3.74,1.89 5.29,3.17l-5.75 7.92c-1.94,-1.61 -3.8,-2.42 -5.58,-2.42 -3,0 -5.36,1.05 -7.08,3.17 -1.73,2.11 -2.59,4.97 -2.59,8.58 0,3.61 0.88,6.47 2.63,8.58 1.75,2.11 3.96,3.17 6.62,3.17 1.34,0 2.63,-0.29 3.88,-0.88 1.25,-0.58 2.43,-1.29 3.54,-2.12l4.83 8c-2.05,1.78 -4.27,3.04 -6.66,3.79 -2.39,0.75 -4.73,1.13 -7,1.13z"/>
  <path id="13" fill="white" fill-rule="nonzero" d="M759.12 186.17c-2.95,0 -5.7,-0.49 -8.25,-1.46 -2.56,-0.98 -4.78,-2.39 -6.67,-4.25 -1.89,-1.86 -3.36,-4.13 -4.41,-6.79 -1.06,-2.67 -1.59,-5.73 -1.59,-9.17 0,-3.33 0.56,-6.35 1.67,-9.04 1.11,-2.7 2.57,-4.97 4.37,-6.84 1.81,-1.86 3.88,-3.29 6.21,-4.29 2.34,-1 4.75,-1.5 7.25,-1.5 2.95,0 5.52,0.5 7.71,1.5 2.19,1 4.03,2.39 5.5,4.17 1.47,1.78 2.57,3.87 3.29,6.29 0.72,2.42 1.08,5.04 1.08,7.88 0,1.11 -0.05,2.16 -0.16,3.16 -0.11,1 -0.22,1.75 -0.34,2.25l-24.74 0c0.55,3 1.79,5.21 3.7,6.63 1.92,1.41 4.27,2.12 7.05,2.12 2.94,0 5.91,-0.91 8.91,-2.75l4.09 7.42c-2.12,1.44 -4.46,2.58 -7.05,3.41 -2.58,0.84 -5.12,1.26 -7.62,1.26zm5.75 -26.17c0,-2.33 -0.53,-4.22 -1.58,-5.67 -1.06,-1.44 -2.84,-2.16 -5.34,-2.16 -1.94,0 -3.65,0.64 -5.12,1.91 -1.47,1.28 -2.43,3.25 -2.88,5.92l14.92 0z"/>
 </g>
</svg>
