<?xml version="1.0" encoding="UTF-8"?>
<!DOCTYPE svg PUBLIC "-//W3C//DTD SVG 1.1//EN" "http://www.w3.org/Graphics/SVG/1.1/DTD/svg11.dtd">
<!-- Creator: CorelDRAW X7 -->
<svg xmlns="http://www.w3.org/2000/svg" xml:space="preserve" width="1000px" height="600px" version="1.1" shape-rendering="geometricPrecision" text-rendering="geometricPrecision" image-rendering="optimizeQuality" fill-rule="evenodd" clip-rule="evenodd"
viewBox="0 0 1000 600"
 xmlns:xlink="http://www.w3.org/1999/xlink">
 <g id="Layer_x0020_2">
  <metadata id="CorelCorpID_0Corel-Layer"/>
  <g id="_1992657735120">
   <rect fill="#5EA290" width="1000" height="600" rx="50.37" ry="50"/>
   <rect fill="none" stroke="white" stroke-width="10" x="50" y="50" width="900" height="500" rx="27.2" ry="25"/>
  </g>
 </g>
 <g id="Layer_x0020_1">
  <metadata id="CorelCorpID_1Corel-Layer"/>
  <path fill="white" fill-rule="nonzero" d="M136.74 167.33c-3.44,0 -6.69,-0.59 -9.75,-1.79 -3.05,-1.19 -5.73,-2.96 -8.04,-5.29 -2.3,-2.33 -4.12,-5.24 -5.46,-8.71 -1.33,-3.47 -2,-7.49 -2,-12.04 0,-4.5 0.7,-8.51 2.09,-12.04 1.39,-3.53 3.25,-6.52 5.58,-8.96 2.33,-2.44 5.06,-4.31 8.17,-5.58 3.11,-1.28 6.39,-1.92 9.83,-1.92 3.5,0 6.64,0.71 9.42,2.12 2.78,1.42 5.08,3.07 6.91,4.96l-6.5 7.84c-1.38,-1.28 -2.84,-2.32 -4.37,-3.13 -1.53,-0.8 -3.27,-1.21 -5.21,-1.21 -1.83,0 -3.57,0.41 -5.21,1.21 -1.64,0.81 -3.05,1.96 -4.25,3.46 -1.19,1.5 -2.14,3.33 -2.83,5.5 -0.7,2.17 -1.04,4.61 -1.04,7.33 0,5.61 1.19,9.96 3.58,13.04 2.39,3.09 5.58,4.63 9.58,4.63 2.23,0 4.21,-0.49 5.96,-1.46 1.75,-0.97 3.29,-2.18 4.63,-3.62l6.5 7.66c-4.56,5.34 -10.42,8 -17.59,8z"/>
  <path id="1" fill="white" fill-rule="nonzero" d="M185.58 143.83l-1.25 -5c-0.78,-2.72 -1.53,-5.61 -2.25,-8.66 -0.73,-3.06 -1.45,-6 -2.17,-8.84l-0.33 0c-0.67,2.89 -1.35,5.85 -2.04,8.88 -0.7,3.03 -1.44,5.9 -2.21,8.62l-1.34 5 11.59 0zm2.5 9.59l-16.59 0 -3.33 12.91 -12.5 0 17 -54.33 14.75 0 17 54.33 -13 0 -3.33 -12.91z"/>
  <path id="2" fill="white" fill-rule="nonzero" d="M210.33 112l18.66 0c3,0 5.81,0.29 8.42,0.87 2.61,0.59 4.89,1.56 6.83,2.92 1.95,1.36 3.49,3.17 4.63,5.42 1.14,2.25 1.71,5.01 1.71,8.29 0,3.17 -0.57,5.92 -1.71,8.25 -1.14,2.33 -2.68,4.25 -4.63,5.75 -1.94,1.5 -4.19,2.61 -6.75,3.33 -2.55,0.73 -5.27,1.09 -8.16,1.09l-6.75 0 0 18.41 -12.25 0 0 -54.33zm18.25 26.17c6.66,0 10,-2.89 10,-8.67 0,-2.83 -0.89,-4.83 -2.67,-6 -1.78,-1.17 -4.33,-1.75 -7.67,-1.75l-5.66 0 0 16.42 6 0z"/>
  <path id="3" fill="white" fill-rule="nonzero" d="M275.74 167.33c-3.55,0 -7.09,-0.65 -10.62,-1.96 -3.53,-1.3 -6.68,-3.26 -9.46,-5.87l7 -8.42c1.94,1.67 4.1,3.03 6.46,4.09 2.36,1.05 4.68,1.58 6.96,1.58 2.55,0 4.45,-0.47 5.7,-1.42 1.25,-0.94 1.88,-2.22 1.88,-3.83 0,-0.83 -0.18,-1.56 -0.54,-2.17 -0.36,-0.61 -0.89,-1.15 -1.59,-1.62 -0.69,-0.47 -1.52,-0.92 -2.5,-1.34 -0.97,-0.41 -2.04,-0.87 -3.2,-1.37l-7.09 -3c-1.39,-0.56 -2.73,-1.28 -4.04,-2.17 -1.3,-0.89 -2.47,-1.93 -3.5,-3.12 -1.03,-1.2 -1.85,-2.59 -2.46,-4.17 -0.61,-1.58 -0.91,-3.37 -0.91,-5.37 0,-2.23 0.47,-4.32 1.41,-6.3 0.95,-1.97 2.28,-3.69 4,-5.16 1.73,-1.47 3.77,-2.63 6.13,-3.46 2.36,-0.83 4.96,-1.25 7.79,-1.25 3.17,0 6.29,0.61 9.37,1.83 3.09,1.22 5.8,3 8.13,5.34l-6.25 7.75c-1.78,-1.39 -3.56,-2.46 -5.33,-3.21 -1.78,-0.75 -3.75,-1.13 -5.92,-1.13 -2.11,0 -3.79,0.43 -5.04,1.29 -1.25,0.87 -1.88,2.07 -1.88,3.63 0,0.83 0.21,1.54 0.63,2.12 0.41,0.59 1,1.12 1.75,1.59 0.75,0.47 1.62,0.91 2.62,1.33 1,0.42 2.09,0.88 3.25,1.38l7 2.83c3.34,1.33 5.96,3.17 7.88,5.5 1.91,2.33 2.87,5.42 2.87,9.25 0,2.28 -0.46,4.43 -1.37,6.46 -0.92,2.02 -2.25,3.8 -4,5.33 -1.75,1.53 -3.9,2.75 -6.46,3.67 -2.56,0.91 -5.45,1.37 -8.67,1.37z"/>
  <polygon id="4" fill="white" fill-rule="nonzero" points="305.49,112 339.49,112 339.49,122.33 317.74,122.33 317.74,133.25 336.24,133.25 336.24,143.5 317.74,143.5 317.74,156 340.33,156 340.33,166.33 305.49,166.33 "/>
  <path id="5" fill="white" fill-rule="nonzero" d="M351.16 112l12.58 0 14.17 27 5.33 12 0.34 0c-0.28,-2.89 -0.6,-6.11 -0.96,-9.67 -0.36,-3.55 -0.54,-6.94 -0.54,-10.16l0 -19.17 11.66 0 0 54.33 -12.58 0 -14.17 -27.08 -5.33 -11.83 -0.33 0c0.27,3 0.59,6.22 0.95,9.66 0.37,3.45 0.55,6.78 0.55,10l0 19.25 -11.67 0 0 -54.33z"/>
  <path id="6" fill="white" fill-rule="nonzero" d="M423.16 167.33c-3.56,0 -7.1,-0.65 -10.63,-1.96 -3.52,-1.3 -6.68,-3.26 -9.45,-5.87l7 -8.42c1.94,1.67 4.09,3.03 6.45,4.09 2.36,1.05 4.68,1.58 6.96,1.58 2.56,0 4.46,-0.47 5.71,-1.42 1.25,-0.94 1.88,-2.22 1.88,-3.83 0,-0.83 -0.19,-1.56 -0.55,-2.17 -0.36,-0.61 -0.88,-1.15 -1.58,-1.62 -0.69,-0.47 -1.53,-0.92 -2.5,-1.34 -0.97,-0.41 -2.04,-0.87 -3.21,-1.37l-7.08 -3c-1.39,-0.56 -2.74,-1.28 -4.04,-2.17 -1.31,-0.89 -2.47,-1.93 -3.5,-3.12 -1.03,-1.2 -1.85,-2.59 -2.46,-4.17 -0.61,-1.58 -0.92,-3.37 -0.92,-5.37 0,-2.23 0.47,-4.32 1.42,-6.3 0.94,-1.97 2.28,-3.69 4,-5.16 1.72,-1.47 3.76,-2.63 6.12,-3.46 2.37,-0.83 4.96,-1.25 7.8,-1.25 3.16,0 6.29,0.61 9.37,1.83 3.08,1.22 5.79,3 8.13,5.34l-6.25 7.75c-1.78,-1.39 -3.56,-2.46 -5.34,-3.21 -1.78,-0.75 -3.75,-1.13 -5.91,-1.13 -2.12,0 -3.8,0.43 -5.05,1.29 -1.25,0.87 -1.87,2.07 -1.87,3.63 0,0.83 0.21,1.54 0.62,2.12 0.42,0.59 1,1.12 1.75,1.59 0.75,0.47 1.63,0.91 2.63,1.33 1,0.42 2.08,0.88 3.25,1.38l7 2.83c3.33,1.33 5.96,3.17 7.87,5.5 1.92,2.33 2.88,5.42 2.88,9.25 0,2.28 -0.46,4.43 -1.38,6.46 -0.91,2.02 -2.25,3.8 -4,5.33 -1.75,1.53 -3.9,2.75 -6.45,3.67 -2.56,0.91 -5.45,1.37 -8.67,1.37z"/>
  <polygon id="7" fill="white" fill-rule="nonzero" points="452.91,112 486.91,112 486.91,122.33 465.16,122.33 465.16,133.25 483.66,133.25 483.66,143.5 465.16,143.5 465.16,156 487.74,156 487.74,166.33 452.91,166.33 "/>
  <path id="8" fill="white" fill-rule="nonzero" d="M499.74 117.25l-7.25 0 0 -7.25 22.42 0 0 7.25 -7.25 0 0 18.92 -7.92 0 0 -18.92zm18.75 -7.25l9 0 3.25 8.25 1.83 5.5 0.34 0 1.91 -5.5 3.17 -8.25 9.09 0 0 26.17 -7.34 0 0 -8 0.92 -9.59 -0.33 0 -4.76 13.75 -5.66 0 -4.67 -13.75 -0.33 0 0.91 9.59 0 8 -7.33 0 0 -26.17z"/>
  <path id="9" fill="white" fill-rule="nonzero" d="M572.08 112l18.58 0c2.83,0 5.46,0.21 7.87,0.62 2.42,0.42 4.53,1.16 6.34,2.21 1.8,1.06 3.22,2.45 4.25,4.17 1.02,1.72 1.54,3.89 1.54,6.5 0,1.22 -0.17,2.44 -0.5,3.67 -0.34,1.22 -0.81,2.36 -1.42,3.41 -0.61,1.06 -1.35,2 -2.21,2.84 -0.86,0.83 -1.84,1.44 -2.95,1.83l0 0.33c1.38,0.34 2.66,0.85 3.83,1.54 1.17,0.7 2.19,1.57 3.08,2.63 0.89,1.05 1.58,2.29 2.08,3.71 0.51,1.41 0.75,3.04 0.75,4.87 0,2.78 -0.54,5.17 -1.62,7.17 -1.08,2 -2.58,3.65 -4.5,4.96 -1.92,1.3 -4.15,2.28 -6.71,2.91 -2.55,0.64 -5.3,0.96 -8.25,0.96l-20.16 0 0 -54.33zm18 21.75c3,0 5.18,-0.58 6.54,-1.75 1.36,-1.17 2.04,-2.72 2.04,-4.67 0,-2.11 -0.7,-3.61 -2.08,-4.5 -1.39,-0.89 -3.53,-1.33 -6.42,-1.33l-5.84 0 0 12.25 5.76 0zm1.16 23.08c6.72,0 10.09,-2.44 10.09,-7.33 0,-2.39 -0.84,-4.1 -2.5,-5.13 -1.67,-1.02 -4.2,-1.54 -7.59,-1.54l-6.92 0 0 14 6.92 0z"/>
  <path id="10" fill="white" fill-rule="nonzero" d="M633.91 167.33c-4.5,0 -7.77,-1.47 -9.79,-4.41 -2.03,-2.95 -3.05,-7.03 -3.05,-12.25l0 -25.67 12.26 0 0 24.08c0,3 0.41,5.06 1.24,6.17 0.84,1.11 2.14,1.67 3.92,1.67 1.56,0 2.86,-0.36 3.92,-1.09 1.05,-0.72 2.19,-1.89 3.41,-3.5l0 -27.33 12.26 0 0 41.33 -10.01 0 -0.91 -5.75 -0.25 0c-1.78,2.11 -3.68,3.77 -5.71,4.96 -2.03,1.2 -4.46,1.79 -7.29,1.79z"/>
  <path id="11" fill="white" fill-rule="nonzero" d="M684.74 167.33c-2.55,0 -4.74,-0.39 -6.54,-1.16 -1.81,-0.78 -3.28,-1.87 -4.42,-3.25 -1.14,-1.39 -1.97,-3.07 -2.5,-5.05 -0.52,-1.97 -0.79,-4.15 -0.79,-6.54l0 -16.75 -5.67 0 0 -9.08 6.34 -0.5 1.41 -11 10.17 0 0 11 9.92 0 0 9.58 -9.92 0 0 16.59c0,2.33 0.49,4.01 1.46,5.04 0.97,1.03 2.26,1.54 3.87,1.54 0.67,0 1.35,-0.08 2.05,-0.25 0.69,-0.17 1.32,-0.36 1.87,-0.58l1.92 8.91c-1.11,0.34 -2.42,0.67 -3.92,1 -1.5,0.34 -3.25,0.5 -5.25,0.5z"/>
  <path id="12" fill="white" fill-rule="nonzero" d="M714.99 167.33c-2.56,0 -4.74,-0.39 -6.54,-1.16 -1.81,-0.78 -3.28,-1.87 -4.42,-3.25 -1.14,-1.39 -1.97,-3.07 -2.5,-5.05 -0.53,-1.97 -0.79,-4.15 -0.79,-6.54l0 -16.75 -5.67 0 0 -9.08 6.34 -0.5 1.41 -11 10.17 0 0 11 9.92 0 0 9.58 -9.92 0 0 16.59c0,2.33 0.49,4.01 1.46,5.04 0.97,1.03 2.26,1.54 3.87,1.54 0.67,0 1.35,-0.08 2.05,-0.25 0.69,-0.17 1.31,-0.36 1.87,-0.58l1.92 8.91c-1.11,0.34 -2.42,0.67 -3.92,1 -1.5,0.34 -3.25,0.5 -5.25,0.5z"/>
  <path id="13" fill="white" fill-rule="nonzero" d="M747.24 167.33c-2.61,0 -5.14,-0.48 -7.58,-1.46 -2.45,-0.97 -4.6,-2.37 -6.46,-4.2 -1.86,-1.84 -3.35,-4.1 -4.46,-6.8 -1.11,-2.69 -1.67,-5.76 -1.67,-9.2 0,-3.45 0.56,-6.52 1.67,-9.21 1.11,-2.7 2.6,-4.96 4.46,-6.79 1.86,-1.84 4.01,-3.24 6.46,-4.21 2.44,-0.97 4.97,-1.46 7.58,-1.46 2.61,0 5.13,0.49 7.54,1.46 2.42,0.97 4.56,2.37 6.42,4.21 1.86,1.83 3.35,4.09 4.46,6.79 1.11,2.69 1.66,5.76 1.66,9.21 0,3.44 -0.55,6.51 -1.66,9.2 -1.11,2.7 -2.6,4.96 -4.46,6.8 -1.86,1.83 -4,3.23 -6.42,4.2 -2.41,0.98 -4.93,1.46 -7.54,1.46zm0 -9.91c2.5,0 4.39,-1.06 5.67,-3.17 1.28,-2.11 1.91,-4.97 1.91,-8.58 0,-3.62 -0.63,-6.48 -1.91,-8.59 -1.28,-2.11 -3.17,-3.16 -5.67,-3.16 -2.55,0 -4.46,1.05 -5.71,3.16 -1.25,2.11 -1.87,4.97 -1.87,8.59 0,3.61 0.62,6.47 1.87,8.58 1.25,2.11 3.16,3.17 5.71,3.17z"/>
  <path id="14" fill="white" fill-rule="nonzero" d="M775.74 125l10 0 0.83 5.25 0.34 0c1.78,-1.67 3.72,-3.13 5.83,-4.38 2.11,-1.25 4.58,-1.87 7.42,-1.87 4.5,0 7.76,1.47 9.79,4.42 2.03,2.94 3.04,7.02 3.04,12.25l0 25.66 -12.25 0 0 -24.08c0,-3 -0.4,-5.06 -1.21,-6.17 -0.8,-1.11 -2.1,-1.66 -3.87,-1.66 -1.56,0 -2.89,0.34 -4,1.04 -1.11,0.69 -2.34,1.68 -3.67,2.96l0 27.91 -12.25 0 0 -41.33z"/>
  <path id="15" fill="white" fill-rule="nonzero" d="M848.32 151.08c0,2.06 0.74,3.72 2.21,5 1.47,1.28 3.43,1.92 5.88,1.92 2.22,0 4.52,-0.72 6.91,-2.17 -2.11,-1.72 -4.12,-3.53 -6.04,-5.41 -1.92,-1.89 -3.68,-3.84 -5.29,-5.84 -1.11,0.95 -2,1.95 -2.67,3 -0.66,1.06 -1,2.23 -1,3.5zm5.09 -25.91c0,1 0.15,2.05 0.45,3.16 0.31,1.11 0.74,2.22 1.3,3.34 1.94,-1.17 3.58,-2.39 4.91,-3.67 1.34,-1.28 2,-2.83 2,-4.67 0,-1.27 -0.3,-2.3 -0.91,-3.08 -0.62,-0.78 -1.56,-1.17 -2.84,-1.17 -1.39,0 -2.55,0.54 -3.5,1.63 -0.94,1.08 -1.41,2.57 -1.41,4.46zm32.41 42.16c-2.28,-0.44 -4.58,-1.14 -6.91,-2.08 -2.34,-0.95 -4.67,-2.08 -7,-3.42 -2.34,1.72 -4.91,3.07 -7.71,4.04 -2.81,0.98 -5.93,1.46 -9.38,1.46 -2.94,0 -5.54,-0.41 -7.79,-1.25 -2.25,-0.83 -4.14,-1.96 -5.67,-3.37 -1.52,-1.42 -2.68,-3.06 -3.45,-4.92 -0.78,-1.86 -1.17,-3.85 -1.17,-5.96 0,-1.89 0.26,-3.59 0.79,-5.12 0.53,-1.53 1.25,-2.9 2.17,-4.13 0.91,-1.22 1.97,-2.33 3.16,-3.33 1.2,-1 2.46,-1.92 3.8,-2.75 -1.06,-1.95 -1.88,-3.88 -2.46,-5.79 -0.59,-1.92 -0.88,-3.74 -0.88,-5.46 0,-1.95 0.35,-3.78 1.04,-5.5 0.7,-1.72 1.69,-3.24 2.96,-4.54 1.28,-1.31 2.82,-2.34 4.63,-3.09 1.8,-0.75 3.84,-1.12 6.12,-1.12 4.11,0 7.36,1.11 9.75,3.33 2.39,2.22 3.59,5.22 3.59,9 0,1.78 -0.32,3.41 -0.96,4.88 -0.64,1.47 -1.5,2.83 -2.59,4.08 -1.08,1.25 -2.3,2.4 -3.66,3.46 -1.36,1.05 -2.74,2.06 -4.13,3 1.56,1.78 3.27,3.51 5.13,5.21 1.86,1.69 3.79,3.26 5.79,4.71 1.39,-1.78 2.61,-3.75 3.67,-5.92 1.05,-2.17 1.91,-4.53 2.58,-7.08l11.17 0c-1,3.33 -2.24,6.51 -3.71,9.54 -1.47,3.03 -3.27,5.96 -5.38,8.79 1.73,0.89 3.38,1.62 4.96,2.21 1.58,0.58 3.07,0.98 4.46,1.21l-2.92 9.91z"/>
  <path id="16" fill="white" fill-rule="nonzero" d="M324.53 190.56l18.67 0c3,0 5.81,0.29 8.42,0.88 2.61,0.58 4.89,1.55 6.83,2.91 1.94,1.36 3.49,3.17 4.62,5.42 1.14,2.25 1.71,5.01 1.71,8.29 0,3.17 -0.57,5.92 -1.71,8.25 -1.13,2.33 -2.68,4.25 -4.62,5.75 -1.94,1.5 -4.19,2.61 -6.75,3.33 -2.56,0.73 -5.28,1.09 -8.17,1.09l-6.75 0 0 18.41 -12.25 0 0 -54.33zm18.25 26.17c6.67,0 10,-2.89 10,-8.67 0,-2.83 -0.89,-4.83 -2.66,-6 -1.78,-1.16 -4.34,-1.75 -7.67,-1.75l-5.67 0 0 16.42 6 0z"/>
  <path id="17" fill="white" fill-rule="nonzero" d="M373.2 203.56l10 0 0.83 7.25 0.34 0c1.5,-2.83 3.3,-4.92 5.41,-6.25 2.11,-1.33 4.23,-2 6.34,-2 1.16,0 2.12,0.07 2.87,0.21 0.75,0.14 1.43,0.35 2.04,0.63l-2 10.58c-0.77,-0.22 -1.5,-0.39 -2.16,-0.5 -0.67,-0.11 -1.45,-0.17 -2.34,-0.17 -1.55,0 -3.18,0.56 -4.87,1.67 -1.7,1.11 -3.1,3.08 -4.21,5.91l0 24 -12.25 0 0 -41.33z"/>
  <path id="18" fill="white" fill-rule="nonzero" d="M423.28 245.9c-2.61,0 -5.14,-0.49 -7.58,-1.46 -2.44,-0.98 -4.6,-2.38 -6.46,-4.21 -1.86,-1.83 -3.35,-4.1 -4.46,-6.79 -1.11,-2.7 -1.66,-5.77 -1.66,-9.21 0,-3.45 0.55,-6.52 1.66,-9.21 1.11,-2.69 2.6,-4.96 4.46,-6.79 1.86,-1.83 4.02,-3.24 6.46,-4.21 2.44,-0.97 4.97,-1.46 7.58,-1.46 2.61,0 5.13,0.49 7.55,1.46 2.41,0.97 4.55,2.38 6.41,4.21 1.86,1.83 3.35,4.1 4.46,6.79 1.11,2.69 1.67,5.76 1.67,9.21 0,3.44 -0.56,6.51 -1.67,9.21 -1.11,2.69 -2.6,4.96 -4.46,6.79 -1.86,1.83 -4,3.23 -6.41,4.21 -2.42,0.97 -4.94,1.46 -7.55,1.46zm0 -9.92c2.5,0 4.39,-1.06 5.67,-3.17 1.28,-2.11 1.92,-4.97 1.92,-8.58 0,-3.61 -0.64,-6.47 -1.92,-8.59 -1.28,-2.11 -3.17,-3.16 -5.67,-3.16 -2.55,0 -4.45,1.05 -5.71,3.16 -1.25,2.12 -1.87,4.98 -1.87,8.59 0,3.61 0.62,6.47 1.87,8.58 1.26,2.11 3.16,3.17 5.71,3.17z"/>
  <path id="19" fill="white" fill-rule="nonzero" d="M458.03 223.4l-11.91 -19.84 13.16 0 3.67 6.67c0.56,1.17 1.12,2.34 1.71,3.54 0.58,1.19 1.18,2.38 1.79,3.54l0.33 0c0.45,-1.16 0.92,-2.35 1.42,-3.54 0.5,-1.2 0.97,-2.37 1.42,-3.54l2.83 -6.67 12.67 0 -12 21.25 12.75 20.08 -13.17 0 -4 -6.83c-0.67,-1.16 -1.32,-2.36 -1.96,-3.58 -0.64,-1.22 -1.29,-2.42 -1.96,-3.58l-0.33 0c-0.5,1.16 -1.03,2.34 -1.58,3.54 -0.56,1.19 -1.09,2.4 -1.59,3.62l-3.25 6.83 -12.66 0 12.66 -21.49z"/>
  <path id="20" fill="white" fill-rule="nonzero" d="M492.45 203.56l12.25 0 0 41.33 -12.25 0 0 -41.33zm6.08 -6.08c-2.05,0 -3.75,-0.6 -5.08,-1.79 -1.33,-1.2 -2,-2.74 -2,-4.63 0,-1.89 0.67,-3.41 2,-4.58 1.33,-1.17 3.03,-1.75 5.08,-1.75 2.11,0 3.82,0.58 5.13,1.75 1.3,1.17 1.96,2.69 1.96,4.58 0,1.89 -0.66,3.43 -1.96,4.63 -1.31,1.19 -3.02,1.79 -5.13,1.79z"/>
  <path id="21" fill="white" fill-rule="nonzero" d="M515.45 203.56l10 0 0.83 5.33 0.33 0c1.73,-1.72 3.56,-3.2 5.51,-4.45 1.94,-1.25 4.27,-1.88 7,-1.88 2.94,0 5.31,0.6 7.12,1.79 1.81,1.2 3.24,2.91 4.29,5.13 1.84,-1.89 3.77,-3.52 5.79,-4.88 2.03,-1.36 4.43,-2.04 7.21,-2.04 4.45,0 7.71,1.49 9.79,4.46 2.09,2.97 3.13,7.04 3.13,12.21l0 25.66 -12.25 0 0 -24.08c0,-3 -0.4,-5.05 -1.21,-6.16 -0.8,-1.12 -2.1,-1.67 -3.87,-1.67 -2.06,0 -4.42,1.33 -7.09,4l0 27.91 -12.25 0 0 -24.08c0,-3 -0.4,-5.05 -1.21,-6.16 -0.8,-1.12 -2.09,-1.67 -3.87,-1.67 -2.11,0 -4.45,1.33 -7,4l0 27.91 -12.25 0 0 -41.33z"/>
  <path id="22" fill="white" fill-rule="nonzero" d="M586.87 203.56l12.25 0 0 41.33 -12.25 0 0 -41.33zm6.08 -6.08c-2.06,0 -3.75,-0.6 -5.08,-1.79 -1.34,-1.2 -2,-2.74 -2,-4.63 0,-1.89 0.66,-3.41 2,-4.58 1.33,-1.17 3.02,-1.75 5.08,-1.75 2.11,0 3.82,0.58 5.12,1.75 1.31,1.17 1.96,2.69 1.96,4.58 0,1.89 -0.65,3.43 -1.96,4.63 -1.3,1.19 -3.01,1.79 -5.12,1.79z"/>
  <path id="23" fill="white" fill-rule="nonzero" d="M625.78 245.9c-2.55,0 -4.73,-0.39 -6.54,-1.17 -1.81,-0.78 -3.28,-1.86 -4.42,-3.25 -1.14,-1.39 -1.97,-3.07 -2.5,-5.04 -0.52,-1.98 -0.79,-4.16 -0.79,-6.55l0 -16.74 -5.67 0 0 -9.09 6.34 -0.5 1.42 -11 10.16 0 0 11 9.92 0 0 9.59 -9.92 0 0 16.58c0,2.33 0.49,4.01 1.46,5.04 0.97,1.03 2.26,1.54 3.87,1.54 0.67,0 1.35,-0.08 2.05,-0.25 0.69,-0.17 1.32,-0.36 1.87,-0.58l1.92 8.92c-1.11,0.33 -2.42,0.66 -3.92,0.99 -1.5,0.34 -3.25,0.51 -5.25,0.51z"/>
  <path id="24" fill="white" fill-rule="nonzero" d="M646.37 261.06c-1.28,0 -2.37,-0.07 -3.25,-0.21 -0.89,-0.14 -1.75,-0.34 -2.59,-0.62l2.17 -9.34c0.39,0.12 0.83,0.23 1.33,0.34 0.5,0.11 0.97,0.16 1.42,0.16 2.05,0 3.64,-0.5 4.75,-1.5 1.11,-0.99 1.94,-2.3 2.5,-3.91l0.58 -2.17 -15.91 -40.25 12.33 0 5.92 17.75c0.61,1.89 1.16,3.81 1.66,5.75 0.5,1.95 1.03,3.95 1.59,6l0.33 0c0.44,-1.94 0.9,-3.9 1.37,-5.87 0.48,-1.98 0.96,-3.93 1.46,-5.88l5 -17.75 11.75 0 -14.33 41.75c-1,2.61 -2.04,4.9 -3.13,6.88 -1.08,1.97 -2.33,3.61 -3.75,4.91 -1.41,1.31 -3.02,2.3 -4.83,2.96 -1.81,0.67 -3.93,1 -6.37,1z"/>
  <g id="_1992657729040">
   <path fill="#FEFEFE" d="M417.33 314.02c-12.39,2.65 -32.7,1.64 -46.67,1.87 -6.71,0.11 -19.49,-1.91 -21.25,3.71 -3.51,11.17 5.83,10.13 13.58,10 17.2,-0.31 130.83,-3.39 143.86,0.63 10.57,3.25 13.94,26.11 -6.04,27l-95.75 -0.47c-0.29,7.73 6.05,5.26 17.41,14.89 6.19,5.25 9.26,16.84 -0.4,20.42 -12.98,4.82 -39.13,-13.11 -50.3,-10.53 2.24,6.13 -0.81,2.44 5.42,6.28 19.79,12.21 41.51,22.08 28.71,39.99 -19.96,2.33 -28.18,-6.96 -44.7,-7.69 1.43,7.26 3.57,5.09 18.04,16.16 3.98,3.04 16.09,10.44 12.31,20.17 -5.31,13.63 -104.25,-10.6 -111.56,-14.3 -14.86,-7.52 -7.27,-40.3 -7.03,-58.55 0.37,-26.8 -7.87,-39.67 10.5,-53.5 26.29,-19.79 62.45,-34.78 96.4,-39.72 23.8,-3.47 46.44,-8.43 37.47,23.64zm-157.98 55.81l-0.88 50.5c0,20.15 6.15,31.57 22.31,36.36 16.25,4.81 31.57,7.49 47.41,10.64 27.1,5.39 87.17,20.9 75.8,-24.04l4.01 -2.61c2,-1.08 3.24,-1.53 4.86,-2.58 11.14,-7.21 13.01,-18.66 8.9,-31.54 11.92,-6.02 25.49,-9.4 17.73,-35.59 19.28,-0.17 66.19,3.16 77.74,-4.51 11.75,-7.82 26.01,-49.86 -24.15,-50.76 -19.95,-0.35 -40.56,-0.84 -61.27,-1.15 4.84,-36.18 -12.13,-41.59 -44.24,-38.99 -37.42,3.02 -78.05,20.47 -107.11,40.82 -27.03,18.93 -21.11,27.58 -21.11,53.45z"/>
   <path fill="#FEFEFE" d="M482.61 311.44c33.44,1.66 29.53,-10.19 51.81,-2.96 45.77,14.84 21.11,87.04 -25.08,69.53 -12.84,-4.86 -11.56,-4.03 -27.29,-3.8 7.21,15.27 34.65,25.83 57.57,17.56 17.62,-6.36 33.55,-22.87 33.81,-48 0.24,-24.09 -15.59,-42.36 -33.18,-48.72 -10.93,-3.95 -22.72,-4.38 -33.72,-0.86 -9.48,3.04 -20.9,10.8 -23.92,17.25z"/>
   <path fill="#FEFEFE" d="M598.23 305.55c2.49,4.25 2.15,3.96 6.58,6.25 14.6,-7.73 26.97,-24.92 64.27,-25.07 40.61,-0.17 54.32,20.03 65.81,24.99 4.28,-1.81 3.99,-0.93 6.32,-6.17 -10.27,-15.96 -46.77,-28.99 -70.57,-29.21 -23.73,-0.22 -62.87,13.58 -72.41,29.21z"/>
   <path fill="#FEFEFE" d="M598.08 447.39c39.53,31.68 82.73,37.13 128.89,10.96l10.7 -7.69c2.19,-1.73 2.14,-1.78 4.33,-3.1 -2.51,-5.39 -1.68,-3.11 -4.52,-6.84 -9.15,0.29 -6.03,2.47 -14.1,7.58 -4.78,3.03 -10.11,5.92 -15.03,8.13 -31.6,14.18 -71.69,9.89 -96.76,-12.32 -4.42,-3.92 -2.58,-3.33 -9.02,-4.49l-4.49 7.77z"/>
   <path fill="#FEFEFE" d="M624.7 419.77c-4.83,3.23 -4.18,2.21 -6.38,7.4 33.73,26.63 69.36,26.64 102.88,-0.13 -2.38,-5.04 -2.69,-4.18 -6.42,-7.76 -6.03,3.17 -9.42,7.87 -18.29,11.71 -22.83,9.89 -45.99,6.99 -65.58,-7.72 -4.46,-3.34 -0.82,-1.72 -6.21,-3.5z"/>
   <path fill="#FEFEFE" d="M618.54 325.45l6.01 6.37c4.78,-2.24 4.67,-3.43 9.22,-6.49 3.23,-2.17 6.31,-3.62 10.19,-5.29 24.07,-10.38 53.39,-5.23 70.32,12.2l6.88 -6.58c-20.91,-28.49 -84.96,-26.47 -102.62,-0.21z"/>
   <path fill="#FEFEFE" d="M663.48 362.18c-21.17,9.68 -3.2,36.83 13.93,26.75 16.83,-9.9 4.89,-35.37 -13.93,-26.75z"/>
   <path fill="#FEFEFE" d="M639.23 343.03c1.9,7.69 1.23,3.43 4.81,8.82 8.08,-3.04 13.52,-8.99 25.03,-9.18 12.96,-0.22 17.67,6.24 26.45,9.11 1.99,-3.15 2.56,-3.12 4.68,-6.44 -4.75,-9.09 -19.34,-12.62 -29.57,-12.79 -15.3,-0.24 -22.43,5.78 -31.4,10.48z"/>
   <path fill="#FEFEFE" d="M638.46 406.21c16.61,17.6 44.38,16.13 62.12,0.35l-6.8 -7.18c-13.34,13.44 -33.65,11.06 -47.85,0.03l-7.47 6.8z"/>
  </g>
 </g>
</svg>
