<?xml version="1.0" encoding="UTF-8"?>
<!DOCTYPE svg PUBLIC "-//W3C//DTD SVG 1.1//EN" "http://www.w3.org/Graphics/SVG/1.1/DTD/svg11.dtd">
<!-- Creator: CorelDRAW X7 -->
<svg xmlns="http://www.w3.org/2000/svg" xml:space="preserve" width="1000px" height="600px" version="1.1" shape-rendering="geometricPrecision" text-rendering="geometricPrecision" image-rendering="optimizeQuality" fill-rule="evenodd" clip-rule="evenodd"
viewBox="0 0 1000 600"
 xmlns:xlink="http://www.w3.org/1999/xlink">
 <g id="Layer_x0020_2">
  <metadata id="CorelCorpID_0Corel-Layer"/>
  <g id="_1991245449088">
   <rect fill="#5EA290" width="1000" height="600" rx="50.37" ry="50"/>
   <rect fill="none" stroke="white" stroke-width="10" x="50" y="50" width="900" height="500" rx="27.2" ry="25"/>
  </g>
 </g>
 <g id="Layer_x0020_1">
  <metadata id="CorelCorpID_1Corel-Layer"/>
  <path fill="white" fill-rule="nonzero" d="M360.88 151l6.33 0c3.22,0 5.68,-0.68 7.37,-2.04 1.7,-1.36 2.55,-3.38 2.55,-6.04 0,-2.67 -0.85,-4.53 -2.55,-5.59 -1.69,-1.05 -4.15,-1.58 -7.37,-1.58l-6.33 0 0 15.25zm17.16 29.33l-10.41 -19.58 -6.75 0 0 19.58 -12.25 0 0 -54.33 19.58 0c2.89,0 5.6,0.28 8.12,0.83 2.53,0.56 4.74,1.49 6.63,2.79 1.89,1.31 3.39,3.05 4.5,5.21 1.11,2.17 1.67,4.86 1.67,8.09 0,4 -0.88,7.29 -2.63,9.87 -1.75,2.58 -4.1,4.52 -7.04,5.79l12.33 21.75 -13.75 0z"/>
  <path id="1" fill="white" fill-rule="nonzero" d="M423.71 181.33c-3.72,0 -7.21,-0.6 -10.46,-1.79 -3.25,-1.19 -6.07,-2.96 -8.46,-5.29 -2.39,-2.33 -4.26,-5.24 -5.62,-8.71 -1.36,-3.47 -2.04,-7.48 -2.04,-12.04 0,-4.5 0.69,-8.51 2.08,-12.04 1.39,-3.53 3.29,-6.52 5.71,-8.96 2.41,-2.45 5.23,-4.31 8.46,-5.58 3.22,-1.28 6.63,-1.92 10.25,-1.92 3.94,0 7.33,0.72 10.16,2.17 2.84,1.44 5.14,3.08 6.92,4.91l-6.42 7.84c-1.39,-1.23 -2.86,-2.25 -4.41,-3.09 -1.56,-0.83 -3.5,-1.25 -5.84,-1.25 -2.11,0 -4.04,0.41 -5.79,1.21 -1.75,0.81 -3.26,1.96 -4.54,3.46 -1.28,1.5 -2.26,3.33 -2.96,5.5 -0.69,2.17 -1.04,4.61 -1.04,7.33 0,5.61 1.26,9.96 3.79,13.04 2.53,3.09 6.35,4.63 11.46,4.63 1.11,0 2.19,-0.14 3.25,-0.42 1.05,-0.28 1.92,-0.69 2.58,-1.25l0 -9.33 -9 0 0 -10 19.84 0 0 25c-1.89,1.83 -4.39,3.39 -7.5,4.67 -3.12,1.27 -6.59,1.91 -10.42,1.91z"/>
  <path id="2" fill="white" fill-rule="nonzero" d="M452.88 126l18.58 0c2.83,0 5.46,0.21 7.87,0.62 2.42,0.42 4.53,1.16 6.34,2.21 1.8,1.06 3.22,2.45 4.25,4.17 1.02,1.72 1.54,3.89 1.54,6.5 0,1.22 -0.17,2.44 -0.5,3.67 -0.34,1.22 -0.81,2.36 -1.42,3.41 -0.61,1.06 -1.35,2 -2.21,2.84 -0.86,0.83 -1.84,1.44 -2.96,1.83l0 0.33c1.39,0.34 2.67,0.85 3.84,1.54 1.16,0.7 2.19,1.57 3.08,2.63 0.89,1.05 1.58,2.29 2.08,3.71 0.5,1.41 0.75,3.04 0.75,4.87 0,2.78 -0.54,5.17 -1.62,7.17 -1.08,2 -2.58,3.65 -4.5,4.96 -1.92,1.3 -4.15,2.28 -6.71,2.91 -2.55,0.64 -5.3,0.96 -8.25,0.96l-20.16 0 0 -54.33zm17.99 21.75c3,0 5.18,-0.58 6.55,-1.75 1.36,-1.17 2.04,-2.72 2.04,-4.67 0,-2.11 -0.7,-3.61 -2.09,-4.5 -1.38,-0.89 -3.52,-1.33 -6.41,-1.33l-5.84 0 0 12.25 5.75 0zm1.17 23.08c6.72,0 10.08,-2.44 10.08,-7.33 0,-2.39 -0.83,-4.1 -2.5,-5.13 -1.66,-1.02 -4.19,-1.54 -7.58,-1.54l-6.92 0 0 14 6.92 0z"/>
  <polygon id="3" fill="white" fill-rule="nonzero" points="519.96,126 532.21,126 532.21,170 553.71,170 553.71,180.33 519.96,180.33 "/>
  <polygon id="4" fill="white" fill-rule="nonzero" points="563.12,126 597.12,126 597.12,136.33 575.37,136.33 575.37,147.25 593.87,147.25 593.87,157.5 575.37,157.5 575.37,170 597.95,170 597.95,180.33 563.12,180.33 "/>
  <path id="5" fill="white" fill-rule="nonzero" d="M608.79 126l15.33 0c4.17,0 7.92,0.53 11.25,1.58 3.34,1.06 6.2,2.68 8.58,4.88 2.39,2.19 4.23,4.98 5.5,8.37 1.28,3.39 1.92,7.42 1.92,12.09 0,4.66 -0.64,8.72 -1.92,12.16 -1.27,3.45 -3.08,6.29 -5.41,8.54 -2.34,2.25 -5.13,3.93 -8.38,5.05 -3.25,1.11 -6.87,1.66 -10.87,1.66l-16 0 0 -54.33zm14.58 44.42c2.33,0 4.45,-0.31 6.34,-0.92 1.88,-0.61 3.49,-1.6 4.83,-2.96 1.33,-1.36 2.37,-3.15 3.12,-5.37 0.75,-2.23 1.13,-4.98 1.13,-8.25 0,-3.23 -0.38,-5.93 -1.13,-8.13 -0.75,-2.19 -1.79,-3.94 -3.12,-5.25 -1.34,-1.3 -2.95,-2.23 -4.83,-2.79 -1.89,-0.56 -4.01,-0.83 -6.34,-0.83l-2.33 0 0 34.5 2.33 0z"/>
  <g id="_1991245444512">
   <path fill="#8CBB24" d="M429.71 279.12l21.32 22.23c13.3,-7.87 13.15,-12.43 31.66,-17.6l-7.82 -30.23c-10.46,1.53 -41.79,17.07 -45.16,25.6z"/>
   <path fill="#0595BA" d="M401.78 370.37l1.04 3.67c4.78,2.94 27.37,-4.45 30.64,-8.13 -3.5,-14.04 -0.7,-21.1 0.27,-34.17l-30.36 -7.59c-5.62,15.52 -2.99,30.59 -1.59,46.22z"/>
   <path fill="#2971AE" d="M402.82 374.04l-1.04 -3.67 1.04 3.67c1.49,16.51 16.36,35.17 26.56,47.35l21.5 -22.36c-2.84,-4.87 -6.96,-7.89 -10.35,-14.69 -3.05,-6.1 -5.07,-12.77 -7.07,-18.43 -3.27,3.68 -25.86,11.07 -30.64,8.13z"/>
   <path fill="#F18E1D" d="M560.71 271.26l1.31 0.79 1.44 1.38 1.04 0.95 1.05 0.96 1.14 0.95 1.28 0.79 1.09 0.84 0.67 1.09 -20.4 21.17c5.96,12.15 12.19,13.08 17.7,31.59l29.76 -7.25c-2.4,-12.32 -16.22,-39.79 -27.06,-45.51l-0.67 -1.09 -1.09 -0.84 -1.28 -0.79 -1.14 -0.95 -1.05 -0.96 -1.04 -0.95 -1.44 -1.38 -1.31 -0.79 -1.4 -1.43 1.4 1.43z"/>
   <path fill="#6B388A" d="M482.75 417.29l-8.57 28.72 2.11 1.24c17.05,2.48 32.68,5.09 49.58,-0.94l-7.44 -29.02 2.55 -1.51 -2.55 1.51 -35.68 0z"/>
   <path fill="#008F5A" d="M403.37 324.15l30.36 7.59c2.39,-4.36 4.26,-10.89 7.03,-16.16 3.34,-6.35 7.05,-9.01 10.27,-14.23l-21.32 -22.23c-12.42,10.17 -21.79,29.56 -26.34,45.03z"/>
   <path fill="#454E98" d="M429.38 421.39c12.84,9.04 27.59,23.91 44.8,24.62l2.11 1.24 -2.11 -1.24 8.57 -28.72c-3.32,-1.93 -11.93,-4.26 -17.55,-7.41 -6.7,-3.75 -9.02,-7.1 -14.32,-10.85l-21.5 22.36z"/>
   <path fill="#C5037D" d="M520.98 415.78l-2.55 1.51 7.44 29.02c16.83,-1.76 33.69,-15.73 45.58,-26.28l1.05 -0.81 1.01 -0.97 0.96 -1.05 0.85 -1.14 0.79 -1.2 0.95 -1 -0.95 1 -0.79 1.2 -0.85 1.14 -0.96 1.05 -1.01 0.97 -1.05 0.81 -21.37 -21.07c-8.69,6.47 -16.91,15.24 -29.1,16.82z"/>
   <path fill="#FDC509" d="M516.77 282.86c5.51,2.68 11.42,3.93 17.92,7.33 4.05,2.12 12.69,9.39 14.64,9.99 6.8,-7.06 13.6,-14.11 20.4,-21.17 -3.47,-3.06 -6.94,-6.12 -10.42,-9.18 -5.99,-5.28 -25.55,-14.4 -33.43,-16.58l-9.11 29.61z"/>
   <path fill="#F3E500" d="M474.87 253.52l7.82 30.23c14.83,-3.84 20.46,-1.13 34.08,-0.89l9.11 -29.61c-12.04,-3.06 -40.09,-5.56 -51.01,0.27z"/>
   <path fill="#E96220" d="M567.03 331.77c2.97,13.16 3.24,23.02 0.25,36.26l29.4 7.63c4.61,-12.89 4.39,-38.08 0.11,-51.14l-29.76 7.25z"/>
   <path fill="#E22221" d="M550.08 398.96l21.37 21.07 1.05 -0.81 1.01 -0.97 0.96 -1.05 0.85 -1.14 0.79 -1.2 0.95 -1c8.92,-11.35 16.57,-24.17 19.62,-38.2l-29.4 -7.63c-4.64,16.62 -8.51,18.43 -17.2,30.93z"/>
  </g>
 </g>
</svg>
