<?xml version="1.0" encoding="UTF-8"?>
<!DOCTYPE svg PUBLIC "-//W3C//DTD SVG 1.1//EN" "http://www.w3.org/Graphics/SVG/1.1/DTD/svg11.dtd">
<!-- Creator: CorelDRAW X7 -->
<svg xmlns="http://www.w3.org/2000/svg" xml:space="preserve" width="200px" height="200px" version="1.1" shape-rendering="geometricPrecision" text-rendering="geometricPrecision" image-rendering="optimizeQuality" fill-rule="evenodd" clip-rule="evenodd"
viewBox="0 0 200 200"
 xmlns:xlink="http://www.w3.org/1999/xlink">
 <g id="Layer_x0020_1">
  <metadata id="CorelCorpID_0Corel-Layer"/>
  <g id="_2916190671104">
   <path fill="black" d="M100 140l0 -80c15.15,3.53 17.48,2.28 27.6,12.4 16.49,16.5 16.49,38.7 0,55.2 -10.12,10.12 -12.45,8.87 -27.6,12.4zm-56 -40c0,30.04 25.96,56 56,56 30.04,0 56,-25.96 56,-56 0,-30.04 -25.96,-56 -56,-56 -30.04,0 -56,25.96 -56,56z"/>
   <path fill="black" d="M152 42c0,10.28 13.11,6.07 18.6,0.6 25.54,-25.43 -18.6,-26.87 -18.6,-0.6z"/>
   <path fill="black" d="M22 170c0,8.3 8.25,11.62 19.55,1.55 15.37,-13.68 2.34,-28.58 -12.15,-14.15 -2.17,2.16 -7.4,9.37 -7.4,12.6z"/>
   <path fill="black" d="M152 158c0,24.88 42.48,26.19 19.55,0.45 -6.09,-6.84 -19.55,-10.74 -19.55,-0.45z"/>
   <path fill="black" d="M22 30c0,12.01 26,27.29 26,12 0,-16.3 -26,-28.24 -26,-12z"/>
   <path fill="black" d="M92 178c0,10.16 -2.25,22 8,22 11.71,0 11.71,-30 0,-30 -4.68,0 -8,3.32 -8,8z"/>
   <path fill="black" d="M92 8c0,10.16 -2.25,22 8,22 11.71,0 11.71,-30 0,-30 -4.68,0 -8,3.32 -8,8z"/>
   <path fill="black" d="M0 100c0,11.71 30,11.71 30,0 0,-11.71 -30,-11.71 -30,0z"/>
   <path fill="black" d="M170 100c0,11.71 30,11.71 30,0 0,-11.71 -30,-11.71 -30,0z"/>
  </g>
 </g>
</svg>
