<svg width="782" height="343" viewBox="0 0 782 343" fill="none" xmlns="http://www.w3.org/2000/svg">
<g clip-path="url(#clip0_7096_3370)">
<path d="M581.39 229.356C610.538 229.356 619.612 198.678 619.612 170.465C619.612 132.665 603.663 112.943 581.39 112.943C553.342 112.943 543.443 143.621 543.718 171.012C543.992 198.13 551.692 229.356 581.39 229.356ZM567.091 170.191C567.091 158.96 567.091 132.665 581.39 132.665C596.789 132.665 596.239 158.686 596.239 170.738C596.239 182.243 596.239 210.182 581.94 210.182C566.541 209.908 567.091 181.969 567.091 170.191ZM496.696 229.356C508.52 229.356 518.694 224.699 528.319 214.564L519.794 198.678C513.195 205.799 506.595 209.634 498.621 209.634C492.021 209.634 486.522 205.799 483.222 199.225C480.472 193.473 479.922 186.899 479.922 179.778V177.586H529.419V172.656C529.419 148.278 526.394 134.856 518.694 124.721C512.92 117.052 504.395 112.943 493.946 112.943C482.947 112.943 473.872 117.873 467.273 127.46C460.123 137.869 457.099 151.839 457.099 171.012C456.824 207.717 471.398 229.356 496.696 229.356ZM494.221 131.021C499.721 131.021 503.02 134.034 505.22 138.965C506.87 143.347 507.695 150.743 507.695 159.508H479.922C480.197 140.06 484.322 131.021 494.221 131.021ZM637.761 226.617H659.209V144.443C664.434 138.143 670.483 134.582 674.883 134.582C677.633 134.582 680.383 135.13 682.033 137.321C683.682 139.786 684.507 143.347 684.507 151.839V226.617H705.956V141.978C705.956 134.582 705.131 127.186 700.731 121.708C696.882 116.778 690.832 113.765 683.133 113.765C673.233 113.765 663.059 119.517 657.559 126.091C657.284 120.339 655.36 114.86 654.81 112.943L634.736 118.147C635.836 124.173 637.486 131.569 637.486 144.991V226.617H637.761ZM388.629 126.091C388.354 120.339 386.429 114.86 385.879 112.943L365.805 118.147C366.905 124.173 368.555 131.569 368.555 144.991V226.343H390.003V144.169C395.228 137.869 401.278 134.308 405.677 134.308C408.427 134.308 411.177 134.856 412.827 137.047C414.477 139.512 415.302 143.073 415.302 151.565V226.343H436.75V141.978C436.75 134.582 435.925 127.186 431.525 121.708C427.676 116.778 421.626 113.765 413.927 113.765C404.302 113.765 394.128 119.517 388.629 126.091ZM126.297 78.1561C138.946 78.1561 149.121 68.0214 149.121 55.4214C149.121 42.8214 138.946 32.6867 126.297 32.6867C113.648 32.6867 103.474 42.8214 103.474 55.4214C103.474 68.0214 113.648 78.1561 126.297 78.1561ZM231.615 226.617V141.978C231.615 134.582 230.79 127.186 226.39 121.708C222.54 116.778 216.491 113.765 208.791 113.765C198.892 113.765 188.718 119.517 183.218 126.091C182.943 120.339 181.018 114.86 180.468 112.943L160.67 118.421C161.77 124.447 163.42 131.843 163.42 145.265V226.617H184.868V144.443C190.093 138.143 196.142 134.582 200.542 134.582C203.292 134.582 206.042 135.13 207.691 137.321C209.341 139.786 210.166 143.347 210.166 151.839V226.617H231.615ZM330.333 72.13C322.358 72.13 316.034 78.43 316.034 86.3735C316.034 94.3169 322.358 100.617 330.058 100.617C338.032 100.617 344.357 94.3169 344.357 86.3735C344.357 78.43 338.032 72.13 330.333 72.13ZM116.123 226.617H137.571V93.2213L116.123 95.9604V226.617ZM291.285 85.2778C295.135 85.2778 298.985 86.6474 301.46 88.5648L307.509 71.8561C301.735 67.7474 295.41 65.8301 287.436 65.8301C281.936 65.8301 276.162 67.1996 270.937 71.3083C265.712 75.6909 260.213 84.4561 260.213 100.891C260.213 108.013 260.488 115.408 260.488 115.408H253.063V134.308H260.488V226.343H282.486V134.582H298.71L302.835 115.682H282.761V98.6995C282.761 90.4822 286.061 85.2778 291.285 85.2778ZM319.333 226.617H341.057V113.765L319.333 116.504V226.617Z" fill="#005DA9"/>
<path d="M661.957 286.877C589.362 308.242 501.094 317.555 414.75 317.555C195.59 317.555 54.2505 253.46 44.3512 168.821C40.7765 137.047 65.7997 106.095 107.597 79.7996C100.172 74.3213 95.4976 65.5561 95.2226 55.6953C34.7269 87.4691 0.629333 129.104 0.629333 171.286C0.629333 264.69 168.092 343.577 416.95 340.29C503.568 339.195 575.888 326.868 641.334 305.503C719.153 280.303 768.1 244.147 779.924 228.26C765.9 240.86 732.627 266.06 661.957 286.877ZM200.265 38.1649C214.839 33.2345 235.463 26.9345 235.463 26.9345C293.483 11.0476 357.554 1.73454 417.225 2.28237C348.48 -1.82632 285.784 2.28236 231.063 12.1432C231.063 12.1432 212.914 15.1562 193.391 20.0867C193.391 20.0867 184.041 22.5519 178.267 24.1954C172.492 25.8388 164.518 28.0301 164.518 28.0301C159.018 29.6736 153.518 31.591 148.019 33.5084C153.518 38.9866 156.818 46.1083 157.093 54.3257C166.717 49.9431 185.141 43.3692 200.265 38.1649Z" fill="#E30034"/>
</g>
<defs>
<clipPath id="clip0_7096_3370">
<rect width="780.741" height="341.574" fill="white" transform="translate(0.629333 0.700745)"/>
</clipPath>
</defs>
</svg>
