<?xml version="1.0" encoding="UTF-8"?>
<!DOCTYPE svg PUBLIC "-//W3C//DTD SVG 1.1//EN" "http://www.w3.org/Graphics/SVG/1.1/DTD/svg11.dtd">
<!-- Creator: CorelDRAW X7 -->
<svg xmlns="http://www.w3.org/2000/svg" xml:space="preserve" width="1000px" height="600px" version="1.1" shape-rendering="geometricPrecision" text-rendering="geometricPrecision" image-rendering="optimizeQuality" fill-rule="evenodd" clip-rule="evenodd"
viewBox="0 0 1000 600"
 xmlns:xlink="http://www.w3.org/1999/xlink">
 <g id="Layer_x0020_2">
  <metadata id="CorelCorpID_0Corel-Layer"/>
  <g id="_1991250926672">
   <rect fill="#5EA290" width="1000" height="600" rx="50.37" ry="50"/>
   <rect fill="none" stroke="white" stroke-width="10" x="50" y="50" width="900" height="500" rx="27.2" ry="25"/>
  </g>
 </g>
 <g id="Layer_x0020_1">
  <metadata id="CorelCorpID_1Corel-Layer"/>
  <path fill="white" fill-rule="nonzero" d="M322.88 130.83l18.66 0c3,0 5.81,0.29 8.42,0.88 2.61,0.58 4.89,1.55 6.83,2.91 1.95,1.37 3.49,3.17 4.63,5.42 1.14,2.25 1.71,5.01 1.71,8.29 0,3.17 -0.57,5.92 -1.71,8.25 -1.14,2.34 -2.68,4.25 -4.63,5.75 -1.94,1.5 -4.19,2.61 -6.75,3.34 -2.55,0.72 -5.27,1.08 -8.16,1.08l-6.75 0 0 18.42 -12.25 0 0 -54.34zm18.25 26.17c6.66,0 10,-2.89 10,-8.67 0,-2.83 -0.89,-4.83 -2.67,-6 -1.78,-1.16 -4.33,-1.75 -7.67,-1.75l-5.66 0 0 16.42 6 0z"/>
  <path id="1" fill="white" fill-rule="nonzero" d="M371.54 143.83l10 0 0.84 7.25 0.33 0c1.5,-2.83 3.31,-4.91 5.42,-6.25 2.11,-1.33 4.22,-2 6.33,-2 1.17,0 2.12,0.07 2.87,0.21 0.75,0.14 1.44,0.35 2.05,0.63l-2 10.58c-0.78,-0.22 -1.5,-0.39 -2.17,-0.5 -0.67,-0.11 -1.45,-0.17 -2.33,-0.17 -1.56,0 -3.18,0.56 -4.88,1.67 -1.69,1.11 -3.1,3.08 -4.21,5.92l0 24 -12.25 0 0 -41.34z"/>
  <path id="2" fill="white" fill-rule="nonzero" d="M421.63 186.17c-2.62,0 -5.14,-0.49 -7.59,-1.46 -2.44,-0.98 -4.6,-2.38 -6.46,-4.21 -1.86,-1.83 -3.34,-4.1 -4.45,-6.79 -1.12,-2.7 -1.67,-5.77 -1.67,-9.21 0,-3.45 0.55,-6.51 1.67,-9.21 1.11,-2.69 2.59,-4.96 4.45,-6.79 1.86,-1.83 4.02,-3.24 6.46,-4.21 2.45,-0.97 4.97,-1.46 7.59,-1.46 2.61,0 5.12,0.49 7.54,1.46 2.41,0.97 4.55,2.38 6.41,4.21 1.87,1.83 3.35,4.1 4.46,6.79 1.11,2.7 1.67,5.76 1.67,9.21 0,3.44 -0.56,6.51 -1.67,9.21 -1.11,2.69 -2.59,4.96 -4.46,6.79 -1.86,1.83 -4,3.23 -6.41,4.21 -2.42,0.97 -4.93,1.46 -7.54,1.46zm0 -9.92c2.5,0 4.38,-1.06 5.66,-3.17 1.28,-2.11 1.92,-4.97 1.92,-8.58 0,-3.61 -0.64,-6.47 -1.92,-8.58 -1.28,-2.12 -3.16,-3.17 -5.66,-3.17 -2.56,0 -4.46,1.05 -5.71,3.17 -1.25,2.11 -1.88,4.97 -1.88,8.58 0,3.61 0.63,6.47 1.88,8.58 1.25,2.11 3.15,3.17 5.71,3.17z"/>
  <path id="3" fill="white" fill-rule="nonzero" d="M456.37 163.67l-11.91 -19.84 13.16 0 3.67 6.67c0.56,1.17 1.13,2.35 1.71,3.54 0.58,1.19 1.18,2.38 1.79,3.54l0.33 0c0.45,-1.16 0.92,-2.35 1.42,-3.54 0.5,-1.19 0.97,-2.37 1.42,-3.54l2.83 -6.67 12.67 0 -12 21.25 12.75 20.09 -13.17 0 -4 -6.84c-0.67,-1.16 -1.32,-2.36 -1.96,-3.58 -0.64,-1.22 -1.29,-2.42 -1.96,-3.58l-0.33 0c-0.5,1.16 -1.03,2.34 -1.58,3.54 -0.56,1.19 -1.09,2.4 -1.58,3.62l-3.26 6.84 -12.66 0 12.66 -21.5z"/>
  <path id="4" fill="white" fill-rule="nonzero" d="M490.79 143.83l12.25 0 0 41.34 -12.25 0 0 -41.34zm6.08 -6.08c-2.05,0 -3.75,-0.6 -5.08,-1.79 -1.33,-1.2 -2,-2.74 -2,-4.63 0,-1.89 0.67,-3.41 2,-4.58 1.33,-1.17 3.03,-1.75 5.08,-1.75 2.12,0 3.82,0.58 5.13,1.75 1.3,1.17 1.96,2.69 1.96,4.58 0,1.89 -0.66,3.43 -1.96,4.63 -1.31,1.19 -3.01,1.79 -5.13,1.79z"/>
  <path id="5" fill="white" fill-rule="nonzero" d="M513.79 143.83l10 0 0.83 5.34 0.34 0c1.72,-1.73 3.55,-3.21 5.5,-4.46 1.94,-1.25 4.28,-1.88 7,-1.88 2.94,0 5.32,0.6 7.12,1.79 1.81,1.2 3.24,2.91 4.29,5.13 1.84,-1.89 3.77,-3.51 5.8,-4.88 2.02,-1.36 4.43,-2.04 7.2,-2.04 4.45,0 7.71,1.49 9.79,4.46 2.09,2.97 3.13,7.04 3.13,12.21l0 25.67 -12.25 0 0 -24.09c0,-3 -0.4,-5.05 -1.21,-6.16 -0.8,-1.12 -2.1,-1.67 -3.87,-1.67 -2.06,0 -4.42,1.33 -7.09,4l0 27.92 -12.25 0 0 -24.09c0,-3 -0.4,-5.05 -1.2,-6.16 -0.81,-1.12 -2.1,-1.67 -3.88,-1.67 -2.11,0 -4.44,1.33 -7,4l0 27.92 -12.25 0 0 -41.34z"/>
  <path id="6" fill="white" fill-rule="nonzero" d="M585.21 143.83l12.25 0 0 41.34 -12.25 0 0 -41.34zm6.08 -6.08c-2.06,0 -3.75,-0.6 -5.08,-1.79 -1.34,-1.2 -2,-2.74 -2,-4.63 0,-1.89 0.66,-3.41 2,-4.58 1.33,-1.17 3.02,-1.75 5.08,-1.75 2.11,0 3.82,0.58 5.12,1.75 1.31,1.17 1.96,2.69 1.96,4.58 0,1.89 -0.65,3.43 -1.96,4.63 -1.3,1.19 -3.01,1.79 -5.12,1.79z"/>
  <path id="7" fill="white" fill-rule="nonzero" d="M624.12 186.17c-2.55,0 -4.73,-0.39 -6.54,-1.17 -1.8,-0.78 -3.28,-1.86 -4.42,-3.25 -1.13,-1.39 -1.97,-3.07 -2.5,-5.04 -0.52,-1.98 -0.79,-4.16 -0.79,-6.54l0 -16.75 -5.66 0 0 -9.09 6.33 -0.5 1.42 -11 10.16 0 0 11 9.92 0 0 9.59 -9.92 0 0 16.58c0,2.33 0.49,4.01 1.46,5.04 0.97,1.03 2.26,1.54 3.88,1.54 0.66,0 1.34,-0.08 2.04,-0.25 0.69,-0.16 1.32,-0.36 1.87,-0.58l1.92 8.92c-1.11,0.33 -2.42,0.66 -3.92,0.99 -1.5,0.34 -3.25,0.51 -5.25,0.51z"/>
  <path id="8" fill="white" fill-rule="nonzero" d="M644.7 201.33c-1.27,0 -2.36,-0.07 -3.25,-0.21 -0.88,-0.14 -1.75,-0.34 -2.58,-0.62l2.17 -9.33c0.39,0.11 0.83,0.22 1.33,0.33 0.5,0.11 0.97,0.16 1.42,0.16 2.05,0 3.64,-0.49 4.75,-1.5 1.11,-0.99 1.94,-2.3 2.5,-3.91l0.58 -2.17 -15.91 -40.25 12.33 0 5.91 17.75c0.62,1.89 1.17,3.81 1.67,5.75 0.5,1.95 1.03,3.95 1.58,6l0.34 0c0.44,-1.94 0.9,-3.9 1.37,-5.87 0.48,-1.98 0.96,-3.93 1.46,-5.88l5 -17.75 11.75 0 -14.33 41.75c-1,2.61 -2.04,4.9 -3.13,6.88 -1.08,1.97 -2.33,3.61 -3.75,4.91 -1.41,1.31 -3.02,2.29 -4.83,2.96 -1.81,0.67 -3.93,1 -6.38,1z"/>
  <g id="_1991250923792">
   <path fill="#FEFEFF" d="M484.29 366.47c0.99,7.74 0.71,16.49 0.88,24.7 0.1,4.65 -0.85,9.83 2.56,10.79 5.37,1.51 4.67,-4.05 4.58,-7.73 -0.26,-9.21 -1.84,-67.46 0.43,-74.83 1.64,-5.35 12.9,-6.74 13.89,2.69 1.63,15.51 -1.98,36.46 -0.03,50.93 4.45,-1.4 3.6,-4.74 7.47,-9.27 1.19,-1.38 3.19,-3.09 5.56,-3.25 12.27,-0.84 0.26,23.58 -0.41,29.9 3.98,-1.4 3.81,-3.19 5.93,-6.59 6.22,-9.98 8.86,-16.69 18.3,-11.68 1.91,7.7 -2.63,14.98 -3.65,23.4 4.01,-1.46 1.12,0.26 3.6,-2.48 1.92,-2.12 10.29,-18.83 16.26,-12.11 4.19,7.07 -4.42,44.7 -7.01,53.44 -3.1,10.48 -10.62,8.87 -21.29,8.25 -21.14,-1.24 -32.02,4.68 -39.49,-6.85 -11.97,-18.47 -18.2,-33.26 -20.83,-56.15 -1.49,-12.91 0.67,-15.63 13.25,-13.16zm0.28 -7.22c-14.14,-2.35 -21.67,2.84 -20.89,16.91 1.17,21.05 8.19,40.38 19,57.77 5.37,8.63 9.65,16.31 23.77,15.58 39.92,-2.06 47.76,9.64 55.07,-22.38 3.49,-15.31 16.37,-62.17 -10.06,-53.47 -5.24,-8.57 -6.21,-12.38 -19.11,-9.29 -1.78,-9.54 -9.6,-12.26 -18.6,-9.45 0.3,-9.83 0.48,-21 0.05,-30.79 -0.45,-10.37 -5.22,-16.72 -16.17,-15.75 -10.65,0.95 -12.28,8.93 -12.64,19.81 -0.34,10.17 -0.57,20.5 -0.42,31.06z"/>
   <path fill="#FEFEFF" d="M444.88 356.74c10.37,-6.5 -1.05,-10.34 -4.8,-30.12 -2.46,-12.96 -0.04,-26.18 5.27,-36.59 23.15,-45.42 85.25,-43.31 106.34,-0.11 4.95,10.14 7.78,22.7 5.59,35.09 -2.57,14.47 -8.29,21.42 -8.58,23.38 -0.79,5.5 4.25,7.31 4.27,7.32 4.18,-10.32 10.69,-15.49 11.65,-34.51 3.89,-77.01 -94.53,-95.15 -124.79,-36.64 -8.55,16.53 -10.32,38.91 -2.89,57.09 2.59,6.36 5.78,10.33 7.94,15.09z"/>
   <path fill="#FEFEFF" d="M458.46 339.22l4.15 -3.96c-3.29,-12.19 -9.17,-24.64 3.05,-41.92 24.09,-34.07 76.53,-13.96 73.68,25.74 -0.26,3.72 -1.1,7.3 -2.39,10.74 -2.15,5.73 -2.5,5.98 2.51,8.81 1.25,-1.11 0.37,0.07 1.63,-1.76 11.01,-16.06 4.15,-67.22 -42.63,-66.95 -26.79,0.15 -45.38,20.76 -46.19,44.22 -0.21,6.22 0.8,20.41 6.19,25.08z"/>
   <path fill="#FEFEFF" d="M474.46 328.27l4.62 -0.64c1.84,-8.5 -5.08,-13.49 4.27,-24.57 11.27,-13.34 34.71,-7.33 36.7,11.39 0.62,5.86 -3.1,11.26 0.89,13.46 10.94,6.04 9.76,-45.44 -27.84,-38.2 -21.81,4.2 -25.67,30.14 -18.64,38.56z"/>
  </g>
 </g>
</svg>
