<?xml version="1.0" encoding="UTF-8"?>
<!DOCTYPE svg PUBLIC "-//W3C//DTD SVG 1.1//EN" "http://www.w3.org/Graphics/SVG/1.1/DTD/svg11.dtd">
<!-- Creator: CorelDRAW X7 -->
<svg xmlns="http://www.w3.org/2000/svg" xml:space="preserve" width="1000px" height="600px" version="1.1" shape-rendering="geometricPrecision" text-rendering="geometricPrecision" image-rendering="optimizeQuality" fill-rule="evenodd" clip-rule="evenodd"
viewBox="0 0 1000 600"
 xmlns:xlink="http://www.w3.org/1999/xlink">
 <g id="Layer_x0020_2">
  <metadata id="CorelCorpID_0Corel-Layer"/>
  <g id="_1992663315280">
   <rect fill="#5EA290" width="1000" height="600" rx="50.37" ry="50"/>
   <rect fill="none" stroke="white" stroke-width="10" x="50" y="50" width="900" height="500" rx="27.2" ry="25"/>
  </g>
 </g>
 <g id="Layer_x0020_1">
  <metadata id="CorelCorpID_1Corel-Layer"/>
  <polygon fill="white" fill-rule="nonzero" points="117.79,129.08 130.04,129.08 130.04,150 148.79,150 148.79,129.08 161.13,129.08 161.13,183.42 148.79,183.42 148.79,160.75 130.04,160.75 130.04,183.42 117.79,183.42 "/>
  <path id="1" fill="white" fill-rule="nonzero" d="M191.46 184.42c-2.95,0 -5.69,-0.49 -8.25,-1.46 -2.56,-0.97 -4.78,-2.39 -6.67,-4.25 -1.89,-1.86 -3.36,-4.13 -4.41,-6.79 -1.06,-2.67 -1.59,-5.73 -1.59,-9.17 0,-3.33 0.56,-6.35 1.67,-9.04 1.11,-2.7 2.57,-4.97 4.37,-6.84 1.81,-1.86 3.88,-3.29 6.21,-4.29 2.34,-1 4.75,-1.5 7.25,-1.5 2.95,0 5.52,0.5 7.71,1.5 2.2,1 4.03,2.39 5.5,4.17 1.47,1.78 2.57,3.87 3.29,6.29 0.72,2.42 1.09,5.04 1.09,7.88 0,1.11 -0.06,2.16 -0.17,3.16 -0.11,1 -0.22,1.75 -0.33,2.25l-24.75 0c0.55,3 1.79,5.21 3.7,6.63 1.92,1.41 4.27,2.12 7.05,2.12 2.94,0 5.91,-0.91 8.91,-2.75l4.09 7.42c-2.11,1.44 -4.46,2.58 -7.05,3.42 -2.58,0.83 -5.12,1.25 -7.62,1.25zm5.75 -26.17c0,-2.33 -0.53,-4.22 -1.58,-5.67 -1.06,-1.44 -2.84,-2.16 -5.34,-2.16 -1.94,0 -3.65,0.63 -5.12,1.91 -1.47,1.28 -2.43,3.25 -2.88,5.92l14.92 0z"/>
  <path id="2" fill="white" fill-rule="nonzero" d="M225.62 184.42c-1.88,0 -3.59,-0.32 -5.12,-0.96 -1.53,-0.64 -2.82,-1.53 -3.87,-2.67 -1.06,-1.14 -1.88,-2.46 -2.46,-3.96 -0.59,-1.5 -0.88,-3.14 -0.88,-4.91 0,-4.34 1.84,-7.73 5.5,-10.17 3.67,-2.45 9.59,-4.08 17.75,-4.92 -0.11,-1.83 -0.65,-3.29 -1.62,-4.37 -0.98,-1.09 -2.6,-1.63 -4.88,-1.63 -1.78,0 -3.54,0.34 -5.29,1 -1.75,0.67 -3.63,1.59 -5.62,2.75l-4.42 -8.08c2.67,-1.61 5.46,-2.92 8.37,-3.92 2.92,-1 6.02,-1.5 9.29,-1.5 5.34,0 9.41,1.52 12.21,4.54 2.81,3.03 4.21,7.74 4.21,14.13l0 23.67 -10 0 -0.83 -4.25 -0.34 0c-1.77,1.55 -3.63,2.82 -5.58,3.79 -1.94,0.97 -4.08,1.46 -6.42,1.46zm4.17 -9.5c1.39,0 2.58,-0.31 3.59,-0.92 1,-0.61 2.05,-1.47 3.16,-2.58l0 -7.25c-4.33,0.61 -7.33,1.5 -9,2.66 -1.66,1.17 -2.5,2.56 -2.5,4.17 0,1.33 0.43,2.32 1.29,2.96 0.86,0.64 2.02,0.96 3.46,0.96z"/>
  <path id="3" fill="white" fill-rule="nonzero" d="M270.37 184.42c-2.11,0 -3.88,-0.34 -5.33,-1 -1.44,-0.67 -2.6,-1.6 -3.46,-2.8 -0.86,-1.19 -1.48,-2.63 -1.87,-4.33 -0.39,-1.69 -0.59,-3.6 -0.59,-5.71l0 -45.58 12.26 0 0 46.08c0,1.28 0.23,2.17 0.7,2.67 0.47,0.5 0.96,0.75 1.46,0.75 0.28,0 0.51,0 0.71,0 0.19,0 0.46,-0.06 0.79,-0.17l1.5 9.09c-0.66,0.27 -1.51,0.51 -2.54,0.7 -1.03,0.2 -2.24,0.3 -3.63,0.3z"/>
  <path id="4" fill="white" fill-rule="nonzero" d="M298.87 184.42c-2.55,0 -4.73,-0.39 -6.54,-1.17 -1.8,-0.78 -3.28,-1.86 -4.41,-3.25 -1.14,-1.39 -1.98,-3.07 -2.5,-5.04 -0.53,-1.97 -0.8,-4.15 -0.8,-6.54l0 -16.75 -5.66 0 0 -9.09 6.33 -0.5 1.42 -11 10.17 0 0 11 9.91 0 0 9.59 -9.91 0 0 16.58c0,2.33 0.48,4.01 1.45,5.04 0.98,1.03 2.27,1.54 3.88,1.54 0.67,0 1.35,-0.08 2.04,-0.25 0.69,-0.16 1.32,-0.36 1.87,-0.58l1.92 8.92c-1.11,0.33 -2.42,0.66 -3.92,1 -1.5,0.33 -3.25,0.5 -5.25,0.5z"/>
  <path id="5" fill="white" fill-rule="nonzero" d="M314.88 125l12.25 0 0 14.33 -0.59 7.42c1.56,-1.39 3.36,-2.68 5.42,-3.88 2.05,-1.19 4.5,-1.79 7.33,-1.79 4.5,0 7.77,1.48 9.79,4.42 2.03,2.94 3.04,7.03 3.04,12.25l0 25.67 -12.24 0 0 -24.09c0,-3 -0.41,-5.05 -1.21,-6.16 -0.81,-1.11 -2.1,-1.67 -3.88,-1.67 -1.55,0 -2.89,0.35 -4,1.04 -1.11,0.7 -2.33,1.68 -3.66,2.96l0 27.92 -12.25 0 0 -58.42z"/>
  <polygon id="6" fill="white" fill-rule="nonzero" points="390.71,139.42 375.79,139.42 375.79,129.08 417.96,129.08 417.96,139.42 403.04,139.42 403.04,183.42 390.71,183.42 "/>
  <path id="7" fill="white" fill-rule="nonzero" d="M425.46 125l12.25 0 0 14.33 -0.58 7.42c1.55,-1.39 3.36,-2.68 5.41,-3.88 2.06,-1.19 4.5,-1.79 7.34,-1.79 4.5,0 7.76,1.48 9.79,4.42 2.02,2.94 3.04,7.03 3.04,12.25l0 25.67 -12.25 0 0 -24.09c0,-3 -0.4,-5.05 -1.21,-6.16 -0.81,-1.11 -2.1,-1.67 -3.87,-1.67 -1.56,0 -2.89,0.35 -4.01,1.04 -1.11,0.7 -2.33,1.68 -3.66,2.96l0 27.92 -12.25 0 0 -58.42z"/>
  <path id="8" fill="white" fill-rule="nonzero" d="M491.54 184.42c-2.94,0 -5.69,-0.49 -8.25,-1.46 -2.55,-0.97 -4.78,-2.39 -6.67,-4.25 -1.88,-1.86 -3.36,-4.13 -4.41,-6.79 -1.06,-2.67 -1.59,-5.73 -1.59,-9.17 0,-3.33 0.56,-6.35 1.67,-9.04 1.11,-2.7 2.57,-4.97 4.38,-6.84 1.8,-1.86 3.87,-3.29 6.21,-4.29 2.33,-1 4.74,-1.5 7.24,-1.5 2.95,0 5.52,0.5 7.71,1.5 2.2,1 4.03,2.39 5.5,4.17 1.47,1.78 2.57,3.87 3.29,6.29 0.73,2.42 1.09,5.04 1.09,7.88 0,1.11 -0.06,2.16 -0.17,3.16 -0.11,1 -0.22,1.75 -0.33,2.25l-24.75 0c0.55,3 1.79,5.21 3.71,6.63 1.91,1.41 4.26,2.12 7.04,2.12 2.94,0 5.91,-0.91 8.91,-2.75l4.09 7.42c-2.11,1.44 -4.46,2.58 -7.04,3.42 -2.59,0.83 -5.13,1.25 -7.63,1.25zm5.75 -26.17c0,-2.33 -0.53,-4.22 -1.58,-5.67 -1.06,-1.44 -2.84,-2.16 -5.33,-2.16 -1.95,0 -3.66,0.63 -5.13,1.91 -1.47,1.28 -2.43,3.25 -2.88,5.92l14.92 0z"/>
  <path id="9" fill="white" fill-rule="nonzero" d="M516.21 142.08l10 0 0.83 7.25 0.33 0c1.5,-2.83 3.31,-4.91 5.42,-6.25 2.11,-1.33 4.22,-2 6.33,-2 1.17,0 2.13,0.07 2.88,0.21 0.75,0.14 1.43,0.35 2.04,0.63l-2 10.58c-0.78,-0.22 -1.5,-0.39 -2.17,-0.5 -0.66,-0.11 -1.44,-0.17 -2.33,-0.17 -1.56,0 -3.18,0.56 -4.87,1.67 -1.7,1.11 -3.1,3.08 -4.21,5.92l0 24 -12.25 0 0 -41.34z"/>
  <path id="10" fill="white" fill-rule="nonzero" d="M549.37 142.08l10 0 0.84 5.34 0.33 0c1.72,-1.73 3.56,-3.21 5.5,-4.46 1.94,-1.25 4.28,-1.88 7,-1.88 2.95,0 5.32,0.6 7.13,1.79 1.8,1.2 3.23,2.91 4.29,5.13 1.83,-1.89 3.76,-3.51 5.79,-4.88 2.03,-1.36 4.43,-2.04 7.21,-2.04 4.44,0 7.71,1.49 9.79,4.46 2.08,2.97 3.12,7.04 3.12,12.21l0 25.67 -12.25 0 0 -24.09c0,-3 -0.4,-5.05 -1.2,-6.16 -0.81,-1.11 -2.1,-1.67 -3.88,-1.67 -2.05,0 -4.42,1.33 -7.08,4l0 27.92 -12.25 0 0 -24.09c0,-3 -0.41,-5.05 -1.21,-6.16 -0.81,-1.11 -2.1,-1.67 -3.88,-1.67 -2.11,0 -4.44,1.33 -7,4l0 27.92 -12.25 0 0 -41.34z"/>
  <path id="11" fill="white" fill-rule="nonzero" d="M638.54 184.42c-2.61,0 -5.14,-0.49 -7.58,-1.46 -2.45,-0.97 -4.6,-2.38 -6.46,-4.21 -1.86,-1.83 -3.35,-4.1 -4.46,-6.79 -1.11,-2.7 -1.67,-5.77 -1.67,-9.21 0,-3.45 0.56,-6.51 1.67,-9.21 1.11,-2.69 2.6,-4.96 4.46,-6.79 1.86,-1.83 4.01,-3.24 6.46,-4.21 2.44,-0.97 4.97,-1.46 7.58,-1.46 2.61,0 5.12,0.49 7.54,1.46 2.42,0.97 4.56,2.38 6.42,4.21 1.86,1.83 3.35,4.1 4.46,6.79 1.11,2.7 1.66,5.76 1.66,9.21 0,3.44 -0.55,6.51 -1.66,9.21 -1.11,2.69 -2.6,4.96 -4.46,6.79 -1.86,1.83 -4,3.24 -6.42,4.21 -2.42,0.97 -4.93,1.46 -7.54,1.46zm0 -9.92c2.5,0 4.39,-1.06 5.67,-3.17 1.27,-2.11 1.91,-4.97 1.91,-8.58 0,-3.61 -0.64,-6.47 -1.91,-8.58 -1.28,-2.11 -3.17,-3.17 -5.67,-3.17 -2.55,0 -4.46,1.06 -5.71,3.17 -1.25,2.11 -1.87,4.97 -1.87,8.58 0,3.61 0.62,6.47 1.87,8.58 1.25,2.11 3.16,3.17 5.71,3.17z"/>
  <path id="12" fill="white" fill-rule="nonzero" d="M667.04 142.08l10 0 0.83 5.34 0.34 0c1.72,-1.73 3.55,-3.21 5.5,-4.46 1.94,-1.25 4.27,-1.88 7,-1.88 2.94,0 5.32,0.6 7.12,1.79 1.81,1.2 3.24,2.91 4.29,5.13 1.84,-1.89 3.77,-3.51 5.79,-4.88 2.03,-1.36 4.43,-2.04 7.21,-2.04 4.45,0 7.71,1.49 9.8,4.46 2.08,2.97 3.12,7.04 3.12,12.21l0 25.67 -12.25 0 0 -24.09c0,-3 -0.4,-5.05 -1.21,-6.16 -0.8,-1.11 -2.1,-1.67 -3.87,-1.67 -2.06,0 -4.42,1.33 -7.09,4l0 27.92 -12.25 0 0 -24.09c0,-3 -0.4,-5.05 -1.21,-6.16 -0.8,-1.11 -2.09,-1.67 -3.87,-1.67 -2.11,0 -4.44,1.33 -7,4l0 27.92 -12.25 0 0 -41.34z"/>
  <path id="13" fill="white" fill-rule="nonzero" d="M756.96 184.42c-2.95,0 -5.7,-0.49 -8.25,-1.46 -2.56,-0.97 -4.78,-2.39 -6.67,-4.25 -1.89,-1.86 -3.36,-4.13 -4.42,-6.79 -1.05,-2.67 -1.58,-5.73 -1.58,-9.17 0,-3.33 0.56,-6.35 1.67,-9.04 1.11,-2.7 2.57,-4.97 4.37,-6.84 1.81,-1.86 3.88,-3.29 6.21,-4.29 2.33,-1 4.75,-1.5 7.25,-1.5 2.94,0 5.51,0.5 7.71,1.5 2.19,1 4.03,2.39 5.5,4.17 1.47,1.78 2.57,3.87 3.29,6.29 0.72,2.42 1.08,5.04 1.08,7.88 0,1.11 -0.05,2.16 -0.16,3.16 -0.11,1 -0.23,1.75 -0.34,2.25l-24.75 0c0.56,3 1.8,5.21 3.71,6.63 1.92,1.41 4.27,2.12 7.04,2.12 2.95,0 5.92,-0.91 8.92,-2.75l4.08 7.42c-2.11,1.44 -4.46,2.58 -7.04,3.42 -2.58,0.83 -5.12,1.25 -7.62,1.25zm5.75 -26.17c0,-2.33 -0.53,-4.22 -1.59,-5.67 -1.05,-1.44 -2.83,-2.16 -5.33,-2.16 -1.94,0 -3.65,0.63 -5.13,1.91 -1.47,1.28 -2.43,3.25 -2.87,5.92l14.92 0z"/>
  <path id="14" fill="white" fill-rule="nonzero" d="M796.71 184.42c-2.56,0 -4.74,-0.39 -6.54,-1.17 -1.81,-0.78 -3.28,-1.86 -4.42,-3.25 -1.14,-1.39 -1.97,-3.07 -2.5,-5.04 -0.53,-1.97 -0.79,-4.15 -0.79,-6.54l0 -16.75 -5.67 0 0 -9.09 6.33 -0.5 1.42 -11 10.17 0 0 11 9.91 0 0 9.59 -9.91 0 0 16.58c0,2.33 0.48,4.01 1.45,5.04 0.98,1.03 2.27,1.54 3.88,1.54 0.67,0 1.35,-0.08 2.04,-0.25 0.7,-0.16 1.32,-0.36 1.88,-0.58l1.91 8.92c-1.11,0.33 -2.41,0.66 -3.91,1 -1.5,0.33 -3.25,0.5 -5.25,0.5z"/>
  <path id="15" fill="white" fill-rule="nonzero" d="M829.71 184.42c-2.95,0 -5.7,-0.49 -8.25,-1.46 -2.56,-0.97 -4.78,-2.39 -6.67,-4.25 -1.89,-1.86 -3.36,-4.13 -4.42,-6.79 -1.05,-2.67 -1.58,-5.73 -1.58,-9.17 0,-3.33 0.56,-6.35 1.67,-9.04 1.11,-2.7 2.57,-4.97 4.37,-6.84 1.81,-1.86 3.88,-3.29 6.21,-4.29 2.33,-1 4.75,-1.5 7.25,-1.5 2.94,0 5.51,0.5 7.71,1.5 2.19,1 4.03,2.39 5.5,4.17 1.47,1.78 2.57,3.87 3.29,6.29 0.72,2.42 1.08,5.04 1.08,7.88 0,1.11 -0.05,2.16 -0.16,3.16 -0.11,1 -0.23,1.75 -0.34,2.25l-24.75 0c0.56,3 1.8,5.21 3.71,6.63 1.92,1.41 4.27,2.12 7.04,2.12 2.95,0 5.92,-0.91 8.92,-2.75l4.08 7.42c-2.11,1.44 -4.46,2.58 -7.04,3.42 -2.58,0.83 -5.12,1.25 -7.62,1.25zm5.75 -26.17c0,-2.33 -0.53,-4.22 -1.59,-5.67 -1.05,-1.44 -2.83,-2.16 -5.33,-2.16 -1.94,0 -3.65,0.63 -5.13,1.91 -1.47,1.28 -2.43,3.25 -2.87,5.92l14.92 0z"/>
  <path id="16" fill="white" fill-rule="nonzero" d="M854.37 142.08l10 0 0.84 7.25 0.33 0c1.5,-2.83 3.3,-4.91 5.42,-6.25 2.11,-1.33 4.22,-2 6.33,-2 1.17,0 2.12,0.07 2.87,0.21 0.75,0.14 1.43,0.35 2.05,0.63l-2 10.58c-0.78,-0.22 -1.5,-0.39 -2.17,-0.5 -0.67,-0.11 -1.45,-0.17 -2.33,-0.17 -1.56,0 -3.19,0.56 -4.88,1.67 -1.69,1.11 -3.1,3.08 -4.21,5.92l0 24 -12.25 0 0 -41.34z"/>
  <g id="_1992663312336">
   <path fill="#FEFEFF" d="M546.36 242.45c12.43,-4.32 23.7,6.6 19.73,20.15l-44.92 83.96c-5.15,9.29 -10.37,18.51 -15.02,27.83 -6.24,12.48 -13.9,20.12 -10.97,28.18 9.35,25.76 -9.59,49.26 -34.83,45.3 -33.53,-5.25 -36.22,-51.82 -6.87,-62.5 7.19,-2.61 9.88,-0.18 13.75,-6.98 20.45,-35.94 40.07,-75.99 59.97,-111.53 9.26,-16.53 7.49,-20.35 19.16,-24.41zm36.09 23.06c8.22,-31.37 -28.32,-52.52 -53.17,-32.98 -8.04,6.32 -62.05,111.64 -73.05,130.99 -3.7,6.5 -9.57,5.88 -16.05,9.82 -16.73,10.17 -26.85,30.27 -22.99,51.41 4.62,25.26 31.1,47.2 61.96,38.19 46.03,-13.44 33.11,-61.67 33.24,-63.62 0.54,-8.39 65.63,-116.92 70.06,-133.81z"/>
   <path fill="#FEFEFF" d="M483.92 397.23c2.72,-2.13 51.55,-93.12 59.06,-108.11 10.22,-20.38 18.91,-27.23 13.46,-38.42 -11.9,-3.12 -12.45,1.11 -17,10.18 -21.17,42.16 -47.6,86.76 -70.07,130.02 -14.67,1.01 -22.31,5.19 -26.73,16.07 -11.02,27.1 27.5,44.49 42.13,23.98 11.46,-16.07 0.97,-26.98 -0.85,-33.72z"/>
  </g>
 </g>
</svg>
