<?xml version="1.0" encoding="UTF-8"?>
<!DOCTYPE svg PUBLIC "-//W3C//DTD SVG 1.1//EN" "http://www.w3.org/Graphics/SVG/1.1/DTD/svg11.dtd">
<!-- Creator: CorelDRAW X7 -->
<svg xmlns="http://www.w3.org/2000/svg" xml:space="preserve" width="1000px" height="600px" version="1.1" shape-rendering="geometricPrecision" text-rendering="geometricPrecision" image-rendering="optimizeQuality" fill-rule="evenodd" clip-rule="evenodd"
viewBox="0 0 1000 600"
 xmlns:xlink="http://www.w3.org/1999/xlink">
 <g id="Layer_x0020_2">
  <metadata id="CorelCorpID_0Corel-Layer"/>
  <g id="_1992664836480">
   <rect fill="#5EA290" width="1000" height="600" rx="50.37" ry="50"/>
   <rect fill="none" stroke="white" stroke-width="10" x="50" y="50" width="900" height="500" rx="27.2" ry="25"/>
  </g>
 </g>
 <g id="Layer_x0020_1">
  <metadata id="CorelCorpID_1Corel-Layer"/>
  <path fill="white" fill-rule="nonzero" d="M115.36 180.05c-3.1,0 -6.03,-0.54 -8.78,-1.61 -2.75,-1.08 -5.16,-2.67 -7.23,-4.77 -2.08,-2.1 -3.72,-4.71 -4.92,-7.83 -1.2,-3.13 -1.8,-6.74 -1.8,-10.84 0,-4.05 0.63,-7.66 1.88,-10.84 1.25,-3.17 2.92,-5.86 5.02,-8.06 2.1,-2.2 4.55,-3.88 7.35,-5.03 2.8,-1.15 5.75,-1.72 8.85,-1.72 3.15,0 5.98,0.64 8.48,1.91 2.5,1.28 4.57,2.76 6.22,4.46l-5.85 7.05c-1.25,-1.15 -2.56,-2.08 -3.93,-2.81 -1.38,-0.72 -2.94,-1.09 -4.69,-1.09 -1.65,0 -3.21,0.37 -4.69,1.09 -1.47,0.73 -2.75,1.76 -3.82,3.11 -1.08,1.35 -1.93,3 -2.55,4.95 -0.63,1.95 -0.94,4.15 -0.94,6.6 0,5.05 1.07,8.97 3.22,11.74 2.15,2.78 5.03,4.16 8.63,4.16 2,0 3.79,-0.43 5.36,-1.31 1.58,-0.87 2.96,-1.96 4.16,-3.26l5.85 6.9c-4.1,4.8 -9.37,7.2 -15.82,7.2z"/>
  <path id="1" fill="white" fill-rule="nonzero" d="M140.48 193.7c-1.15,0 -2.12,-0.06 -2.92,-0.19 -0.8,-0.12 -1.58,-0.31 -2.33,-0.56l1.95 -8.4c0.35,0.1 0.75,0.2 1.2,0.3 0.45,0.1 0.88,0.15 1.28,0.15 1.85,0 3.27,-0.45 4.27,-1.35 1,-0.9 1.75,-2.08 2.25,-3.52l0.53 -1.96 -14.33 -36.22 11.1 0 5.33 15.97c0.55,1.7 1.05,3.43 1.5,5.18 0.45,1.75 0.92,3.55 1.42,5.4l0.3 0c0.4,-1.75 0.82,-3.51 1.24,-5.29 0.43,-1.77 0.86,-3.54 1.31,-5.29l4.5 -15.97 10.58 0 -12.9 37.58c-0.9,2.34 -1.84,4.41 -2.81,6.18 -0.98,1.78 -2.1,3.25 -3.38,4.43 -1.27,1.17 -2.72,2.06 -4.35,2.66 -1.62,0.6 -3.54,0.9 -5.74,0.9z"/>
  <path id="2" fill="white" fill-rule="nonzero" d="M191.04 180.05c-2.61,0 -5.02,-0.44 -7.24,-1.31 -2.23,-0.88 -4.16,-2.14 -5.81,-3.79 -1.65,-1.65 -2.96,-3.69 -3.9,-6.11 -0.96,-2.43 -1.43,-5.19 -1.43,-8.29 0,-3.1 0.53,-5.86 1.58,-8.29 1.05,-2.42 2.46,-4.46 4.23,-6.11 1.78,-1.65 3.84,-2.91 6.19,-3.79 2.35,-0.87 4.8,-1.31 7.35,-1.31 2.3,0 4.34,0.37 6.11,1.12 1.78,0.75 3.36,1.7 4.77,2.85l-5.18 7.13c-1.75,-1.45 -3.43,-2.18 -5.02,-2.18 -2.7,0 -4.83,0.95 -6.38,2.85 -1.55,1.9 -2.32,4.48 -2.32,7.73 0,3.25 0.78,5.82 2.36,7.72 1.57,1.9 3.56,2.85 5.96,2.85 1.2,0 2.36,-0.26 3.49,-0.78 1.12,-0.53 2.18,-1.17 3.19,-1.92l4.35 7.2c-1.86,1.6 -3.86,2.74 -6,3.42 -2.16,0.67 -4.26,1.01 -6.3,1.01z"/>
  <path id="3" fill="white" fill-rule="nonzero" d="M219.99 180.05c-1.91,0 -3.5,-0.3 -4.8,-0.9 -1.31,-0.6 -2.34,-1.44 -3.12,-2.51 -0.77,-1.08 -1.34,-2.38 -1.68,-3.9 -0.35,-1.53 -0.53,-3.24 -0.53,-5.14l0 -41.03 11.03 0 0 41.48c0,1.15 0.21,1.95 0.63,2.4 0.43,0.45 0.87,0.67 1.32,0.67 0.25,0 0.46,0 0.63,0 0.18,0 0.42,-0.05 0.72,-0.15l1.35 8.18c-0.6,0.25 -1.37,0.46 -2.29,0.64 -0.93,0.17 -2.02,0.26 -3.26,0.26z"/>
  <path id="4" fill="white" fill-rule="nonzero" d="M231.31 141.95l11.03 0 0 37.2 -11.03 0 0 -37.2zm5.48 -5.48c-1.85,0 -3.38,-0.53 -4.58,-1.61 -1.2,-1.07 -1.8,-2.46 -1.8,-4.16 0,-1.7 0.6,-3.08 1.8,-4.13 1.2,-1.05 2.73,-1.57 4.58,-1.57 1.9,0 3.43,0.52 4.61,1.57 1.17,1.05 1.76,2.43 1.76,4.13 0,1.7 -0.59,3.09 -1.76,4.16 -1.18,1.08 -2.71,1.61 -4.61,1.61z"/>
  <path id="5" fill="white" fill-rule="nonzero" d="M252.01 141.95l9 0 0.75 4.72 0.3 0c1.6,-1.5 3.35,-2.81 5.25,-3.93 1.9,-1.13 4.13,-1.69 6.68,-1.69 4.05,0 6.98,1.32 8.81,3.97 1.82,2.65 2.74,6.33 2.74,11.03l0 23.1 -11.03 0 0 -21.68c0,-2.7 -0.36,-4.55 -1.09,-5.55 -0.72,-1 -1.88,-1.5 -3.48,-1.5 -1.4,0 -2.6,0.32 -3.6,0.94 -1.01,0.63 -2.1,1.51 -3.3,2.66l0 25.13 -11.03 0 0 -37.2z"/>
  <path id="6" fill="white" fill-rule="nonzero" d="M308.19 194.98c-2.21,0 -4.24,-0.19 -6.12,-0.57 -1.87,-0.37 -3.52,-0.93 -4.95,-1.68 -1.42,-0.75 -2.54,-1.73 -3.33,-2.93 -0.8,-1.2 -1.2,-2.62 -1.2,-4.27 0,-3 1.77,-5.51 5.32,-7.51l0 -0.3c-1,-0.65 -1.83,-1.47 -2.47,-2.47 -0.65,-1 -0.98,-2.28 -0.98,-3.83 0,-1.35 0.4,-2.63 1.2,-3.86 0.8,-1.22 1.8,-2.26 3,-3.11l0 -0.3c-1.3,-0.9 -2.46,-2.19 -3.49,-3.86 -1.02,-1.68 -1.53,-3.62 -1.53,-5.82 0,-2.25 0.42,-4.21 1.27,-5.88 0.85,-1.68 1.99,-3.08 3.41,-4.2 1.43,-1.13 3.07,-1.97 4.92,-2.52 1.84,-0.55 3.77,-0.82 5.77,-0.82 2.2,0 4.13,0.3 5.78,0.9l13.57 0 0 8.02 -5.92 0c0.34,0.55 0.63,1.25 0.86,2.1 0.22,0.85 0.34,1.78 0.34,2.78 0,2.15 -0.38,4.01 -1.13,5.59 -0.75,1.57 -1.79,2.87 -3.11,3.9 -1.33,1.02 -2.88,1.78 -4.65,2.28 -1.78,0.5 -3.69,0.75 -5.74,0.75 -1.45,0 -2.95,-0.25 -4.5,-0.75 -0.5,0.4 -0.85,0.8 -1.05,1.2 -0.2,0.4 -0.3,0.93 -0.3,1.58 0,0.95 0.41,1.65 1.24,2.1 0.82,0.45 2.29,0.67 4.39,0.67l6 0c4.6,0 8.11,0.74 10.53,2.22 2.43,1.47 3.64,3.88 3.64,7.24 0,1.95 -0.49,3.73 -1.46,5.36 -0.98,1.62 -2.36,3.02 -4.16,4.2 -1.8,1.17 -3.98,2.1 -6.53,2.77 -2.55,0.68 -5.43,1.02 -8.62,1.02zm0.82 -34.28c1.45,0 2.66,-0.51 3.64,-1.54 0.97,-1.02 1.46,-2.59 1.46,-4.69 0,-1.95 -0.49,-3.43 -1.46,-4.46 -0.98,-1.02 -2.19,-1.54 -3.64,-1.54 -1.45,0 -2.66,0.5 -3.64,1.5 -0.97,1 -1.46,2.5 -1.46,4.5 0,2.1 0.49,3.67 1.46,4.69 0.98,1.03 2.19,1.54 3.64,1.54zm0.9 27.38c2.5,0 4.55,-0.44 6.15,-1.32 1.6,-0.87 2.4,-1.96 2.4,-3.26 0,-1.15 -0.49,-1.93 -1.46,-2.32 -0.98,-0.41 -2.39,-0.6 -4.24,-0.6l-3.82 0c-1.31,0 -2.36,-0.04 -3.15,-0.12 -0.8,-0.07 -1.5,-0.18 -2.1,-0.33 -1.35,1.2 -2.03,2.42 -2.03,3.67 0,1.4 0.75,2.46 2.25,3.19 1.5,0.72 3.5,1.09 6,1.09z"/>
  <path id="7" fill="white" fill-rule="nonzero" d="M365.79 180.05c-3.2,0 -6.39,-0.59 -9.57,-1.76 -3.17,-1.18 -6.01,-2.94 -8.51,-5.29l6.3 -7.58c1.75,1.5 3.69,2.73 5.81,3.68 2.13,0.95 4.21,1.42 6.27,1.42 2.29,0 4.01,-0.42 5.13,-1.27 1.13,-0.85 1.69,-2 1.69,-3.45 0,-0.75 -0.16,-1.4 -0.49,-1.95 -0.32,-0.55 -0.8,-1.04 -1.42,-1.46 -0.63,-0.43 -1.38,-0.83 -2.25,-1.2 -0.88,-0.38 -1.84,-0.79 -2.89,-1.24l-6.37 -2.7c-1.25,-0.5 -2.47,-1.15 -3.64,-1.95 -1.18,-0.8 -2.23,-1.74 -3.15,-2.81 -0.93,-1.08 -1.66,-2.33 -2.21,-3.75 -0.56,-1.43 -0.83,-3.04 -0.83,-4.84 0,-2 0.42,-3.89 1.28,-5.66 0.85,-1.78 2.05,-3.33 3.6,-4.65 1.54,-1.33 3.38,-2.37 5.51,-3.12 2.12,-0.75 4.46,-1.12 7.01,-1.12 2.85,0 5.66,0.55 8.44,1.65 2.77,1.1 5.21,2.7 7.31,4.8l-5.62 6.97c-1.61,-1.25 -3.2,-2.21 -4.8,-2.88 -1.61,-0.68 -3.38,-1.02 -5.33,-1.02 -1.9,0 -3.41,0.39 -4.54,1.17 -1.12,0.77 -1.68,1.86 -1.68,3.26 0,0.75 0.18,1.39 0.56,1.91 0.37,0.53 0.9,1 1.57,1.43 0.68,0.42 1.47,0.82 2.37,1.2 0.9,0.37 1.87,0.78 2.92,1.23l6.3 2.55c3,1.2 5.36,2.85 7.09,4.95 1.72,2.1 2.59,4.88 2.59,8.33 0,2.05 -0.42,3.99 -1.24,5.81 -0.83,1.83 -2.03,3.43 -3.6,4.8 -1.58,1.38 -3.52,2.48 -5.81,3.3 -2.3,0.83 -4.91,1.24 -7.8,1.24z"/>
  <path id="8" fill="white" fill-rule="nonzero" d="M391.66 141.95l9 0 0.75 3.67 0.3 0c1.45,-1.3 3.09,-2.38 4.91,-3.26 1.83,-0.87 3.72,-1.31 5.67,-1.31 2.25,0 4.27,0.45 6.07,1.35 1.8,0.9 3.33,2.17 4.58,3.82 1.24,1.65 2.21,3.64 2.88,5.97 0.68,2.32 1.02,4.91 1.02,7.76 0,3.2 -0.44,6.04 -1.32,8.51 -0.87,2.48 -2.05,4.58 -3.52,6.3 -1.48,1.73 -3.15,3.04 -5.03,3.94 -1.87,0.9 -3.81,1.35 -5.81,1.35 -1.6,0 -3.15,-0.34 -4.65,-1.01 -1.5,-0.68 -2.9,-1.64 -4.2,-2.89l0.38 5.93 0 10.87 -11.03 0 0 -51zm16.95 29.1c1.9,0 3.53,-0.86 4.88,-2.59 1.35,-1.72 2.02,-4.51 2.02,-8.36 0,-6.7 -2.15,-10.05 -6.45,-10.05 -2.15,0 -4.27,1.12 -6.37,3.37l0 15.23c1,0.9 1.99,1.52 3,1.87 1,0.35 1.97,0.53 2.92,0.53z"/>
  <path id="9" fill="white" fill-rule="nonzero" d="M451.29 180.05c-2.65,0 -5.13,-0.44 -7.43,-1.31 -2.3,-0.88 -4.3,-2.15 -6,-3.83 -1.7,-1.67 -3.02,-3.71 -3.97,-6.11 -0.95,-2.4 -1.43,-5.15 -1.43,-8.25 0,-3 0.5,-5.71 1.5,-8.14 1,-2.42 2.31,-4.47 3.94,-6.15 1.62,-1.67 3.49,-2.96 5.59,-3.86 2.1,-0.9 4.27,-1.35 6.52,-1.35 2.65,0 4.96,0.45 6.94,1.35 1.97,0.9 3.62,2.15 4.95,3.75 1.32,1.6 2.31,3.49 2.96,5.66 0.65,2.18 0.98,4.54 0.98,7.09 0,1 -0.05,1.95 -0.15,2.85 -0.1,0.9 -0.2,1.57 -0.3,2.02l-22.28 0c0.5,2.7 1.61,4.69 3.34,5.97 1.72,1.27 3.84,1.91 6.34,1.91 2.65,0 5.32,-0.83 8.02,-2.48l3.68 6.68c-1.9,1.3 -4.02,2.32 -6.34,3.07 -2.33,0.76 -4.61,1.13 -6.86,1.13zm5.17 -23.55c0,-2.1 -0.47,-3.8 -1.42,-5.1 -0.95,-1.3 -2.55,-1.95 -4.8,-1.95 -1.75,0 -3.29,0.57 -4.62,1.72 -1.32,1.15 -2.18,2.93 -2.58,5.33l13.42 0z"/>
  <path id="10" fill="white" fill-rule="nonzero" d="M490.14 180.05c-2.65,0 -5.13,-0.44 -7.43,-1.31 -2.3,-0.88 -4.3,-2.15 -6,-3.83 -1.7,-1.67 -3.02,-3.71 -3.97,-6.11 -0.95,-2.4 -1.43,-5.15 -1.43,-8.25 0,-3 0.5,-5.71 1.5,-8.14 1,-2.42 2.31,-4.47 3.94,-6.15 1.62,-1.67 3.49,-2.96 5.59,-3.86 2.1,-0.9 4.27,-1.35 6.52,-1.35 2.65,0 4.96,0.45 6.94,1.35 1.97,0.9 3.62,2.15 4.95,3.75 1.32,1.6 2.31,3.49 2.96,5.66 0.65,2.18 0.98,4.54 0.98,7.09 0,1 -0.05,1.95 -0.15,2.85 -0.1,0.9 -0.2,1.57 -0.3,2.02l-22.28 0c0.5,2.7 1.61,4.69 3.34,5.97 1.72,1.27 3.84,1.91 6.34,1.91 2.65,0 5.32,-0.83 8.02,-2.48l3.68 6.68c-1.9,1.3 -4.02,2.32 -6.34,3.07 -2.33,0.76 -4.61,1.13 -6.86,1.13zm5.17 -23.55c0,-2.1 -0.47,-3.8 -1.42,-5.1 -0.95,-1.3 -2.55,-1.95 -4.8,-1.95 -1.75,0 -3.29,0.57 -4.62,1.72 -1.32,1.15 -2.18,2.93 -2.58,5.33l13.42 0z"/>
  <path id="11" fill="white" fill-rule="nonzero" d="M525.61 180.05c-2.3,0 -4.39,-0.45 -6.26,-1.35 -1.88,-0.9 -3.48,-2.19 -4.8,-3.86 -1.33,-1.68 -2.35,-3.72 -3.08,-6.12 -0.72,-2.4 -1.08,-5.12 -1.08,-8.17 0,-3.05 0.43,-5.78 1.31,-8.18 0.87,-2.4 2.02,-4.43 3.45,-6.11 1.42,-1.67 3.07,-2.96 4.95,-3.86 1.87,-0.9 3.79,-1.35 5.74,-1.35 2.1,0 3.82,0.35 5.17,1.05 1.35,0.7 2.68,1.65 3.98,2.85l-0.45 -5.7 0 -12.68 11.02 0 0 52.58 -9 0 -0.75 -3.68 -0.3 0c-1.3,1.3 -2.82,2.39 -4.57,3.27 -1.75,0.87 -3.53,1.31 -5.33,1.31zm2.85 -9c1.2,0 2.29,-0.25 3.26,-0.75 0.98,-0.5 1.92,-1.38 2.82,-2.63l0 -15.22c-1,-0.9 -2.03,-1.53 -3.08,-1.88 -1.05,-0.35 -2.07,-0.52 -3.07,-0.52 -1.75,0 -3.3,0.84 -4.65,2.51 -1.35,1.68 -2.03,4.29 -2.03,7.84 0,3.7 0.59,6.4 1.76,8.1 1.18,1.7 2.84,2.55 4.99,2.55z"/>
  <path id="12" fill="white" fill-rule="nonzero" d="M577.74 165.42c0,1.85 0.66,3.35 1.98,4.5 1.33,1.15 3.09,1.73 5.29,1.73 2,0 4.08,-0.65 6.23,-1.95 -1.9,-1.55 -3.72,-3.18 -5.44,-4.88 -1.73,-1.7 -3.31,-3.45 -4.76,-5.25 -1,0.85 -1.8,1.75 -2.4,2.7 -0.6,0.95 -0.9,2 -0.9,3.15zm4.57 -23.32c0,0.9 0.14,1.85 0.41,2.85 0.28,1 0.67,2 1.17,3 1.75,-1.05 3.22,-2.15 4.42,-3.3 1.2,-1.15 1.8,-2.55 1.8,-4.2 0,-1.15 -0.27,-2.08 -0.82,-2.78 -0.55,-0.7 -1.4,-1.05 -2.55,-1.05 -1.25,0 -2.3,0.49 -3.15,1.47 -0.85,0.97 -1.28,2.31 -1.28,4.01zm29.18 37.95c-2.05,-0.4 -4.13,-1.03 -6.23,-1.88 -2.1,-0.85 -4.2,-1.87 -6.3,-3.07 -2.1,1.55 -4.41,2.76 -6.94,3.64 -2.52,0.87 -5.33,1.31 -8.43,1.31 -2.65,0 -4.99,-0.37 -7.02,-1.13 -2.02,-0.75 -3.72,-1.76 -5.1,-3.03 -1.37,-1.28 -2.41,-2.75 -3.11,-4.43 -0.7,-1.67 -1.05,-3.46 -1.05,-5.36 0,-1.7 0.24,-3.24 0.71,-4.61 0.48,-1.38 1.13,-2.62 1.95,-3.72 0.83,-1.1 1.78,-2.1 2.85,-3 1.08,-0.9 2.22,-1.72 3.42,-2.47 -0.95,-1.75 -1.69,-3.49 -2.22,-5.21 -0.52,-1.73 -0.78,-3.37 -0.78,-4.92 0,-1.75 0.31,-3.4 0.93,-4.95 0.63,-1.55 1.52,-2.91 2.67,-4.08 1.15,-1.18 2.53,-2.1 4.16,-2.78 1.62,-0.67 3.46,-1.01 5.51,-1.01 3.7,0 6.63,1 8.78,3 2.15,2 3.22,4.7 3.22,8.1 0,1.6 -0.29,3.06 -0.86,4.39 -0.58,1.32 -1.35,2.55 -2.33,3.67 -0.97,1.13 -2.07,2.16 -3.3,3.11 -1.22,0.95 -2.46,1.85 -3.71,2.7 1.4,1.6 2.94,3.17 4.61,4.69 1.68,1.53 3.42,2.94 5.22,4.24 1.25,-1.6 2.35,-3.38 3.3,-5.33 0.95,-1.95 1.72,-4.07 2.32,-6.37l10.05 0c-0.9,3 -2.01,5.86 -3.34,8.59 -1.32,2.72 -2.93,5.36 -4.83,7.91 1.55,0.8 3.03,1.46 4.46,1.99 1.42,0.52 2.76,0.88 4.01,1.08l-2.62 8.93z"/>
  <path id="13" fill="white" fill-rule="nonzero" d="M656.64 180.05c-3.1,0 -6.03,-0.54 -8.78,-1.61 -2.75,-1.08 -5.16,-2.67 -7.24,-4.77 -2.07,-2.1 -3.71,-4.71 -4.91,-7.83 -1.2,-3.13 -1.8,-6.74 -1.8,-10.84 0,-4.05 0.63,-7.66 1.88,-10.84 1.25,-3.17 2.92,-5.86 5.02,-8.06 2.1,-2.2 4.55,-3.88 7.35,-5.03 2.8,-1.15 5.75,-1.72 8.85,-1.72 3.15,0 5.98,0.64 8.48,1.91 2.5,1.28 4.57,2.76 6.22,4.46l-5.85 7.05c-1.25,-1.15 -2.56,-2.08 -3.94,-2.81 -1.37,-0.72 -2.93,-1.09 -4.68,-1.09 -1.65,0 -3.21,0.37 -4.69,1.09 -1.48,0.73 -2.75,1.76 -3.83,3.11 -1.07,1.35 -1.92,3 -2.55,4.95 -0.62,1.95 -0.93,4.15 -0.93,6.6 0,5.05 1.07,8.97 3.22,11.74 2.15,2.78 5.03,4.16 8.63,4.16 2,0 3.78,-0.43 5.36,-1.31 1.57,-0.87 2.96,-1.96 4.16,-3.26l5.85 6.9c-4.1,4.8 -9.37,7.2 -15.82,7.2z"/>
  <path id="14" fill="white" fill-rule="nonzero" d="M688.36 180.05c-1.7,0 -3.24,-0.29 -4.61,-0.86 -1.37,-0.58 -2.54,-1.38 -3.49,-2.4 -0.95,-1.03 -1.69,-2.22 -2.21,-3.57 -0.53,-1.35 -0.79,-2.82 -0.79,-4.42 0,-3.9 1.65,-6.95 4.95,-9.15 3.3,-2.2 8.63,-3.68 15.98,-4.43 -0.1,-1.65 -0.59,-2.96 -1.47,-3.93 -0.87,-0.98 -2.33,-1.47 -4.38,-1.47 -1.6,0 -3.19,0.3 -4.77,0.9 -1.57,0.6 -3.26,1.43 -5.06,2.48l-3.97 -7.28c2.4,-1.45 4.91,-2.62 7.53,-3.52 2.63,-0.9 5.42,-1.35 8.37,-1.35 4.8,0 8.46,1.36 10.98,4.09 2.53,2.72 3.79,6.96 3.79,12.71l0 21.3 -9 0 -0.75 -3.83 -0.3 0c-1.6,1.4 -3.27,2.54 -5.02,3.42 -1.75,0.87 -3.68,1.31 -5.78,1.31zm3.75 -8.55c1.25,0 2.33,-0.28 3.23,-0.83 0.9,-0.55 1.85,-1.32 2.85,-2.32l0 -6.53c-3.9,0.55 -6.6,1.35 -8.1,2.4 -1.5,1.05 -2.25,2.3 -2.25,3.75 0,1.2 0.39,2.09 1.16,2.67 0.77,0.57 1.81,0.86 3.11,0.86z"/>
  <path id="15" fill="white" fill-rule="nonzero" d="M731.79 180.05c-2.3,0 -4.39,-0.45 -6.26,-1.35 -1.88,-0.9 -3.48,-2.19 -4.8,-3.86 -1.33,-1.68 -2.35,-3.72 -3.08,-6.12 -0.73,-2.4 -1.09,-5.12 -1.09,-8.17 0,-3.05 0.44,-5.78 1.32,-8.18 0.87,-2.4 2.02,-4.43 3.45,-6.11 1.42,-1.67 3.07,-2.96 4.95,-3.86 1.87,-0.9 3.78,-1.35 5.73,-1.35 2.1,0 3.83,0.35 5.18,1.05 1.35,0.7 2.67,1.65 3.97,2.85l-0.45 -5.7 0 -12.68 11.03 0 0 52.58 -9 0 -0.75 -3.68 -0.3 0c-1.3,1.3 -2.83,2.39 -4.58,3.27 -1.75,0.87 -3.52,1.31 -5.32,1.31zm2.85 -9c1.2,0 2.29,-0.25 3.26,-0.75 0.98,-0.5 1.91,-1.38 2.81,-2.63l0 -15.22c-1,-0.9 -2.02,-1.53 -3.07,-1.88 -1.05,-0.35 -2.08,-0.52 -3.08,-0.52 -1.75,0 -3.3,0.84 -4.65,2.51 -1.35,1.68 -2.02,4.29 -2.02,7.84 0,3.7 0.58,6.4 1.76,8.1 1.18,1.7 2.84,2.55 4.99,2.55z"/>
  <path id="16" fill="white" fill-rule="nonzero" d="M778.14 180.05c-2.65,0 -5.13,-0.44 -7.43,-1.31 -2.3,-0.88 -4.3,-2.15 -6,-3.83 -1.7,-1.67 -3.02,-3.71 -3.97,-6.11 -0.95,-2.4 -1.43,-5.15 -1.43,-8.25 0,-3 0.5,-5.71 1.5,-8.14 1,-2.42 2.32,-4.47 3.94,-6.15 1.63,-1.67 3.49,-2.96 5.59,-3.86 2.1,-0.9 4.27,-1.35 6.52,-1.35 2.65,0 4.97,0.45 6.94,1.35 1.98,0.9 3.63,2.15 4.95,3.75 1.33,1.6 2.31,3.49 2.96,5.66 0.65,2.18 0.98,4.54 0.98,7.09 0,1 -0.05,1.95 -0.15,2.85 -0.1,0.9 -0.2,1.57 -0.3,2.02l-22.28 0c0.5,2.7 1.62,4.69 3.34,5.97 1.73,1.27 3.84,1.91 6.34,1.91 2.65,0 5.32,-0.83 8.02,-2.48l3.68 6.68c-1.9,1.3 -4.01,2.32 -6.34,3.07 -2.32,0.76 -4.61,1.13 -6.86,1.13zm5.17 -23.55c0,-2.1 -0.47,-3.8 -1.42,-5.1 -0.95,-1.3 -2.55,-1.95 -4.8,-1.95 -1.75,0 -3.29,0.57 -4.61,1.72 -1.33,1.15 -2.19,2.93 -2.59,5.33l13.42 0z"/>
  <path id="17" fill="white" fill-rule="nonzero" d="M800.34 141.95l9 0 0.75 4.72 0.3 0c1.6,-1.5 3.35,-2.81 5.25,-3.93 1.9,-1.13 4.12,-1.69 6.67,-1.69 4.05,0 6.99,1.32 8.82,3.97 1.82,2.65 2.73,6.33 2.73,11.03l0 23.1 -11.02 0 0 -21.68c0,-2.7 -0.36,-4.55 -1.09,-5.55 -0.72,-1 -1.89,-1.5 -3.49,-1.5 -1.4,0 -2.6,0.32 -3.6,0.94 -1,0.63 -2.1,1.51 -3.3,2.66l0 25.13 -11.02 0 0 -37.2z"/>
  <path id="18" fill="white" fill-rule="nonzero" d="M859.44 180.05c-2.6,0 -5.01,-0.44 -7.24,-1.31 -2.22,-0.88 -4.16,-2.14 -5.81,-3.79 -1.65,-1.65 -2.95,-3.69 -3.9,-6.11 -0.95,-2.43 -1.43,-5.19 -1.43,-8.29 0,-3.1 0.53,-5.86 1.58,-8.29 1.05,-2.42 2.46,-4.46 4.24,-6.11 1.77,-1.65 3.83,-2.91 6.18,-3.79 2.35,-0.87 4.8,-1.31 7.35,-1.31 2.3,0 4.34,0.37 6.12,1.12 1.77,0.75 3.36,1.7 4.76,2.85l-5.18 7.13c-1.75,-1.45 -3.42,-2.18 -5.02,-2.18 -2.7,0 -4.83,0.95 -6.38,2.85 -1.55,1.9 -2.32,4.48 -2.32,7.73 0,3.25 0.79,5.82 2.36,7.72 1.58,1.9 3.56,2.85 5.96,2.85 1.2,0 2.37,-0.26 3.49,-0.78 1.13,-0.53 2.19,-1.17 3.19,-1.92l4.35 7.2c-1.85,1.6 -3.85,2.74 -6,3.42 -2.15,0.67 -4.25,1.01 -6.3,1.01z"/>
  <path id="19" fill="white" fill-rule="nonzero" d="M892.81 180.05c-2.65,0 -5.12,-0.44 -7.42,-1.31 -2.3,-0.88 -4.3,-2.15 -6,-3.83 -1.7,-1.67 -3.03,-3.71 -3.98,-6.11 -0.95,-2.4 -1.42,-5.15 -1.42,-8.25 0,-3 0.5,-5.71 1.5,-8.14 1,-2.42 2.31,-4.47 3.94,-6.15 1.62,-1.67 3.48,-2.96 5.58,-3.86 2.1,-0.9 4.28,-1.35 6.53,-1.35 2.65,0 4.96,0.45 6.94,1.35 1.97,0.9 3.62,2.15 4.95,3.75 1.32,1.6 2.31,3.49 2.96,5.66 0.65,2.18 0.97,4.54 0.97,7.09 0,1 -0.05,1.95 -0.15,2.85 -0.1,0.9 -0.2,1.57 -0.3,2.02l-22.27 0c0.5,2.7 1.61,4.69 3.34,5.97 1.72,1.27 3.83,1.91 6.33,1.91 2.65,0 5.33,-0.83 8.03,-2.48l3.67 6.68c-1.9,1.3 -4.01,2.32 -6.33,3.07 -2.33,0.76 -4.62,1.13 -6.87,1.13zm5.18 -23.55c0,-2.1 -0.48,-3.8 -1.43,-5.1 -0.95,-1.3 -2.55,-1.95 -4.8,-1.95 -1.75,0 -3.28,0.57 -4.61,1.72 -1.32,1.15 -2.19,2.93 -2.59,5.33l13.43 0z"/>
  <g id="_1992664843808">
   <path fill="#FEFEFF" d="M590.98 403.12c1.85,-9.03 -7.69,-33.58 -9.96,-43.88 44.35,-1.9 56.13,39.83 39.12,63.91 -18.5,26.22 -61.03,22.38 -72.11,-10.45 -7.27,-21.55 5.65,-45.01 23.03,-49.82 2.09,7.88 4.01,14.81 6.06,22.72 2.06,7.97 4.28,24.28 13.86,17.52zm-38.17 35.42c1.73,-0.36 1.48,-0.77 1.06,0.9 1.97,-0.48 1.57,-0.96 1.57,0.94 3.69,0.71 19.86,14.74 44.85,7.6 44.94,-12.84 44.57,-68.6 18.98,-86.75 -14.89,-10.57 -25.16,-11.91 -40.9,-10.9l-3.09 -10.58c3.87,-3.05 8.16,-5.67 4.25,-12.08 -6.24,-4.87 -19.51,-1.88 -28.13,-1.89 -7.36,-18.89 -8.49,-34.22 -22.21,-45.89 -13.02,-11.08 -34.46,11.01 -43.13,17.13 -14.15,9.98 -33.94,18.64 -26.79,36.92 6.04,15.45 27.86,20.23 37.67,29.26 -4.07,10.99 -25.21,29.86 -23.85,41.95 1.56,4.37 10.42,9.52 17.43,1.36l11.05 -15.68c20.67,-31.95 29.06,-30.27 4.37,-45.08 -3.23,-1.95 -12.97,-7.99 -15.11,-11.44 5.7,-3 11.67,-8.17 17.42,-12.1l17.73 -11.21c3.45,10.78 7,25.31 14.72,30.91l10.25 -0.57 -18.74 22.66c-6.87,8.63 -30.76,30.59 -30.02,36.19 5.26,11.49 13.15,-0.35 17.36,-5.28l22.97 -26.56c6.36,-6.97 15.91,-21.22 22.94,-24.5l2.25 10.16c-28.42,9.87 -41.16,44.54 -21.62,75.43l6.72 9.1z"/>
   <path fill="#FEFEFF" d="M425.77 394.5c1.68,-4.74 13.88,-18.19 17.91,-21.8 4.57,4.38 8.71,12.65 9.78,21.8l-27.69 0zm27.35 11.08c0.18,7.83 -6.4,17.04 -10.13,21.7 -4.25,5.3 -10.79,10.39 -20.4,12.32 -42.82,8.59 -66.91,-43.33 -36.73,-70.4 14.52,-13.02 39.08,-12.9 48.65,-3.69 -3.46,6.18 -16.48,21.45 -21.4,27.01 -17.19,18.28 14.27,12.43 40.01,13.06zm-44.95 -55.77c-52.28,3.36 -62.16,79.55 -12.06,96.97 7.93,2.75 17.7,3.43 26.65,1.84 7.89,-1.41 20.98,-6.73 24.03,-10.42 1.35,-1.63 -0.24,0.67 1.22,-0.9 6.71,-7.19 4.42,-4.03 9.33,-13.45 2.9,-5.56 4.71,-10.51 5.43,-17.69 3.37,-2.44 6.53,-4.36 7.62,-11.5l-7.53 -0.68c-1.46,-17.44 -9.48,-21.94 -12.59,-29.46l12.89 -15.85c-4.75,-7.32 -8.98,-8.71 -11.78,-20.67 -15.24,-0.89 -12.86,16.99 2.97,14.12 -2.11,4.4 -10.03,13.3 -13.74,15.53 -12.41,-6.07 -16.09,-8.15 -32.44,-7.84z"/>
   <path fill="#FEFEFF" d="M559.64 318.09c5.22,5.01 22.64,6.97 20.97,-5.52 -7.43,-2.99 -14.15,-4.1 -21.08,0.41l0.11 5.11z"/>
   <circle fill="white" cx="554.95" cy="268.83" r="18.83"/>
  </g>
 </g>
</svg>
