<?xml version="1.0" encoding="UTF-8"?>
<!DOCTYPE svg PUBLIC "-//W3C//DTD SVG 1.1//EN" "http://www.w3.org/Graphics/SVG/1.1/DTD/svg11.dtd">
<!-- Creator: CorelDRAW X7 -->
<svg xmlns="http://www.w3.org/2000/svg" xml:space="preserve" width="1000px" height="600px" version="1.1" shape-rendering="geometricPrecision" text-rendering="geometricPrecision" image-rendering="optimizeQuality" fill-rule="evenodd" clip-rule="evenodd"
viewBox="0 0 1000 600"
 xmlns:xlink="http://www.w3.org/1999/xlink">
 <g id="Layer_x0020_2">
  <metadata id="CorelCorpID_0Corel-Layer"/>
  <g id="_1991234621648">
   <rect fill="#5EA290" width="1000" height="600" rx="50.37" ry="50"/>
   <rect fill="none" stroke="white" stroke-width="10" x="50" y="50" width="900" height="500" rx="27.2" ry="25"/>
  </g>
 </g>
 <g id="Layer_x0020_1">
  <metadata id="CorelCorpID_1Corel-Layer"/>
  <path fill="white" fill-rule="nonzero" d="M155.22 130.83l15.33 0c4.16,0 7.91,0.53 11.25,1.59 3.33,1.05 6.19,2.68 8.58,4.87 2.39,2.2 4.22,4.99 5.5,8.38 1.28,3.39 1.92,7.41 1.92,12.08 0,4.67 -0.64,8.72 -1.92,12.17 -1.28,3.44 -3.08,6.29 -5.42,8.54 -2.33,2.25 -5.12,3.93 -8.37,5.04 -3.25,1.11 -6.87,1.67 -10.87,1.67l-16 0 0 -54.34zm14.58 44.42c2.33,0 4.44,-0.31 6.33,-0.92 1.89,-0.61 3.5,-1.59 4.84,-2.96 1.33,-1.36 2.37,-3.15 3.12,-5.37 0.75,-2.22 1.12,-4.97 1.12,-8.25 0,-3.22 -0.37,-5.93 -1.12,-8.13 -0.75,-2.19 -1.79,-3.94 -3.12,-5.25 -1.34,-1.3 -2.95,-2.23 -4.84,-2.79 -1.89,-0.55 -4,-0.83 -6.33,-0.83l-2.33 0 0 34.5 2.33 0z"/>
  <path id="1" fill="white" fill-rule="nonzero" d="M225.63 186.17c-2.94,0 -5.69,-0.49 -8.25,-1.46 -2.56,-0.98 -4.78,-2.39 -6.67,-4.25 -1.88,-1.86 -3.36,-4.13 -4.41,-6.79 -1.06,-2.67 -1.59,-5.73 -1.59,-9.17 0,-3.33 0.56,-6.35 1.67,-9.04 1.11,-2.7 2.57,-4.97 4.38,-6.84 1.8,-1.86 3.87,-3.29 6.2,-4.29 2.34,-1 4.75,-1.5 7.25,-1.5 2.95,0 5.52,0.5 7.71,1.5 2.2,1 4.03,2.39 5.5,4.17 1.47,1.78 2.57,3.87 3.29,6.29 0.73,2.42 1.09,5.04 1.09,7.88 0,1.11 -0.06,2.16 -0.17,3.16 -0.11,1 -0.22,1.75 -0.33,2.25l-24.75 0c0.55,3 1.79,5.21 3.71,6.63 1.91,1.41 4.26,2.12 7.04,2.12 2.94,0 5.91,-0.91 8.91,-2.75l4.09 7.42c-2.11,1.44 -4.46,2.58 -7.04,3.41 -2.59,0.84 -5.13,1.26 -7.63,1.26zm5.75 -26.17c0,-2.33 -0.53,-4.22 -1.58,-5.67 -1.06,-1.44 -2.84,-2.16 -5.34,-2.16 -1.94,0 -3.65,0.64 -5.12,1.91 -1.47,1.28 -2.43,3.25 -2.88,5.92l14.92 0z"/>
  <path id="2" fill="white" fill-rule="nonzero" d="M245.38 143.83l12.33 0 5.34 19.5c0.55,2.06 1.09,4.16 1.62,6.29 0.53,2.14 1.07,4.3 1.63,6.46l0.33 0c0.5,-2.16 1.01,-4.32 1.54,-6.46 0.53,-2.13 1.07,-4.23 1.63,-6.29l5.41 -19.5 11.75 0 -13.5 41.34 -14.16 0 -13.92 -41.34z"/>
  <path id="3" fill="white" fill-rule="nonzero" d="M293.38 143.83l12.25 0 0 41.34 -12.25 0 0 -41.34zm6.08 -6.08c-2.05,0 -3.75,-0.6 -5.08,-1.79 -1.33,-1.2 -2,-2.74 -2,-4.63 0,-1.89 0.67,-3.41 2,-4.58 1.33,-1.17 3.03,-1.75 5.08,-1.75 2.11,0 3.82,0.58 5.13,1.75 1.3,1.17 1.96,2.69 1.96,4.58 0,1.89 -0.66,3.43 -1.96,4.63 -1.31,1.19 -3.02,1.79 -5.13,1.79z"/>
  <path id="4" fill="white" fill-rule="nonzero" d="M334.38 186.17c-2.89,0 -5.57,-0.49 -8.04,-1.46 -2.47,-0.98 -4.63,-2.38 -6.46,-4.21 -1.83,-1.83 -3.28,-4.1 -4.33,-6.79 -1.06,-2.7 -1.59,-5.77 -1.59,-9.21 0,-3.45 0.59,-6.51 1.75,-9.21 1.17,-2.69 2.74,-4.96 4.71,-6.79 1.97,-1.83 4.27,-3.24 6.88,-4.21 2.61,-0.97 5.33,-1.46 8.16,-1.46 2.56,0 4.82,0.42 6.79,1.25 1.98,0.84 3.74,1.89 5.3,3.17l-5.75 7.92c-1.95,-1.61 -3.81,-2.42 -5.59,-2.42 -3,0 -5.36,1.05 -7.08,3.17 -1.72,2.11 -2.58,4.97 -2.58,8.58 0,3.61 0.87,6.47 2.62,8.58 1.75,2.11 3.96,3.17 6.63,3.17 1.33,0 2.62,-0.29 3.87,-0.88 1.25,-0.58 2.43,-1.29 3.54,-2.12l4.84 8c-2.06,1.78 -4.28,3.04 -6.67,3.79 -2.39,0.75 -4.72,1.13 -7,1.13z"/>
  <path id="5" fill="white" fill-rule="nonzero" d="M371.46 186.17c-2.94,0 -5.69,-0.49 -8.25,-1.46 -2.55,-0.98 -4.78,-2.39 -6.66,-4.25 -1.89,-1.86 -3.37,-4.13 -4.42,-6.79 -1.06,-2.67 -1.58,-5.73 -1.58,-9.17 0,-3.33 0.55,-6.35 1.66,-9.04 1.11,-2.7 2.57,-4.97 4.38,-6.84 1.8,-1.86 3.87,-3.29 6.2,-4.29 2.34,-1 4.76,-1.5 7.26,-1.5 2.94,0 5.51,0.5 7.7,1.5 2.2,1 4.03,2.39 5.5,4.17 1.48,1.78 2.57,3.87 3.29,6.29 0.73,2.42 1.09,5.04 1.09,7.88 0,1.11 -0.06,2.16 -0.17,3.16 -0.11,1 -0.22,1.75 -0.33,2.25l-24.75 0c0.55,3 1.79,5.21 3.71,6.63 1.91,1.41 4.26,2.12 7.04,2.12 2.94,0 5.91,-0.91 8.91,-2.75l4.09 7.42c-2.11,1.44 -4.46,2.58 -7.04,3.41 -2.59,0.84 -5.13,1.26 -7.63,1.26zm5.75 -26.17c0,-2.33 -0.53,-4.22 -1.58,-5.67 -1.06,-1.44 -2.83,-2.16 -5.34,-2.16 -1.94,0 -3.65,0.64 -5.12,1.91 -1.47,1.28 -2.43,3.25 -2.87,5.92l14.91 0z"/>
  <polygon id="6" fill="white" fill-rule="nonzero" points="413.79,130.83 426.04,130.83 426.04,185.17 413.79,185.17 "/>
  <path id="7" fill="white" fill-rule="nonzero" d="M437.88 143.83l10 0 0.83 5.25 0.33 0c1.78,-1.66 3.73,-3.12 5.84,-4.37 2.11,-1.25 4.58,-1.88 7.41,-1.88 4.5,0 7.77,1.47 9.79,4.42 2.03,2.94 3.05,7.03 3.05,12.25l0 25.67 -12.25 0 0 -24.09c0,-3 -0.41,-5.05 -1.21,-6.16 -0.81,-1.12 -2.1,-1.67 -3.88,-1.67 -1.55,0 -2.88,0.35 -4,1.04 -1.11,0.7 -2.33,1.68 -3.66,2.96l0 27.92 -12.25 0 0 -41.34z"/>
  <path id="8" fill="white" fill-rule="nonzero" d="M508.88 136.25c-1.56,-0.56 -2.98,-0.83 -4.25,-0.83 -1.5,0 -2.67,0.45 -3.5,1.37 -0.84,0.92 -1.25,2.43 -1.25,4.54l0 2.5 7.41 0 0 9.59 -7.41 0 0 31.75 -12.25 0 0 -31.75 -5.5 0 0 -9.09 5.5 -0.41 0 -2.25c0,-2.17 0.26,-4.23 0.79,-6.17 0.53,-1.94 1.4,-3.64 2.62,-5.08 1.22,-1.45 2.81,-2.59 4.75,-3.42 1.95,-0.83 4.31,-1.25 7.09,-1.25 1.72,0 3.29,0.17 4.71,0.5 1.41,0.33 2.59,0.67 3.54,1l-2.25 9z"/>
  <path id="9" fill="white" fill-rule="nonzero" d="M530.88 186.17c-2.62,0 -5.14,-0.49 -7.59,-1.46 -2.44,-0.98 -4.6,-2.38 -6.46,-4.21 -1.86,-1.83 -3.34,-4.1 -4.45,-6.79 -1.12,-2.7 -1.67,-5.77 -1.67,-9.21 0,-3.45 0.55,-6.51 1.67,-9.21 1.11,-2.69 2.59,-4.96 4.45,-6.79 1.86,-1.83 4.02,-3.24 6.46,-4.21 2.45,-0.97 4.97,-1.46 7.59,-1.46 2.61,0 5.12,0.49 7.54,1.46 2.41,0.97 4.55,2.38 6.41,4.21 1.86,1.83 3.35,4.1 4.46,6.79 1.11,2.7 1.67,5.76 1.67,9.21 0,3.44 -0.56,6.51 -1.67,9.21 -1.11,2.69 -2.6,4.96 -4.46,6.79 -1.86,1.83 -4,3.23 -6.41,4.21 -2.42,0.97 -4.93,1.46 -7.54,1.46zm0 -9.92c2.5,0 4.38,-1.06 5.66,-3.17 1.28,-2.11 1.92,-4.97 1.92,-8.58 0,-3.61 -0.64,-6.47 -1.92,-8.58 -1.28,-2.12 -3.16,-3.17 -5.66,-3.17 -2.56,0 -4.46,1.05 -5.71,3.17 -1.25,2.11 -1.88,4.97 -1.88,8.58 0,3.61 0.63,6.47 1.88,8.58 1.25,2.11 3.15,3.17 5.71,3.17z"/>
  <path id="10" fill="white" fill-rule="nonzero" d="M559.37 143.83l10 0 0.84 7.25 0.33 0c1.5,-2.83 3.31,-4.91 5.42,-6.25 2.11,-1.33 4.22,-2 6.33,-2 1.17,0 2.12,0.07 2.87,0.21 0.75,0.14 1.44,0.35 2.05,0.63l-2 10.58c-0.78,-0.22 -1.5,-0.39 -2.17,-0.5 -0.67,-0.11 -1.44,-0.17 -2.33,-0.17 -1.56,0 -3.18,0.56 -4.88,1.67 -1.69,1.11 -3.1,3.08 -4.21,5.92l0 24 -12.25 0 0 -41.34z"/>
  <path id="11" fill="white" fill-rule="nonzero" d="M592.54 143.83l10 0 0.83 5.34 0.34 0c1.72,-1.73 3.55,-3.21 5.5,-4.46 1.94,-1.25 4.27,-1.88 7,-1.88 2.94,0 5.31,0.6 7.12,1.79 1.81,1.2 3.24,2.91 4.29,5.13 1.83,-1.89 3.77,-3.51 5.79,-4.88 2.03,-1.36 4.43,-2.04 7.21,-2.04 4.45,0 7.71,1.49 9.79,4.46 2.09,2.97 3.13,7.04 3.13,12.21l0 25.67 -12.25 0 0 -24.09c0,-3 -0.4,-5.05 -1.21,-6.16 -0.81,-1.12 -2.1,-1.67 -3.88,-1.67 -2.05,0 -4.41,1.33 -7.08,4l0 27.92 -12.25 0 0 -24.09c0,-3 -0.4,-5.05 -1.21,-6.16 -0.8,-1.12 -2.09,-1.67 -3.87,-1.67 -2.11,0 -4.45,1.33 -7,4l0 27.92 -12.25 0 0 -41.34z"/>
  <path id="12" fill="white" fill-rule="nonzero" d="M674.37 186.17c-1.89,0 -3.6,-0.32 -5.12,-0.96 -1.53,-0.64 -2.82,-1.53 -3.88,-2.67 -1.05,-1.14 -1.87,-2.46 -2.46,-3.96 -0.58,-1.5 -0.87,-3.14 -0.87,-4.91 0,-4.34 1.83,-7.73 5.5,-10.17 3.66,-2.45 9.58,-4.08 17.75,-4.92 -0.11,-1.83 -0.66,-3.29 -1.63,-4.37 -0.97,-1.09 -2.59,-1.63 -4.87,-1.63 -1.78,0 -3.54,0.34 -5.29,1 -1.75,0.67 -3.63,1.59 -5.63,2.75l-4.41 -8.08c2.66,-1.61 5.45,-2.92 8.37,-3.92 2.92,-1 6.01,-1.5 9.29,-1.5 5.33,0 9.4,1.52 12.21,4.54 2.81,3.03 4.21,7.74 4.21,14.13l0 23.67 -10 0 -0.84 -4.25 -0.33 0c-1.78,1.55 -3.64,2.81 -5.58,3.79 -1.95,0.97 -4.09,1.46 -6.42,1.46zm4.17 -9.51c1.39,0 2.58,-0.3 3.58,-0.91 1,-0.61 2.06,-1.47 3.17,-2.58l0 -7.25c-4.34,0.61 -7.34,1.5 -9,2.66 -1.67,1.17 -2.5,2.56 -2.5,4.17 0,1.33 0.43,2.32 1.29,2.96 0.86,0.64 2.01,0.95 3.46,0.95z"/>
  <path id="13" fill="white" fill-rule="nonzero" d="M722.29 186.17c-2.56,0 -4.74,-0.39 -6.54,-1.17 -1.81,-0.78 -3.28,-1.86 -4.42,-3.25 -1.14,-1.39 -1.97,-3.07 -2.5,-5.04 -0.53,-1.98 -0.79,-4.16 -0.79,-6.54l0 -16.75 -5.67 0 0 -9.09 6.33 -0.5 1.42 -11 10.17 0 0 11 9.91 0 0 9.59 -9.91 0 0 16.58c0,2.33 0.48,4.01 1.46,5.04 0.97,1.03 2.26,1.54 3.87,1.54 0.67,0 1.35,-0.08 2.04,-0.25 0.7,-0.16 1.32,-0.36 1.88,-0.58l1.91 8.92c-1.11,0.33 -2.41,0.66 -3.91,0.99 -1.5,0.34 -3.25,0.51 -5.25,0.51z"/>
  <path id="14" fill="white" fill-rule="nonzero" d="M738.29 143.83l12.25 0 0 41.34 -12.25 0 0 -41.34zm6.08 -6.08c-2.06,0 -3.75,-0.6 -5.08,-1.79 -1.34,-1.2 -2,-2.74 -2,-4.63 0,-1.89 0.66,-3.41 2,-4.58 1.33,-1.17 3.02,-1.75 5.08,-1.75 2.11,0 3.82,0.58 5.13,1.75 1.3,1.17 1.95,2.69 1.95,4.58 0,1.89 -0.65,3.43 -1.95,4.63 -1.31,1.19 -3.02,1.79 -5.13,1.79z"/>
  <path id="15" fill="white" fill-rule="nonzero" d="M779.04 186.17c-2.62,0 -5.14,-0.49 -7.59,-1.46 -2.44,-0.98 -4.6,-2.38 -6.46,-4.21 -1.86,-1.83 -3.34,-4.1 -4.45,-6.79 -1.12,-2.7 -1.67,-5.77 -1.67,-9.21 0,-3.45 0.55,-6.51 1.67,-9.21 1.11,-2.69 2.59,-4.96 4.45,-6.79 1.86,-1.83 4.02,-3.24 6.46,-4.21 2.45,-0.97 4.97,-1.46 7.59,-1.46 2.61,0 5.12,0.49 7.54,1.46 2.41,0.97 4.55,2.38 6.41,4.21 1.87,1.83 3.35,4.1 4.46,6.79 1.11,2.7 1.67,5.76 1.67,9.21 0,3.44 -0.56,6.51 -1.67,9.21 -1.11,2.69 -2.59,4.96 -4.46,6.79 -1.86,1.83 -4,3.23 -6.41,4.21 -2.42,0.97 -4.93,1.46 -7.54,1.46zm0 -9.92c2.5,0 4.38,-1.06 5.66,-3.17 1.28,-2.11 1.92,-4.97 1.92,-8.58 0,-3.61 -0.64,-6.47 -1.92,-8.58 -1.28,-2.12 -3.16,-3.17 -5.66,-3.17 -2.56,0 -4.46,1.05 -5.71,3.17 -1.25,2.11 -1.88,4.97 -1.88,8.58 0,3.61 0.63,6.47 1.88,8.58 1.25,2.11 3.15,3.17 5.71,3.17z"/>
  <path id="16" fill="white" fill-rule="nonzero" d="M807.53 143.83l10 0 0.84 5.25 0.33 0c1.78,-1.66 3.72,-3.12 5.83,-4.37 2.11,-1.25 4.59,-1.88 7.42,-1.88 4.5,0 7.76,1.47 9.79,4.42 2.03,2.94 3.04,7.03 3.04,12.25l0 25.67 -12.25 0 0 -24.09c0,-3 -0.4,-5.05 -1.2,-6.16 -0.81,-1.12 -2.1,-1.67 -3.88,-1.67 -1.56,0 -2.89,0.35 -4,1.04 -1.11,0.7 -2.33,1.68 -3.67,2.96l0 27.92 -12.25 0 0 -41.34z"/>
  <g id="_1991234618352">
   <path fill="#FDFDFF" d="M439.13 396.71c5.23,0.09 39.06,-0.98 40.77,0.83 3.83,9.2 2.98,16.64 9.65,24.94l-64.34 0.13 13.92 -25.9zm55.53 -2.41c-2.55,-26.03 17.27,-47.6 40.56,-49.71 61.38,-5.57 67.37,85.13 9.07,90.44 -26.85,2.44 -47.36,-17.51 -49.63,-40.73zm-54.25 -130.36l105.59 -0.15 0.22 66.25c-30.77,-1.7 -38.1,12.89 -45.94,12.87l-59.8 -0.16 -0.07 -78.81zm-13.96 78.93l-26.29 0.11 -0.2 66.8 16.05 0.39c-3.23,5.71 -11.72,20.41 -13.33,26.4 27.41,0.3 54.91,0.12 82.33,0.12 5.85,0 14.71,-1.2 18.88,1.22 4.93,2.87 6.74,4.98 12.98,7.49 47.83,19.23 94.04,-25.13 80.9,-71.69 -6.33,-22.46 -9.96,-10.62 -11.32,-30.65 -10.69,-0.34 -7.36,0.66 -14.51,-4.03 -3.72,-2.44 -7.82,-3.89 -11.72,-6.11l-0.17 -82.78 -133.15 -0.14 -0.45 92.87z"/>
   <polygon fill="#FDFDFF" points="533.07,423.18 546.71,423.14 546.54,382.91 532.92,383.07 "/>
   <polygon fill="#FDFDFF" points="532.98,370.08 546.74,370.06 546.5,356.35 532.97,356.51 "/>
  </g>
 </g>
</svg>
