<?xml version="1.0" encoding="UTF-8"?>
<!DOCTYPE svg PUBLIC "-//W3C//DTD SVG 1.1//EN" "http://www.w3.org/Graphics/SVG/1.1/DTD/svg11.dtd">
<!-- Creator: CorelDRAW X7 -->
<svg xmlns="http://www.w3.org/2000/svg" xml:space="preserve" width="1000px" height="600px" version="1.1" shape-rendering="geometricPrecision" text-rendering="geometricPrecision" image-rendering="optimizeQuality" fill-rule="evenodd" clip-rule="evenodd"
viewBox="0 0 1000 600"
 xmlns:xlink="http://www.w3.org/1999/xlink">
 <g id="Layer_x0020_2">
  <metadata id="CorelCorpID_0Corel-Layer"/>
  <g id="_1991245318528">
   <rect fill="#5EA290" width="1000" height="600" rx="50.37" ry="50"/>
   <rect fill="none" stroke="white" stroke-width="10" x="50" y="50" width="900" height="500" rx="27.2" ry="25"/>
  </g>
 </g>
 <g id="Layer_x0020_1">
  <metadata id="CorelCorpID_1Corel-Layer"/>
  <path fill="white" fill-rule="nonzero" d="M376.46 181.33c-3.72,0 -7.21,-0.6 -10.46,-1.79 -3.25,-1.19 -6.07,-2.96 -8.46,-5.29 -2.38,-2.33 -4.26,-5.24 -5.62,-8.71 -1.36,-3.47 -2.04,-7.48 -2.04,-12.04 0,-4.5 0.69,-8.51 2.08,-12.04 1.39,-3.53 3.29,-6.52 5.71,-8.96 2.42,-2.45 5.23,-4.31 8.46,-5.58 3.22,-1.28 6.64,-1.92 10.25,-1.92 3.94,0 7.33,0.72 10.16,2.17 2.84,1.44 5.14,3.08 6.92,4.91l-6.42 7.84c-1.38,-1.23 -2.86,-2.25 -4.41,-3.09 -1.56,-0.83 -3.5,-1.25 -5.84,-1.25 -2.11,0 -4.04,0.41 -5.79,1.21 -1.75,0.81 -3.26,1.96 -4.54,3.46 -1.28,1.5 -2.26,3.33 -2.96,5.5 -0.69,2.17 -1.04,4.61 -1.04,7.33 0,5.61 1.26,9.96 3.79,13.04 2.53,3.09 6.35,4.63 11.46,4.63 1.11,0 2.19,-0.14 3.25,-0.42 1.06,-0.28 1.92,-0.69 2.58,-1.25l0 -9.33 -9 0 0 -10 19.84 0 0 25c-1.89,1.83 -4.39,3.39 -7.5,4.67 -3.11,1.27 -6.59,1.91 -10.42,1.91z"/>
  <path id="1" fill="white" fill-rule="nonzero" d="M427.96 157.83l-1.25 -5c-0.78,-2.72 -1.53,-5.61 -2.25,-8.66 -0.72,-3.06 -1.45,-6 -2.17,-8.84l-0.33 0c-0.67,2.89 -1.35,5.85 -2.04,8.88 -0.7,3.03 -1.43,5.9 -2.21,8.62l-1.33 5 11.58 0zm2.5 9.59l-16.58 0 -3.34 12.91 -12.5 0 17 -54.33 14.75 0 17 54.33 -13 0 -3.33 -12.91z"/>
  <polygon id="2" fill="white" fill-rule="nonzero" points="457.21,136.33 442.29,136.33 442.29,126 484.46,126 484.46,136.33 469.54,136.33 469.54,180.33 457.21,180.33 "/>
  <polygon id="3" fill="white" fill-rule="nonzero" points="503.54,136.33 488.62,136.33 488.62,126 530.79,126 530.79,136.33 515.87,136.33 515.87,180.33 503.54,180.33 "/>
  <path id="4" fill="white" fill-rule="nonzero" d="M555.96 126l15.33 0c4.17,0 7.92,0.53 11.25,1.58 3.33,1.06 6.19,2.68 8.58,4.88 2.39,2.19 4.22,4.98 5.5,8.37 1.28,3.39 1.92,7.42 1.92,12.09 0,4.66 -0.64,8.72 -1.92,12.16 -1.28,3.45 -3.08,6.29 -5.41,8.54 -2.34,2.25 -5.13,3.93 -8.38,5.05 -3.25,1.11 -6.87,1.66 -10.87,1.66l-16 0 0 -54.33zm14.58 44.42c2.33,0 4.44,-0.31 6.33,-0.92 1.89,-0.61 3.5,-1.6 4.84,-2.96 1.33,-1.36 2.37,-3.15 3.12,-5.37 0.75,-2.23 1.13,-4.98 1.13,-8.25 0,-3.23 -0.38,-5.93 -1.13,-8.13 -0.75,-2.19 -1.79,-3.94 -3.12,-5.25 -1.34,-1.3 -2.95,-2.23 -4.84,-2.79 -1.89,-0.56 -4,-0.83 -6.33,-0.83l-2.33 0 0 34.5 2.33 0z"/>
  <path id="5" fill="white" fill-rule="nonzero" d="M608.87 126l18.59 0c2.83,0 5.45,0.21 7.87,0.62 2.42,0.42 4.53,1.16 6.33,2.21 1.81,1.06 3.23,2.45 4.25,4.17 1.03,1.72 1.54,3.89 1.54,6.5 0,1.22 -0.16,2.44 -0.49,3.67 -0.34,1.22 -0.81,2.36 -1.42,3.41 -0.61,1.06 -1.35,2 -2.21,2.84 -0.86,0.83 -1.85,1.44 -2.96,1.83l0 0.33c1.39,0.34 2.67,0.85 3.84,1.54 1.16,0.7 2.19,1.57 3.08,2.63 0.89,1.05 1.58,2.29 2.08,3.71 0.5,1.41 0.75,3.04 0.75,4.87 0,2.78 -0.54,5.17 -1.62,7.17 -1.09,2 -2.59,3.65 -4.5,4.96 -1.92,1.3 -4.16,2.28 -6.71,2.91 -2.56,0.64 -5.31,0.96 -8.25,0.96l-20.17 0 0 -54.33zm18 21.75c3,0 5.18,-0.58 6.54,-1.75 1.36,-1.17 2.04,-2.72 2.04,-4.67 0,-2.11 -0.69,-3.61 -2.08,-4.5 -1.39,-0.89 -3.53,-1.33 -6.41,-1.33l-5.84 0 0 12.25 5.75 0zm1.17 23.08c6.72,0 10.08,-2.44 10.08,-7.33 0,-2.39 -0.83,-4.1 -2.5,-5.13 -1.67,-1.02 -4.19,-1.54 -7.58,-1.54l-6.92 0 0 14 6.92 0z"/>
  <g id="_1991237119104">
   <g>
    <path fill="#FDFDFF" d="M510.08 401.31l0.01 -2.11 0.01 -3.16 0.01 -3.16 0.06 -18.21 17.9 17.09c-1.95,3.78 -14.25,15.19 -17.84,18.73l-0.15 -9.18zm0.2 -113l18.04 18.37 -18.14 17.71 -0.06 -17.98 -0.02 -3.16 -0.01 -3.16 0.01 -2.12 0.18 -9.66zm-80.61 115.83c2.04,3.82 11.31,13.81 14.93,14.9 0.16,-0.18 0.42,-0.7 0.49,-0.53 0.07,0.16 0.39,-0.43 0.48,-0.54l9.93 -10.16c3.99,-3.87 7.2,-7.09 11.12,-11.03 5.6,-5.63 17.01,-18.2 22.77,-21.9l0.14 72.54 0.3 2.21c4.57,0.33 7.89,1.01 11.15,-1.11 5.22,-7.84 51.46,-49.17 55.7,-56.97l-42.09 -41.93 42.22 -42.86 -57.73 -56.69 -8.56 -0.07 -1.05 74.71 -45.73 -44.81 -13.68 13.64c6.02,5.3 53.05,52.69 54.93,56.1 -3.7,4.7 -9.16,9.5 -13.57,13.98l-38.95 39.07c-1.88,1.35 -0.47,0.76 -2.8,1.45z"/>
   </g>
   <path fill="#FDFDFF" d="M582.93 309.45c4.37,14.61 9.79,21.06 9.76,40.2 -0.04,18.59 -5.33,26.01 -9.77,40.46l11.61 10.75 2.38 -2.38c8.38,-10.93 13.08,-35.84 13.09,-49.87 0.01,-12.9 -6.32,-46.23 -15.94,-51.68l-11.13 12.52z"/>
   <path fill="#FDFDFF" d="M541.81 349.34c4.05,4.16 21.19,20.22 22.71,22.82 6.77,-9.15 5.16,-34.66 0.26,-45.27l-22.97 22.45z"/>
  </g>
 </g>
</svg>
