<?xml version="1.0" encoding="UTF-8"?>
<!DOCTYPE svg PUBLIC "-//W3C//DTD SVG 1.1//EN" "http://www.w3.org/Graphics/SVG/1.1/DTD/svg11.dtd">
<!-- Creator: CorelDRAW X7 -->
<svg xmlns="http://www.w3.org/2000/svg" xml:space="preserve" width="1000px" height="600px" version="1.1" shape-rendering="geometricPrecision" text-rendering="geometricPrecision" image-rendering="optimizeQuality" fill-rule="evenodd" clip-rule="evenodd"
viewBox="0 0 1000 600"
 xmlns:xlink="http://www.w3.org/1999/xlink">
 <g id="Layer_x0020_2">
  <metadata id="CorelCorpID_0Corel-Layer"/>
  <g id="_1991235364688">
   <rect fill="#5EA290" width="1000" height="600" rx="50.37" ry="50"/>
   <rect fill="none" stroke="white" stroke-width="10" x="50" y="50" width="900" height="500" rx="27.2" ry="25"/>
  </g>
 </g>
 <g id="Layer_x0020_1">
  <metadata id="CorelCorpID_1Corel-Layer"/>
  <path fill="white" fill-rule="nonzero" d="M228.26 129.08l18.58 0c2.83,0 5.46,0.21 7.88,0.63 2.41,0.41 4.52,1.15 6.33,2.21 1.8,1.05 3.22,2.44 4.25,4.16 1.03,1.72 1.54,3.89 1.54,6.5 0,1.22 -0.17,2.45 -0.5,3.67 -0.33,1.22 -0.81,2.36 -1.42,3.42 -0.61,1.05 -1.34,2 -2.2,2.83 -0.87,0.83 -1.85,1.44 -2.96,1.83l0 0.34c1.39,0.33 2.66,0.84 3.83,1.54 1.17,0.69 2.19,1.57 3.08,2.62 0.89,1.06 1.59,2.29 2.09,3.71 0.5,1.42 0.75,3.04 0.75,4.88 0,2.77 -0.55,5.16 -1.63,7.16 -1.08,2 -2.58,3.65 -4.5,4.96 -1.92,1.31 -4.15,2.28 -6.71,2.92 -2.55,0.64 -5.3,0.95 -8.25,0.95l-20.16 0 0 -54.33zm18 21.75c3,0 5.18,-0.58 6.54,-1.75 1.36,-1.16 2.04,-2.72 2.04,-4.66 0,-2.12 -0.69,-3.62 -2.08,-4.5 -1.39,-0.89 -3.53,-1.34 -6.42,-1.34l-5.83 0 0 12.25 5.75 0zm1.16 23.09c6.73,0 10.09,-2.45 10.09,-7.34 0,-2.39 -0.84,-4.1 -2.5,-5.12 -1.67,-1.03 -4.2,-1.54 -7.59,-1.54l-6.91 0 0 14 6.91 0z"/>
  <path id="1" fill="white" fill-rule="nonzero" d="M288.92 184.42c-2.11,0 -3.89,-0.34 -5.33,-1.01 -1.45,-0.66 -2.6,-1.59 -3.46,-2.79 -0.86,-1.19 -1.49,-2.64 -1.87,-4.33 -0.39,-1.69 -0.59,-3.6 -0.59,-5.71l0 -45.58 12.25 0 0 46.08c0,1.28 0.24,2.17 0.71,2.67 0.47,0.5 0.96,0.75 1.46,0.75 0.28,0 0.51,0 0.71,0 0.19,0 0.46,-0.06 0.79,-0.17l1.5 9.08c-0.67,0.28 -1.51,0.52 -2.54,0.71 -1.03,0.2 -2.24,0.3 -3.63,0.3z"/>
  <path id="2" fill="white" fill-rule="nonzero" d="M319.25 184.42c-2.61,0 -5.13,-0.49 -7.58,-1.46 -2.44,-0.98 -4.6,-2.38 -6.46,-4.21 -1.86,-1.83 -3.34,-4.1 -4.46,-6.79 -1.11,-2.7 -1.66,-5.77 -1.66,-9.21 0,-3.45 0.55,-6.51 1.66,-9.21 1.12,-2.69 2.6,-4.96 4.46,-6.79 1.86,-1.83 4.02,-3.24 6.46,-4.21 2.45,-0.97 4.97,-1.46 7.58,-1.46 2.62,0 5.13,0.49 7.55,1.46 2.41,0.97 4.55,2.38 6.41,4.21 1.86,1.83 3.35,4.1 4.46,6.79 1.11,2.7 1.67,5.76 1.67,9.21 0,3.44 -0.56,6.51 -1.67,9.21 -1.11,2.69 -2.6,4.96 -4.46,6.79 -1.86,1.83 -4,3.23 -6.41,4.21 -2.42,0.97 -4.93,1.46 -7.55,1.46zm0 -9.92c2.5,0 4.39,-1.06 5.67,-3.17 1.28,-2.11 1.92,-4.97 1.92,-8.58 0,-3.61 -0.64,-6.47 -1.92,-8.58 -1.28,-2.12 -3.17,-3.17 -5.67,-3.17 -2.55,0 -4.45,1.05 -5.7,3.17 -1.25,2.11 -1.88,4.97 -1.88,8.58 0,3.61 0.63,6.47 1.88,8.58 1.25,2.11 3.15,3.17 5.7,3.17z"/>
  <path id="3" fill="white" fill-rule="nonzero" d="M365.5 184.42c-2.61,0 -5.14,-0.49 -7.58,-1.46 -2.44,-0.98 -4.6,-2.38 -6.46,-4.21 -1.86,-1.83 -3.35,-4.1 -4.46,-6.79 -1.11,-2.7 -1.66,-5.77 -1.66,-9.21 0,-3.45 0.55,-6.51 1.66,-9.21 1.11,-2.69 2.6,-4.96 4.46,-6.79 1.86,-1.83 4.02,-3.24 6.46,-4.21 2.44,-0.97 4.97,-1.46 7.58,-1.46 2.61,0 5.13,0.49 7.54,1.46 2.42,0.97 4.56,2.38 6.42,4.21 1.86,1.83 3.35,4.1 4.46,6.79 1.11,2.7 1.67,5.76 1.67,9.21 0,3.44 -0.56,6.51 -1.67,9.21 -1.11,2.69 -2.6,4.96 -4.46,6.79 -1.86,1.83 -4,3.23 -6.42,4.21 -2.41,0.97 -4.93,1.46 -7.54,1.46zm0 -9.92c2.5,0 4.39,-1.06 5.67,-3.17 1.28,-2.11 1.92,-4.97 1.92,-8.58 0,-3.61 -0.64,-6.47 -1.92,-8.58 -1.28,-2.12 -3.17,-3.17 -5.67,-3.17 -2.55,0 -4.46,1.05 -5.71,3.17 -1.24,2.11 -1.87,4.97 -1.87,8.58 0,3.61 0.63,6.47 1.87,8.58 1.25,2.11 3.16,3.17 5.71,3.17z"/>
  <path id="4" fill="white" fill-rule="nonzero" d="M408.75 184.42c-2.55,0 -4.87,-0.51 -6.96,-1.5 -2.08,-1.01 -3.86,-2.44 -5.33,-4.3 -1.47,-1.86 -2.61,-4.12 -3.42,-6.79 -0.8,-2.67 -1.2,-5.69 -1.2,-9.08 0,-3.39 0.48,-6.42 1.45,-9.08 0.98,-2.67 2.25,-4.93 3.84,-6.8 1.58,-1.86 3.41,-3.29 5.5,-4.29 2.08,-1 4.2,-1.5 6.37,-1.5 2.33,0 4.25,0.39 5.75,1.17 1.5,0.78 2.97,1.83 4.42,3.17l-0.5 -6.34 0 -14.08 12.25 0 0 58.41 -10 0 -0.84 -4.08 -0.33 0c-1.44,1.45 -3.14,2.65 -5.08,3.63 -1.95,0.97 -3.92,1.46 -5.92,1.46zm3.17 -10.01c1.33,0 2.54,-0.27 3.62,-0.83 1.09,-0.55 2.13,-1.53 3.13,-2.92l0 -16.91c-1.11,-1 -2.25,-1.7 -3.42,-2.08 -1.16,-0.39 -2.3,-0.59 -3.41,-0.59 -1.95,0 -3.67,0.93 -5.17,2.79 -1.5,1.86 -2.25,4.77 -2.25,8.71 0,4.11 0.65,7.11 1.96,9 1.3,1.89 3.15,2.83 5.54,2.83z"/>
  <path id="5" fill="white" fill-rule="nonzero" d="M459.42 129.08l18.66 0c3,0 5.81,0.29 8.42,0.88 2.61,0.58 4.89,1.55 6.83,2.91 1.95,1.36 3.49,3.17 4.63,5.42 1.14,2.25 1.71,5.01 1.71,8.29 0,3.17 -0.57,5.92 -1.71,8.25 -1.14,2.33 -2.68,4.25 -4.63,5.75 -1.94,1.5 -4.19,2.61 -6.75,3.33 -2.55,0.73 -5.27,1.09 -8.16,1.09l-6.75 0 0 18.41 -12.25 0 0 -54.33zm18.25 26.17c6.66,0 10,-2.89 10,-8.67 0,-2.83 -0.89,-4.83 -2.67,-6 -1.78,-1.16 -4.33,-1.75 -7.67,-1.75l-5.66 0 0 16.42 6 0z"/>
  <path id="6" fill="white" fill-rule="nonzero" d="M508.08 142.08l10 0 0.84 7.25 0.33 0c1.5,-2.83 3.3,-4.91 5.41,-6.25 2.12,-1.33 4.23,-2 6.34,-2 1.16,0 2.12,0.07 2.87,0.21 0.75,0.14 1.43,0.35 2.04,0.63l-1.99 10.58c-0.78,-0.22 -1.5,-0.39 -2.17,-0.5 -0.67,-0.11 -1.45,-0.17 -2.33,-0.17 -1.56,0 -3.19,0.56 -4.88,1.67 -1.69,1.11 -3.1,3.08 -4.21,5.91l0 24 -12.25 0 0 -41.33z"/>
  <path id="7" fill="white" fill-rule="nonzero" d="M558.91 184.42c-2.94,0 -5.69,-0.49 -8.25,-1.46 -2.55,-0.98 -4.77,-2.39 -6.66,-4.25 -1.89,-1.86 -3.36,-4.13 -4.42,-6.79 -1.05,-2.67 -1.58,-5.73 -1.58,-9.17 0,-3.34 0.55,-6.35 1.66,-9.04 1.12,-2.7 2.57,-4.97 4.38,-6.84 1.81,-1.86 3.87,-3.29 6.21,-4.29 2.33,-1 4.75,-1.5 7.25,-1.5 2.94,0 5.51,0.5 7.71,1.5 2.19,1 4.02,2.39 5.5,4.17 1.47,1.78 2.57,3.87 3.29,6.29 0.72,2.42 1.08,5.04 1.08,7.87 0,1.12 -0.06,2.17 -0.17,3.17 -0.11,1 -0.22,1.75 -0.33,2.25l-24.75 0c0.56,3 1.79,5.21 3.71,6.63 1.92,1.41 4.26,2.12 7.04,2.12 2.95,0 5.92,-0.91 8.92,-2.75l4.08 7.42c-2.11,1.44 -4.46,2.58 -7.04,3.41 -2.58,0.84 -5.12,1.26 -7.63,1.26zm5.75 -26.17c0,-2.33 -0.52,-4.22 -1.58,-5.67 -1.05,-1.44 -2.83,-2.16 -5.33,-2.16 -1.95,0 -3.65,0.63 -5.13,1.91 -1.47,1.28 -2.43,3.25 -2.87,5.92l14.91 0z"/>
  <path id="8" fill="white" fill-rule="nonzero" d="M595.75 184.42c-2.73,0 -5.52,-0.53 -8.38,-1.59 -2.86,-1.05 -5.34,-2.44 -7.46,-4.17l5.5 -7.66c1.89,1.44 3.7,2.53 5.42,3.25 1.72,0.72 3.47,1.08 5.25,1.08 1.83,0 3.17,-0.3 4,-0.92 0.83,-0.61 1.25,-1.47 1.25,-2.58 0,-0.66 -0.24,-1.26 -0.71,-1.79 -0.47,-0.53 -1.11,-1.01 -1.91,-1.46 -0.81,-0.44 -1.71,-0.85 -2.71,-1.21 -1,-0.36 -2.03,-0.76 -3.09,-1.21 -1.27,-0.49 -2.55,-1.08 -3.83,-1.74 -1.28,-0.67 -2.44,-1.49 -3.5,-2.46 -1.05,-0.98 -1.92,-2.11 -2.58,-3.42 -0.67,-1.31 -1,-2.82 -1,-4.54 0,-1.89 0.37,-3.64 1.12,-5.25 0.75,-1.61 1.82,-2.97 3.21,-4.08 1.39,-1.12 3.06,-1.99 5,-2.63 1.95,-0.64 4.11,-0.96 6.5,-0.96 3.17,0 5.95,0.54 8.33,1.63 2.39,1.08 4.48,2.29 6.25,3.62l-5.5 7.34c-1.5,-1.12 -2.97,-1.98 -4.41,-2.59 -1.45,-0.61 -2.89,-0.91 -4.34,-0.91 -3.11,0 -4.66,1.08 -4.66,3.25 0,0.66 0.22,1.23 0.66,1.7 0.45,0.48 1.05,0.91 1.8,1.3 0.75,0.38 1.61,0.76 2.58,1.12 0.97,0.36 1.98,0.74 3.04,1.12 1.33,0.51 2.65,1.07 3.96,1.71 1.3,0.64 2.5,1.43 3.58,2.38 1.09,0.94 1.96,2.1 2.63,3.46 0.66,1.36 1,2.98 1,4.87 0,1.89 -0.36,3.64 -1.09,5.25 -0.72,1.61 -1.8,3.02 -3.25,4.21 -1.44,1.19 -3.22,2.14 -5.33,2.83 -2.11,0.7 -4.55,1.05 -7.33,1.05z"/>
  <path id="9" fill="white" fill-rule="nonzero" d="M632.66 184.42c-2.72,0 -5.51,-0.53 -8.37,-1.59 -2.86,-1.05 -5.35,-2.44 -7.46,-4.17l5.5 -7.66c1.89,1.44 3.69,2.53 5.42,3.25 1.72,0.72 3.47,1.08 5.25,1.08 1.83,0 3.16,-0.3 4,-0.92 0.83,-0.61 1.25,-1.47 1.25,-2.58 0,-0.66 -0.24,-1.26 -0.71,-1.79 -0.48,-0.53 -1.11,-1.01 -1.92,-1.46 -0.8,-0.44 -1.71,-0.85 -2.71,-1.21 -1,-0.36 -2.02,-0.76 -3.08,-1.21 -1.28,-0.49 -2.56,-1.08 -3.83,-1.74 -1.28,-0.67 -2.45,-1.49 -3.5,-2.46 -1.06,-0.98 -1.92,-2.11 -2.59,-3.42 -0.66,-1.31 -1,-2.82 -1,-4.54 0,-1.89 0.38,-3.64 1.13,-5.25 0.75,-1.61 1.82,-2.97 3.21,-4.08 1.38,-1.12 3.05,-1.99 5,-2.63 1.94,-0.64 4.11,-0.96 6.5,-0.96 3.16,0 5.94,0.54 8.33,1.63 2.39,1.08 4.47,2.29 6.25,3.62l-5.5 7.34c-1.5,-1.12 -2.97,-1.98 -4.42,-2.59 -1.44,-0.61 -2.89,-0.91 -4.33,-0.91 -3.11,0 -4.67,1.08 -4.67,3.25 0,0.66 0.22,1.23 0.67,1.7 0.44,0.48 1.04,0.91 1.79,1.3 0.75,0.38 1.61,0.76 2.58,1.12 0.98,0.36 1.99,0.74 3.05,1.12 1.33,0.51 2.65,1.07 3.95,1.71 1.31,0.64 2.5,1.43 3.59,2.38 1.08,0.94 1.96,2.1 2.62,3.46 0.67,1.36 1,2.98 1,4.87 0,1.89 -0.36,3.64 -1.08,5.25 -0.72,1.61 -1.81,3.02 -3.25,4.21 -1.45,1.19 -3.22,2.14 -5.33,2.83 -2.12,0.7 -4.56,1.05 -7.34,1.05z"/>
  <path id="10" fill="white" fill-rule="nonzero" d="M669.83 184.42c-4.5,0 -7.77,-1.48 -9.79,-4.42 -2.03,-2.95 -3.05,-7.03 -3.05,-12.25l0 -25.67 12.26 0 0 24.08c0,3 0.41,5.06 1.24,6.17 0.84,1.11 2.14,1.67 3.92,1.67 1.56,0 2.86,-0.36 3.92,-1.09 1.05,-0.72 2.19,-1.88 3.41,-3.49l0 -27.34 12.25 0 0 41.33 -10 0 -0.91 -5.74 -0.25 0c-1.78,2.11 -3.68,3.76 -5.71,4.95 -2.03,1.2 -4.46,1.8 -7.29,1.8z"/>
  <path id="11" fill="white" fill-rule="nonzero" d="M704.74 142.08l10 0 0.84 7.25 0.33 0c1.5,-2.83 3.31,-4.91 5.42,-6.25 2.11,-1.33 4.22,-2 6.33,-2 1.17,0 2.12,0.07 2.87,0.21 0.75,0.14 1.44,0.35 2.05,0.63l-2 10.58c-0.78,-0.22 -1.5,-0.39 -2.17,-0.5 -0.67,-0.11 -1.44,-0.17 -2.33,-0.17 -1.56,0 -3.18,0.56 -4.88,1.67 -1.69,1.11 -3.1,3.08 -4.21,5.91l0 24 -12.25 0 0 -41.33z"/>
  <path id="12" fill="white" fill-rule="nonzero" d="M755.58 184.42c-2.95,0 -5.7,-0.49 -8.25,-1.46 -2.56,-0.98 -4.78,-2.39 -6.67,-4.25 -1.89,-1.86 -3.36,-4.13 -4.42,-6.79 -1.05,-2.67 -1.58,-5.73 -1.58,-9.17 0,-3.34 0.56,-6.35 1.67,-9.04 1.11,-2.7 2.57,-4.97 4.37,-6.84 1.81,-1.86 3.88,-3.29 6.21,-4.29 2.33,-1 4.75,-1.5 7.25,-1.5 2.94,0 5.51,0.5 7.71,1.5 2.19,1 4.03,2.39 5.5,4.17 1.47,1.78 2.57,3.87 3.29,6.29 0.72,2.42 1.08,5.04 1.08,7.87 0,1.12 -0.05,2.17 -0.16,3.17 -0.12,1 -0.23,1.75 -0.34,2.25l-24.75 0c0.56,3 1.8,5.21 3.71,6.63 1.92,1.41 4.27,2.12 7.04,2.12 2.95,0 5.92,-0.91 8.92,-2.75l4.08 7.42c-2.11,1.44 -4.46,2.58 -7.04,3.41 -2.58,0.84 -5.12,1.26 -7.62,1.26zm5.75 -26.17c0,-2.33 -0.53,-4.22 -1.59,-5.67 -1.05,-1.44 -2.83,-2.16 -5.33,-2.16 -1.94,0 -3.65,0.63 -5.13,1.91 -1.47,1.28 -2.43,3.25 -2.87,5.92l14.92 0z"/>
  <g id="_1991235358352">
   <path fill="#FEFEFF" d="M473.46 362.04c-1.22,-5.7 7.68,-5.14 8.62,-0.62 1.05,5.05 -7.9,3.97 -8.62,0.62zm-37.09 13.82c-0.93,0.86 1.37,0.95 -2.8,1.04 -1.03,-1.39 -0.92,0.05 -1.42,-2.41 -0.96,-4.67 -0.14,-1.34 0.41,-2.61 3.04,-7.51 17.27,-13.74 27.05,-14.74 5.69,-0.58 8.21,-0.79 10.51,2.9 -2.58,6.24 -11.13,2 -18.79,5.76 -5.45,2.67 -10.54,8.87 -14.96,10.06zm100.45 -114.18c43.98,-9.56 66.42,39.09 45.88,66.48 -25.52,34.02 -70.8,18.32 -78.46,-13.75 -6.49,-27.13 11.41,-48.12 32.58,-52.73zm-33.58 75.14l-4.48 4.52c-4.73,-2.48 -5.44,-5.18 -9.4,-7.89 4.85,-12.29 -5.76,-12.99 -7.05,-12.53 -1.52,0.53 -11.58,11.03 -12.46,13.12 2.87,5.98 6.73,10.51 12.7,5.25 3.66,3.45 7.79,4.27 9.36,8.75 -2.03,3.56 -1.5,1.2 -3.78,4.38 -9.58,-1.2 -17.89,-8.77 -40.65,-0.48 -5.6,2.03 -11.47,4.87 -16.14,7.89 -10.9,7.05 -30.47,24.6 -31.66,40.27 -1.83,24.22 25.37,50.28 46.87,49.9 12.73,-0.23 26.62,-11.92 31.75,-17.2 11.29,-11.6 22.23,-30.27 22.82,-48.89 0.32,-10.21 -2.57,-13.46 -3.59,-20.98 2.55,-2.07 1.7,-2.32 5.02,-3.89 6.92,5.41 30.23,39.47 41.54,22.58 2.44,-3.63 4.27,-8.43 11.44,-7.94 4.7,0.32 9.77,5.89 11.47,7.97 8.45,10.37 -6.76,18.56 -10.12,22.31l5.62 5.68c2.38,-1.21 12.56,-9.87 14.52,-14.07 7.46,-15.97 -12.21,-31.82 -24.45,-30.69 -9.56,0.89 -12.42,9.66 -18.02,12.51 -3.65,-2.39 -24.05,-21.91 -25.71,-25.35 2.14,-2.46 2.5,-3.14 5.71,-4.79 5.47,2.16 9.65,5.77 16.84,7.94 13.99,4.23 30.11,2.17 42.73,-4.6 29.6,-15.89 35.63,-61.79 10.77,-85.9 -29.67,-28.78 -86.58,-13.33 -91.69,31.73 -2.65,23.31 7.16,31.24 10.04,40.4z"/>
   <path fill="#FEFEFF" d="M516.41 303.02c5.94,3.07 15.77,1.6 23.02,3.21 5.29,1.18 3.57,4.43 8.98,3.84 7.31,-0.79 9.14,-13.4 0.08,-13.86 -4.71,-0.24 -6.29,2.73 -8.79,3.79 -3.99,1.68 -17.69,2.08 -23.29,3.02z"/>
   <path fill="#FEFEFF" d="M583.4 297.16c-1.52,-14.48 -12.98,-29.58 -30.54,-29.75 7.69,3.45 12.11,6.6 17.35,11.96 2.85,2.92 4.65,4.28 7.18,7.83 2.39,3.37 4.27,7.32 6.01,9.96z"/>
   <path fill="#FEFEFF" d="M534.89 327.3c0.47,3.68 1.32,3.93 5.51,3.67l0.16 -4.57c-1.83,-0.38 -4.57,-0.82 -5.67,0.9z"/>
   <path fill="#FEFEFF" d="M567.99 286.49l0.21 -3.53c-0.5,-0.05 0.76,-2.05 -3.39,-0.7 -2.54,0.82 -3.88,6.21 3.18,4.23z"/>
   <path fill="#FEFEFF" d="M542.52 274.78c-1.14,0.59 -2.76,0.49 -0.84,3.1 0.46,0.63 2.25,2.09 3.46,1.53 3.08,-1.41 1.18,-6.61 -2.62,-4.63z"/>
   <path fill="#FEFEFF" d="M521.12 289.04c1.67,2.32 1.49,2.75 5.01,2.63 0.37,-0.94 1.4,1.82 0.63,-2.56 -0.36,-2.01 -0.46,-1.32 -1.18,-2.33 -2.09,-0.31 -3.44,0.63 -4.46,2.26z"/>
   <path fill="#FEFEFF" d="M571.41 308.17c2.61,1.2 4.86,-0.01 4.34,-3 -0.21,-0.16 -0.47,-2.89 -3.9,-0.97 -2.7,1.51 -0.79,3.25 -0.44,3.97z"/>
   <path fill="#FEFEFF" d="M557.96 325.18c0.99,2.19 2.07,3.56 4.53,3.12 1.33,-1.84 1.41,2.37 1.09,-2.24 -0.24,-3.53 -4.77,-3.29 -5.62,-0.88z"/>
   <path fill="#FEFEFF" d="M518.59 310.48c0.63,3.24 0.65,3.16 2.96,4.6 5.73,-3.92 0.99,-5.31 0.98,-5.31l-3.94 0.71z"/>
   <path fill="#99A4BC" d="M436.37 375.86l-3.32 -0.46 -0.49 -3.52c-0.55,1.27 -1.37,-2.06 -0.41,2.61 0.5,2.46 0.39,1.02 1.42,2.41 4.17,-0.09 1.87,-0.18 2.8,-1.04z"/>
  </g>
 </g>
</svg>
