<?xml version="1.0" encoding="UTF-8"?>
<!DOCTYPE svg PUBLIC "-//W3C//DTD SVG 1.1//EN" "http://www.w3.org/Graphics/SVG/1.1/DTD/svg11.dtd">
<!-- Creator: CorelDRAW X7 -->
<svg xmlns="http://www.w3.org/2000/svg" xml:space="preserve" width="1000px" height="600px" version="1.1" shape-rendering="geometricPrecision" text-rendering="geometricPrecision" image-rendering="optimizeQuality" fill-rule="evenodd" clip-rule="evenodd"
viewBox="0 0 1000 600"
 xmlns:xlink="http://www.w3.org/1999/xlink">
 <g id="Layer_x0020_2">
  <metadata id="CorelCorpID_0Corel-Layer"/>
  <g id="_1991237896960">
   <rect fill="#5EA290" width="1000" height="600" rx="50.37" ry="50"/>
   <rect fill="none" stroke="white" stroke-width="10" x="50" y="50" width="900" height="500" rx="27.2" ry="25"/>
  </g>
 </g>
 <g id="Layer_x0020_1">
  <metadata id="CorelCorpID_1Corel-Layer"/>
  <path fill="white" fill-rule="nonzero" d="M189.51 186.17c-3.45,0 -6.7,-0.6 -9.75,-1.8 -3.06,-1.19 -5.74,-2.95 -8.04,-5.29 -2.31,-2.33 -4.13,-5.23 -5.46,-8.71 -1.34,-3.47 -2,-7.48 -2,-12.04 0,-4.5 0.69,-8.51 2.08,-12.04 1.39,-3.53 3.25,-6.51 5.58,-8.96 2.34,-2.44 5.06,-4.3 8.17,-5.58 3.11,-1.28 6.39,-1.92 9.83,-1.92 3.5,0 6.64,0.71 9.42,2.13 2.78,1.41 5.08,3.07 6.92,4.96l-6.5 7.83c-1.39,-1.28 -2.85,-2.32 -4.38,-3.13 -1.53,-0.8 -3.26,-1.2 -5.21,-1.2 -1.83,0 -3.57,0.4 -5.2,1.2 -1.64,0.81 -3.06,1.96 -4.25,3.46 -1.2,1.5 -2.14,3.34 -2.84,5.5 -0.69,2.17 -1.04,4.61 -1.04,7.34 0,5.61 1.19,9.95 3.58,13.04 2.39,3.08 5.59,4.62 9.59,4.62 2.22,0 4.21,-0.48 5.96,-1.46 1.75,-0.97 3.29,-2.18 4.62,-3.62l6.5 7.66c-4.56,5.34 -10.42,8.01 -17.58,8.01z"/>
  <path id="1" fill="white" fill-rule="nonzero" d="M238.34 162.67l-1.25 -5c-0.78,-2.73 -1.53,-5.61 -2.25,-8.67 -0.72,-3.06 -1.45,-6 -2.17,-8.83l-0.33 0c-0.67,2.89 -1.35,5.84 -2.04,8.87 -0.7,3.03 -1.43,5.9 -2.21,8.63l-1.33 5 11.58 0zm2.5 9.58l-16.58 0 -3.34 12.92 -12.5 0 17 -54.34 14.75 0 17 54.34 -13 0 -3.33 -12.92z"/>
  <path id="2" fill="white" fill-rule="nonzero" d="M263.09 130.83l18.66 0c3,0 5.81,0.29 8.42,0.88 2.61,0.58 4.89,1.55 6.83,2.91 1.95,1.37 3.49,3.17 4.63,5.42 1.14,2.25 1.71,5.01 1.71,8.29 0,3.17 -0.57,5.92 -1.71,8.25 -1.14,2.34 -2.68,4.25 -4.63,5.75 -1.94,1.5 -4.19,2.61 -6.75,3.34 -2.55,0.72 -5.27,1.08 -8.16,1.08l-6.75 0 0 18.42 -12.25 0 0 -54.34zm18.25 26.17c6.66,0 10,-2.89 10,-8.67 0,-2.83 -0.89,-4.83 -2.67,-6 -1.78,-1.16 -4.33,-1.75 -7.67,-1.75l-5.66 0 0 16.42 6 0z"/>
  <path id="3" fill="white" fill-rule="nonzero" d="M328.5 186.17c-3.55,0 -7.09,-0.66 -10.62,-1.96 -3.53,-1.31 -6.68,-3.27 -9.46,-5.88l7 -8.41c1.94,1.66 4.1,3.02 6.46,4.08 2.36,1.05 4.68,1.58 6.96,1.58 2.55,0 4.46,-0.47 5.71,-1.41 1.24,-0.95 1.87,-2.23 1.87,-3.84 0,-0.83 -0.18,-1.55 -0.54,-2.16 -0.36,-0.62 -0.89,-1.16 -1.59,-1.63 -0.69,-0.47 -1.52,-0.92 -2.49,-1.33 -0.98,-0.42 -2.05,-0.88 -3.21,-1.38l-7.09 -3c-1.39,-0.55 -2.73,-1.28 -4.04,-2.16 -1.3,-0.89 -2.47,-1.94 -3.5,-3.13 -1.03,-1.19 -1.85,-2.58 -2.46,-4.17 -0.61,-1.58 -0.91,-3.37 -0.91,-5.37 0,-2.22 0.47,-4.32 1.41,-6.29 0.95,-1.97 2.28,-3.7 4,-5.17 1.73,-1.47 3.77,-2.62 6.13,-3.46 2.36,-0.83 4.96,-1.25 7.79,-1.25 3.17,0 6.29,0.61 9.38,1.84 3.08,1.22 5.79,3 8.12,5.33l-6.25 7.75c-1.78,-1.39 -3.56,-2.46 -5.33,-3.21 -1.78,-0.75 -3.75,-1.12 -5.92,-1.12 -2.11,0 -3.79,0.43 -5.04,1.29 -1.25,0.86 -1.88,2.07 -1.88,3.62 0,0.84 0.21,1.54 0.63,2.13 0.42,0.58 1,1.11 1.75,1.58 0.75,0.47 1.62,0.92 2.62,1.33 1,0.42 2.09,0.88 3.25,1.38l7 2.83c3.34,1.34 5.96,3.17 7.88,5.5 1.92,2.34 2.87,5.42 2.87,9.25 0,2.28 -0.46,4.43 -1.37,6.46 -0.92,2.03 -2.25,3.81 -4,5.33 -1.75,1.53 -3.9,2.75 -6.46,3.67 -2.56,0.92 -5.44,1.38 -8.67,1.38z"/>
  <polygon id="4" fill="white" fill-rule="nonzero" points="358.25,130.83 392.25,130.83 392.25,141.17 370.5,141.17 370.5,152.08 389,152.08 389,162.33 370.5,162.33 370.5,174.83 393.09,174.83 393.09,185.17 358.25,185.17 "/>
  <path id="5" fill="white" fill-rule="nonzero" d="M403.92 130.83l12.58 0 14.17 27 5.33 12 0.33 0c-0.27,-2.89 -0.59,-6.11 -0.95,-9.66 -0.36,-3.56 -0.55,-6.95 -0.55,-10.17l0 -19.17 11.67 0 0 54.34 -12.58 0 -14.17 -27.09 -5.33 -11.83 -0.33 0c0.27,3 0.59,6.22 0.95,9.67 0.36,3.44 0.55,6.77 0.55,10l0 19.25 -11.67 0 0 -54.34z"/>
  <path id="6" fill="white" fill-rule="nonzero" d="M475.92 186.17c-3.56,0 -7.1,-0.66 -10.63,-1.96 -3.53,-1.31 -6.68,-3.27 -9.46,-5.88l7 -8.41c1.95,1.66 4.1,3.02 6.46,4.08 2.36,1.05 4.68,1.58 6.96,1.58 2.56,0 4.46,-0.47 5.71,-1.41 1.25,-0.95 1.87,-2.23 1.87,-3.84 0,-0.83 -0.18,-1.55 -0.54,-2.16 -0.36,-0.62 -0.89,-1.16 -1.58,-1.63 -0.7,-0.47 -1.53,-0.92 -2.5,-1.33 -0.97,-0.42 -2.04,-0.88 -3.21,-1.38l-7.08 -3c-1.39,-0.55 -2.74,-1.28 -4.04,-2.16 -1.31,-0.89 -2.48,-1.94 -3.5,-3.13 -1.03,-1.19 -1.85,-2.58 -2.46,-4.17 -0.61,-1.58 -0.92,-3.37 -0.92,-5.37 0,-2.22 0.47,-4.32 1.42,-6.29 0.94,-1.97 2.28,-3.7 4,-5.17 1.72,-1.47 3.76,-2.62 6.12,-3.46 2.36,-0.83 4.96,-1.25 7.79,-1.25 3.17,0 6.3,0.61 9.38,1.84 3.08,1.22 5.79,3 8.12,5.33l-6.25 7.75c-1.77,-1.39 -3.55,-2.46 -5.33,-3.21 -1.78,-0.75 -3.75,-1.12 -5.92,-1.12 -2.11,0 -3.79,0.43 -5.04,1.29 -1.25,0.86 -1.87,2.07 -1.87,3.62 0,0.84 0.21,1.54 0.62,2.13 0.42,0.58 1,1.11 1.75,1.58 0.75,0.47 1.63,0.92 2.63,1.33 1,0.42 2.08,0.88 3.25,1.38l7 2.83c3.33,1.34 5.95,3.17 7.87,5.5 1.92,2.34 2.88,5.42 2.88,9.25 0,2.28 -0.46,4.43 -1.38,6.46 -0.91,2.03 -2.25,3.81 -4,5.33 -1.75,1.53 -3.9,2.75 -6.46,3.67 -2.55,0.92 -5.44,1.38 -8.66,1.38z"/>
  <polygon id="7" fill="white" fill-rule="nonzero" points="505.67,130.83 539.67,130.83 539.67,141.17 517.92,141.17 517.92,152.08 536.42,152.08 536.42,162.33 517.92,162.33 517.92,174.83 540.5,174.83 540.5,185.17 505.67,185.17 "/>
  <path id="8" fill="white" fill-rule="nonzero" d="M552.5 136.08l-7.25 0 0 -7.25 22.42 0 0 7.25 -7.25 0 0 18.92 -7.92 0 0 -18.92zm18.75 -7.25l9 0 3.25 8.25 1.83 5.5 0.34 0 1.91 -5.5 3.17 -8.25 9.08 0 0 26.17 -7.33 0 0 -8 0.91 -9.58 -0.33 0 -4.75 13.75 -5.66 0 -4.67 -13.75 -0.33 0 0.91 9.58 0 8 -7.33 0 0 -26.17z"/>
  <path id="9" fill="white" fill-rule="nonzero" d="M641.41 186.17c-3.55,0 -7.09,-0.66 -10.62,-1.96 -3.53,-1.31 -6.68,-3.27 -9.46,-5.88l7 -8.41c1.95,1.66 4.1,3.02 6.46,4.08 2.36,1.05 4.68,1.58 6.96,1.58 2.55,0 4.46,-0.47 5.71,-1.41 1.25,-0.95 1.87,-2.23 1.87,-3.84 0,-0.83 -0.18,-1.55 -0.54,-2.16 -0.36,-0.62 -0.89,-1.16 -1.58,-1.63 -0.7,-0.47 -1.53,-0.92 -2.5,-1.33 -0.98,-0.42 -2.05,-0.88 -3.21,-1.38l-7.09 -3c-1.38,-0.55 -2.73,-1.28 -4.04,-2.16 -1.3,-0.89 -2.47,-1.94 -3.5,-3.13 -1.02,-1.19 -1.84,-2.58 -2.45,-4.17 -0.62,-1.58 -0.92,-3.37 -0.92,-5.37 0,-2.22 0.47,-4.32 1.41,-6.29 0.95,-1.97 2.28,-3.7 4.01,-5.17 1.72,-1.47 3.76,-2.62 6.12,-3.46 2.36,-0.83 4.96,-1.25 7.79,-1.25 3.17,0 6.29,0.61 9.38,1.84 3.08,1.22 5.79,3 8.12,5.33l-6.25 7.75c-1.78,-1.39 -3.55,-2.46 -5.33,-3.21 -1.78,-0.75 -3.75,-1.12 -5.92,-1.12 -2.11,0 -3.79,0.43 -5.04,1.29 -1.25,0.86 -1.88,2.07 -1.88,3.62 0,0.84 0.21,1.54 0.63,2.13 0.42,0.58 1,1.11 1.75,1.58 0.75,0.47 1.62,0.92 2.63,1.33 0.99,0.42 2.08,0.88 3.24,1.38l7 2.83c3.34,1.34 5.96,3.17 7.88,5.5 1.92,2.34 2.87,5.42 2.87,9.25 0,2.28 -0.45,4.43 -1.37,6.46 -0.92,2.03 -2.25,3.81 -4,5.33 -1.75,1.53 -3.9,2.75 -6.46,3.67 -2.55,0.92 -5.44,1.38 -8.67,1.38z"/>
  <path id="10" fill="white" fill-rule="nonzero" d="M681.41 186.17c-2.11,0 -3.89,-0.34 -5.33,-1 -1.44,-0.67 -2.6,-1.6 -3.46,-2.8 -0.86,-1.19 -1.48,-2.64 -1.87,-4.33 -0.39,-1.69 -0.59,-3.6 -0.59,-5.71l0 -45.58 12.25 0 0 46.08c0,1.28 0.24,2.17 0.71,2.67 0.47,0.5 0.96,0.75 1.46,0.75 0.28,0 0.51,0 0.71,0 0.19,0 0.46,-0.06 0.79,-0.17l1.5 9.09c-0.67,0.27 -1.51,0.51 -2.54,0.7 -1.03,0.2 -2.24,0.3 -3.63,0.3z"/>
  <path id="11" fill="white" fill-rule="nonzero" d="M694 143.83l12.25 0 0 41.34 -12.25 0 0 -41.34zm6.08 -6.08c-2.06,0 -3.75,-0.6 -5.08,-1.79 -1.34,-1.2 -2,-2.74 -2,-4.63 0,-1.89 0.66,-3.41 2,-4.58 1.33,-1.17 3.02,-1.75 5.08,-1.75 2.11,0 3.82,0.58 5.12,1.75 1.31,1.17 1.96,2.69 1.96,4.58 0,1.89 -0.65,3.43 -1.96,4.63 -1.3,1.19 -3.01,1.79 -5.12,1.79z"/>
  <path id="12" fill="white" fill-rule="nonzero" d="M731.75 186.17c-2.56,0 -4.88,-0.51 -6.96,-1.5 -2.09,-1 -3.86,-2.44 -5.34,-4.3 -1.47,-1.86 -2.61,-4.12 -3.41,-6.79 -0.81,-2.66 -1.21,-5.69 -1.21,-9.08 0,-3.39 0.49,-6.42 1.46,-9.08 0.97,-2.67 2.25,-4.93 3.83,-6.8 1.58,-1.86 3.42,-3.29 5.5,-4.29 2.08,-1 4.21,-1.5 6.38,-1.5 2.33,0 4.25,0.39 5.75,1.17 1.5,0.78 2.97,1.83 4.41,3.17l-0.5 -6.34 0 -14.08 12.25 0 0 58.42 -10 0 -0.83 -4.09 -0.33 0c-1.45,1.45 -3.14,2.65 -5.09,3.63 -1.94,0.97 -3.91,1.46 -5.91,1.46zm3.16 -10c1.34,0 2.54,-0.28 3.63,-0.84 1.08,-0.55 2.12,-1.53 3.12,-2.91l0 -16.92c-1.11,-1 -2.25,-1.7 -3.41,-2.08 -1.17,-0.39 -2.31,-0.59 -3.42,-0.59 -1.95,0 -3.67,0.93 -5.17,2.79 -1.5,1.86 -2.25,4.77 -2.25,8.71 0,4.11 0.66,7.11 1.96,9 1.31,1.89 3.15,2.84 5.54,2.84z"/>
  <path id="13" fill="white" fill-rule="nonzero" d="M783.24 186.17c-2.94,0 -5.69,-0.49 -8.25,-1.46 -2.55,-0.98 -4.77,-2.39 -6.66,-4.25 -1.89,-1.86 -3.36,-4.13 -4.42,-6.79 -1.05,-2.67 -1.58,-5.73 -1.58,-9.17 0,-3.33 0.55,-6.35 1.66,-9.04 1.12,-2.7 2.57,-4.97 4.38,-6.84 1.81,-1.86 3.87,-3.29 6.21,-4.29 2.33,-1 4.75,-1.5 7.25,-1.5 2.94,0 5.51,0.5 7.71,1.5 2.19,1 4.02,2.39 5.49,4.17 1.48,1.78 2.57,3.87 3.3,6.29 0.72,2.42 1.08,5.04 1.08,7.88 0,1.11 -0.06,2.16 -0.17,3.16 -0.11,1 -0.22,1.75 -0.33,2.25l-24.75 0c0.56,3 1.79,5.21 3.71,6.63 1.92,1.41 4.26,2.12 7.04,2.12 2.94,0 5.92,-0.91 8.92,-2.75l4.08 7.42c-2.11,1.44 -4.46,2.58 -7.04,3.41 -2.58,0.84 -5.13,1.26 -7.63,1.26zm5.75 -26.17c0,-2.33 -0.52,-4.22 -1.58,-5.67 -1.06,-1.44 -2.83,-2.16 -5.33,-2.16 -1.95,0 -3.65,0.64 -5.13,1.91 -1.47,1.28 -2.43,3.25 -2.87,5.92l14.91 0z"/>
  <path id="14" fill="white" fill-rule="nonzero" d="M807.91 143.83l10 0 0.83 7.25 0.34 0c1.5,-2.83 3.3,-4.91 5.41,-6.25 2.11,-1.33 4.23,-2 6.34,-2 1.16,0 2.12,0.07 2.87,0.21 0.75,0.14 1.43,0.35 2.04,0.63l-2 10.58c-0.78,-0.22 -1.5,-0.39 -2.16,-0.5 -0.67,-0.11 -1.45,-0.17 -2.34,-0.17 -1.55,0 -3.18,0.56 -4.87,1.67 -1.7,1.11 -3.1,3.08 -4.21,5.92l0 24 -12.25 0 0 -41.34z"/>
  <g id="_1991237895104">
   <path fill="#FEFEFE" d="M514.35 346.66c2.86,-0.54 1.63,-0.06 3.24,-1.87l6.67 -10.27c3.29,-3.93 10.45,-6.85 14.45,-1.17 4.99,7.09 -6.34,27.1 -6.76,36.54 4.73,-2.55 10.62,-14.4 13.81,-18.92 4.57,-6.48 12.26,-12.69 18.93,-3.31 1.13,11.69 -4.78,19.03 -5.32,29.11 6.66,-2.65 14.25,-24.67 24.05,-21.21 7.02,5.14 4.32,14.79 2.97,24.11 -1.22,8.49 -2.9,16.93 -4.52,25.51 -1.55,8.19 -3.01,15.75 -5.31,23.67 -3.6,12.4 -9,12.02 -22.13,12.01 -8.8,-0.01 -17.04,-1.32 -26.01,-1.21 -6.65,0.09 -19.67,2 -24.9,-0.1 -7.65,-3.07 -17.96,-22.19 -22.59,-31.39 -6.85,-13.59 -18.5,-53.1 -14.98,-65.03 2.24,-7.61 18.07,-9.47 19.23,-2.31l1.31 43.98 8.17 0.31c0.63,-12.04 -0.69,-25.44 -0.69,-37.44l0 -39.47c-0.58,-8.81 0.03,-18.01 0.42,-24.58l19.96 63.04zm-19.96 -63.04c0.51,-8.75 0.89,-13.84 10.03,-13.96 8.74,-0.13 10.39,4.81 10.61,12.95 0.19,6.87 0.64,16.91 -0.18,25.6l-0.5 38.45 -19.96 -63.04zm-43.53 22.57c1.26,-2.79 6.2,-10.02 8.21,-12.92 14.15,-20.32 6.58,-11.67 -8.61,-39.64l83.96 0.44c2.77,2.49 6.68,9.32 9.42,13.15 10.41,14.53 12.26,9.73 -9.42,39l-10.45 -0.1c-1.15,-9.82 0.61,-21.21 -0.93,-31.18 -1.28,-8.29 -8.84,-13.87 -18.62,-13.78 -24.23,0.24 -16.61,25.26 -19.52,45.06l-34.04 -0.03zm11.88 -25.52c-3.86,6.36 -17.95,25.37 -19.38,29.5l41.74 0.1 -0.13 18.94c-18.35,-2.54 -29.49,2.54 -27.78,22.48 1.28,14.96 4.38,30.16 8.93,43.24 4.12,11.84 10.72,24.53 17.28,34.76 7.41,11.57 13.18,20.59 32.02,19.07 16.27,-1.31 38.16,2.31 51.89,-0.11 15.29,-2.69 17.47,-16.38 20.72,-31.33 2.52,-11.62 13.67,-55.63 4.63,-65.9 -3.95,-4.49 -11.7,-5.52 -18.24,-2.8 -3.24,-4.41 -1.21,-8.2 -8.81,-12.14 -6.27,-3.25 -10.57,-2.73 -16.87,-0.19 -2.93,-13.84 -11.35,-17.57 -25.36,-12.58l0.66 -13.48 13.78 -0.13c4.22,-9.48 17.9,-24.96 19.46,-30.6l-20.79 -29.5 -93.74 0 19.99 30.67z"/>
   <path fill="#FEFEFE" d="M552.53 253.68l84.46 0.33 17.29 25.66c-2.87,7.32 -13.18,19.96 -17.86,26.55l-83.51 0c2.35,-4.92 15.78,-22.49 16.03,-25.75 0.21,-2.64 -6.01,-11.11 -7.8,-13.52 -1.97,-2.66 -7.46,-12.21 -8.61,-13.27zm12.55 26.92c-3.32,4.8 -6.92,9.51 -10.24,14.48l-9.46 15.11 94.72 0.17c1.92,-7.6 14.04,-21.51 19.12,-29.57 -2.43,-5.7 -6.04,-10.62 -10.04,-15.87l-9.03 -13.05c-1.3,-1.54 -0.01,-0.46 -1.7,-1.78l-93.68 -0.08 20.31 30.59z"/>
   <path fill="#FEFEFE" d="M348.35 253.54l84.56 0.51c2.96,4.24 5.57,8.53 8.56,12.57 3.31,4.5 5.22,8.34 8.66,13.05 -1.08,2.68 -16.05,25.66 -17.69,26.24l-83.67 0.39c2.3,-5.75 15.63,-21.51 15.85,-25.68 0.18,-3.33 -9.23,-15.94 -12.09,-20.03 -1.19,-1.71 -3.61,-6.43 -4.18,-7.05zm7.82 19.38c2.12,2.98 3.66,4.01 4.62,7.75l-9.71 14.68c-1.7,2.52 -3.24,4.43 -5.03,6.93 -1.27,1.79 -1.48,1.99 -2.41,3.6l-1.74 4.26 93.87 -0.09c1.46,-3.36 7.38,-12.17 9.69,-15.38 12.34,-17.17 12.15,-12.47 -0.76,-30.26 -2.11,-2.92 -2.62,-4.19 -4.7,-7.33 -0.76,-1.16 -1.52,-2.45 -2.37,-3.59l-3.18 -3.44 -93.67 -0.01 15.39 22.88z"/>
  </g>
 </g>
</svg>
