<?xml version="1.0" encoding="UTF-8"?>
<!DOCTYPE svg PUBLIC "-//W3C//DTD SVG 1.1//EN" "http://www.w3.org/Graphics/SVG/1.1/DTD/svg11.dtd">
<!-- Creator: CorelDRAW X7 -->
<svg xmlns="http://www.w3.org/2000/svg" xml:space="preserve" width="1000px" height="600px" version="1.1" shape-rendering="geometricPrecision" text-rendering="geometricPrecision" image-rendering="optimizeQuality" fill-rule="evenodd" clip-rule="evenodd"
viewBox="0 0 1000 600"
 xmlns:xlink="http://www.w3.org/1999/xlink">
 <g id="Layer_x0020_2">
  <metadata id="CorelCorpID_0Corel-Layer"/>
  <g id="_1991237901472">
   <rect fill="#5EA290" width="1000" height="600" rx="50.37" ry="50"/>
   <rect fill="none" stroke="white" stroke-width="10" x="50" y="50" width="900" height="500" rx="27.2" ry="25"/>
  </g>
 </g>
 <g id="Layer_x0020_1">
  <metadata id="CorelCorpID_1Corel-Layer"/>
  <path fill="white" fill-rule="nonzero" d="M117.84 186.17c-3.44,0 -6.69,-0.6 -9.75,-1.8 -3.05,-1.19 -5.73,-2.95 -8.04,-5.29 -2.31,-2.33 -4.12,-5.23 -5.46,-8.71 -1.33,-3.47 -2,-7.48 -2,-12.04 0,-4.5 0.7,-8.51 2.08,-12.04 1.39,-3.53 3.26,-6.51 5.59,-8.96 2.33,-2.44 5.05,-4.3 8.17,-5.58 3.11,-1.28 6.38,-1.92 9.83,-1.92 3.5,0 6.64,0.71 9.41,2.13 2.78,1.41 5.09,3.07 6.92,4.96l-6.5 7.83c-1.39,-1.28 -2.85,-2.32 -4.37,-3.13 -1.53,-0.8 -3.27,-1.2 -5.21,-1.2 -1.83,0 -3.57,0.4 -5.21,1.2 -1.64,0.81 -3.06,1.96 -4.25,3.46 -1.19,1.5 -2.14,3.34 -2.83,5.5 -0.7,2.17 -1.05,4.61 -1.05,7.34 0,5.61 1.2,9.95 3.59,13.04 2.39,3.08 5.58,4.62 9.58,4.62 2.22,0 4.21,-0.48 5.96,-1.46 1.75,-0.97 3.29,-2.18 4.62,-3.62l6.5 7.66c-4.55,5.34 -10.41,8.01 -17.58,8.01z"/>
  <path id="1" fill="white" fill-rule="nonzero" d="M166.67 162.67l-1.25 -5c-0.77,-2.73 -1.52,-5.61 -2.25,-8.67 -0.72,-3.06 -1.44,-6 -2.16,-8.83l-0.34 0c-0.66,2.89 -1.34,5.84 -2.04,8.87 -0.69,3.03 -1.43,5.9 -2.21,8.63l-1.33 5 11.58 0zm2.5 9.58l-16.58 0 -3.33 12.92 -12.5 0 17 -54.34 14.75 0 17 54.34 -13 0 -3.34 -12.92z"/>
  <path id="2" fill="white" fill-rule="nonzero" d="M191.42 130.83l18.67 0c3,0 5.8,0.29 8.42,0.88 2.61,0.58 4.88,1.55 6.83,2.91 1.94,1.37 3.48,3.17 4.62,5.42 1.14,2.25 1.71,5.01 1.71,8.29 0,3.17 -0.57,5.92 -1.71,8.25 -1.14,2.34 -2.68,4.25 -4.62,5.75 -1.95,1.5 -4.2,2.61 -6.75,3.34 -2.56,0.72 -5.28,1.08 -8.17,1.08l-6.75 0 0 18.42 -12.25 0 0 -54.34zm18.25 26.17c6.67,0 10,-2.89 10,-8.67 0,-2.83 -0.89,-4.83 -2.66,-6 -1.78,-1.16 -4.34,-1.75 -7.67,-1.75l-5.67 0 0 16.42 6 0z"/>
  <path id="3" fill="white" fill-rule="nonzero" d="M256.84 186.17c-3.56,0 -7.1,-0.66 -10.63,-1.96 -3.53,-1.31 -6.68,-3.27 -9.46,-5.88l7 -8.41c1.95,1.66 4.1,3.02 6.46,4.08 2.36,1.05 4.68,1.58 6.96,1.58 2.56,0 4.46,-0.47 5.71,-1.41 1.25,-0.95 1.87,-2.23 1.87,-3.84 0,-0.83 -0.18,-1.55 -0.54,-2.16 -0.36,-0.62 -0.89,-1.16 -1.58,-1.63 -0.7,-0.47 -1.53,-0.92 -2.5,-1.33 -0.97,-0.42 -2.04,-0.88 -3.21,-1.38l-7.08 -3c-1.39,-0.55 -2.74,-1.28 -4.04,-2.16 -1.31,-0.89 -2.48,-1.94 -3.5,-3.13 -1.03,-1.19 -1.85,-2.58 -2.46,-4.17 -0.61,-1.58 -0.92,-3.37 -0.92,-5.37 0,-2.22 0.47,-4.32 1.42,-6.29 0.94,-1.97 2.28,-3.7 4,-5.17 1.72,-1.47 3.76,-2.62 6.12,-3.46 2.36,-0.83 4.96,-1.25 7.79,-1.25 3.17,0 6.3,0.61 9.38,1.84 3.08,1.22 5.79,3 8.12,5.33l-6.25 7.75c-1.77,-1.39 -3.55,-2.46 -5.33,-3.21 -1.78,-0.75 -3.75,-1.12 -5.92,-1.12 -2.11,0 -3.79,0.43 -5.04,1.29 -1.25,0.86 -1.87,2.07 -1.87,3.62 0,0.84 0.21,1.54 0.62,2.13 0.42,0.58 1,1.11 1.75,1.58 0.75,0.47 1.63,0.92 2.63,1.33 1,0.42 2.08,0.88 3.25,1.38l7 2.83c3.33,1.34 5.96,3.17 7.87,5.5 1.92,2.34 2.88,5.42 2.88,9.25 0,2.28 -0.46,4.43 -1.38,6.46 -0.91,2.03 -2.25,3.81 -4,5.33 -1.75,1.53 -3.9,2.75 -6.46,3.67 -2.55,0.92 -5.44,1.38 -8.66,1.38z"/>
  <polygon id="4" fill="white" fill-rule="nonzero" points="286.59,130.83 320.59,130.83 320.59,141.17 298.84,141.17 298.84,152.08 317.34,152.08 317.34,162.33 298.84,162.33 298.84,174.83 321.42,174.83 321.42,185.17 286.59,185.17 "/>
  <path id="5" fill="white" fill-rule="nonzero" d="M332.25 130.83l12.59 0 14.16 27 5.34 12 0.33 0c-0.28,-2.89 -0.6,-6.11 -0.96,-9.66 -0.36,-3.56 -0.54,-6.95 -0.54,-10.17l0 -19.17 11.67 0 0 54.34 -12.59 0 -14.16 -27.09 -5.34 -11.83 -0.33 0c0.28,3 0.6,6.22 0.96,9.67 0.36,3.44 0.54,6.77 0.54,10l0 19.25 -11.67 0 0 -54.34z"/>
  <path id="6" fill="white" fill-rule="nonzero" d="M404.25 186.17c-3.55,0 -7.1,-0.66 -10.62,-1.96 -3.53,-1.31 -6.68,-3.27 -9.46,-5.88l7 -8.41c1.94,1.66 4.1,3.02 6.46,4.08 2.36,1.05 4.68,1.58 6.95,1.58 2.56,0 4.46,-0.47 5.71,-1.41 1.25,-0.95 1.88,-2.23 1.88,-3.84 0,-0.83 -0.18,-1.55 -0.54,-2.16 -0.37,-0.62 -0.89,-1.16 -1.59,-1.63 -0.69,-0.47 -1.52,-0.92 -2.5,-1.33 -0.97,-0.42 -2.04,-0.88 -3.21,-1.38l-7.08 -3c-1.39,-0.55 -2.73,-1.28 -4.04,-2.16 -1.31,-0.89 -2.47,-1.94 -3.5,-3.13 -1.03,-1.19 -1.85,-2.58 -2.46,-4.17 -0.61,-1.58 -0.91,-3.37 -0.91,-5.37 0,-2.22 0.47,-4.32 1.41,-6.29 0.95,-1.97 2.28,-3.7 4,-5.17 1.72,-1.47 3.76,-2.62 6.13,-3.46 2.36,-0.83 4.95,-1.25 7.79,-1.25 3.16,0 6.29,0.61 9.37,1.84 3.09,1.22 5.79,3 8.13,5.33l-6.25 7.75c-1.78,-1.39 -3.56,-2.46 -5.34,-3.21 -1.77,-0.75 -3.75,-1.12 -5.91,-1.12 -2.11,0 -3.79,0.43 -5.04,1.29 -1.25,0.86 -1.88,2.07 -1.88,3.62 0,0.84 0.21,1.54 0.63,2.13 0.41,0.58 1,1.11 1.75,1.58 0.75,0.47 1.62,0.92 2.62,1.33 1,0.42 2.08,0.88 3.25,1.38l7 2.83c3.33,1.34 5.96,3.17 7.88,5.5 1.91,2.34 2.87,5.42 2.87,9.25 0,2.28 -0.46,4.43 -1.37,6.46 -0.92,2.03 -2.25,3.81 -4,5.33 -1.75,1.53 -3.91,2.75 -6.46,3.67 -2.56,0.92 -5.45,1.38 -8.67,1.38z"/>
  <polygon id="7" fill="white" fill-rule="nonzero" points="434,130.83 468,130.83 468,141.17 446.25,141.17 446.25,152.08 464.75,152.08 464.75,162.33 446.25,162.33 446.25,174.83 468.83,174.83 468.83,185.17 434,185.17 "/>
  <path id="8" fill="white" fill-rule="nonzero" d="M480.83 136.08l-7.25 0 0 -7.25 22.42 0 0 7.25 -7.25 0 0 18.92 -7.92 0 0 -18.92zm18.75 -7.25l9 0 3.25 8.25 1.84 5.5 0.33 0 1.92 -5.5 3.16 -8.25 9.09 0 0 26.17 -7.34 0 0 -8 0.92 -9.58 -0.33 0 -4.75 13.75 -5.67 0 -4.67 -13.75 -0.33 0 0.92 9.58 0 8 -7.34 0 0 -26.17z"/>
  <path id="9" fill="white" fill-rule="nonzero" d="M553.17 130.83l18.66 0c3,0 5.81,0.29 8.42,0.88 2.61,0.58 4.89,1.55 6.83,2.91 1.95,1.37 3.49,3.17 4.63,5.42 1.14,2.25 1.7,5.01 1.7,8.29 0,3.17 -0.56,5.92 -1.7,8.25 -1.14,2.34 -2.68,4.25 -4.63,5.75 -1.94,1.5 -4.19,2.61 -6.75,3.34 -2.55,0.72 -5.28,1.08 -8.16,1.08l-6.75 0 0 18.42 -12.25 0 0 -54.34zm18.25 26.17c6.66,0 9.99,-2.89 9.99,-8.67 0,-2.83 -0.88,-4.83 -2.66,-6 -1.78,-1.16 -4.33,-1.75 -7.67,-1.75l-5.66 0 0 16.42 6 0z"/>
  <path id="10" fill="white" fill-rule="nonzero" d="M601.83 143.83l10 0 0.83 7.25 0.34 0c1.5,-2.83 3.3,-4.91 5.41,-6.25 2.12,-1.33 4.23,-2 6.34,-2 1.16,0 2.12,0.07 2.87,0.21 0.75,0.14 1.43,0.35 2.04,0.63l-2 10.58c-0.77,-0.22 -1.5,-0.39 -2.16,-0.5 -0.67,-0.11 -1.45,-0.17 -2.34,-0.17 -1.55,0 -3.18,0.56 -4.87,1.67 -1.7,1.11 -3.1,3.08 -4.21,5.92l0 24 -12.25 0 0 -41.34z"/>
  <path id="11" fill="white" fill-rule="nonzero" d="M651.91 186.17c-2.61,0 -5.14,-0.49 -7.58,-1.46 -2.44,-0.98 -4.6,-2.38 -6.46,-4.21 -1.86,-1.83 -3.34,-4.1 -4.46,-6.79 -1.11,-2.7 -1.66,-5.77 -1.66,-9.21 0,-3.45 0.55,-6.51 1.66,-9.21 1.12,-2.69 2.6,-4.96 4.46,-6.79 1.86,-1.83 4.02,-3.24 6.46,-4.21 2.44,-0.97 4.97,-1.46 7.58,-1.46 2.61,0 5.13,0.49 7.54,1.46 2.42,0.97 4.56,2.38 6.42,4.21 1.86,1.83 3.35,4.1 4.46,6.79 1.11,2.7 1.67,5.76 1.67,9.21 0,3.44 -0.56,6.51 -1.67,9.21 -1.11,2.69 -2.6,4.96 -4.46,6.79 -1.86,1.83 -4,3.23 -6.42,4.21 -2.41,0.97 -4.93,1.46 -7.54,1.46zm0 -9.92c2.5,0 4.39,-1.06 5.67,-3.17 1.28,-2.11 1.92,-4.97 1.92,-8.58 0,-3.61 -0.64,-6.47 -1.92,-8.58 -1.28,-2.12 -3.17,-3.17 -5.67,-3.17 -2.55,0 -4.46,1.05 -5.7,3.17 -1.25,2.11 -1.88,4.97 -1.88,8.58 0,3.61 0.63,6.47 1.88,8.58 1.24,2.11 3.15,3.17 5.7,3.17z"/>
  <path id="12" fill="white" fill-rule="nonzero" d="M686.66 163.67l-11.91 -19.84 13.16 0 3.67 6.67c0.55,1.17 1.12,2.35 1.71,3.54 0.58,1.19 1.18,2.38 1.79,3.54l0.33 0c0.45,-1.16 0.92,-2.35 1.42,-3.54 0.5,-1.19 0.97,-2.37 1.42,-3.54l2.83 -6.67 12.67 0 -12 21.25 12.75 20.09 -13.17 0 -4 -6.84c-0.67,-1.16 -1.32,-2.36 -1.96,-3.58 -0.64,-1.22 -1.29,-2.42 -1.96,-3.58l-0.33 0c-0.5,1.16 -1.03,2.34 -1.58,3.54 -0.56,1.19 -1.09,2.4 -1.59,3.62l-3.25 6.84 -12.66 0 12.66 -21.5z"/>
  <path id="13" fill="white" fill-rule="nonzero" d="M721.08 143.83l12.25 0 0 41.34 -12.25 0 0 -41.34zm6.08 -6.08c-2.05,0 -3.75,-0.6 -5.08,-1.79 -1.33,-1.2 -2,-2.74 -2,-4.63 0,-1.89 0.67,-3.41 2,-4.58 1.33,-1.17 3.03,-1.75 5.08,-1.75 2.11,0 3.82,0.58 5.13,1.75 1.3,1.17 1.96,2.69 1.96,4.58 0,1.89 -0.66,3.43 -1.96,4.63 -1.31,1.19 -3.02,1.79 -5.13,1.79z"/>
  <path id="14" fill="white" fill-rule="nonzero" d="M744.08 143.83l10 0 0.83 5.34 0.33 0c1.73,-1.73 3.56,-3.21 5.51,-4.46 1.94,-1.25 4.27,-1.88 6.99,-1.88 2.95,0 5.32,0.6 7.13,1.79 1.8,1.2 3.24,2.91 4.29,5.13 1.83,-1.89 3.77,-3.51 5.79,-4.88 2.03,-1.36 4.43,-2.04 7.21,-2.04 4.45,0 7.71,1.49 9.79,4.46 2.09,2.97 3.13,7.04 3.13,12.21l0 25.67 -12.25 0 0 -24.09c0,-3 -0.41,-5.05 -1.21,-6.16 -0.81,-1.12 -2.1,-1.67 -3.88,-1.67 -2.05,0 -4.41,1.33 -7.08,4l0 27.92 -12.25 0 0 -24.09c0,-3 -0.4,-5.05 -1.21,-6.16 -0.8,-1.12 -2.09,-1.67 -3.87,-1.67 -2.11,0 -4.45,1.33 -7,4l0 27.92 -12.25 0 0 -41.34z"/>
  <path id="15" fill="white" fill-rule="nonzero" d="M815.49 143.83l12.25 0 0 41.34 -12.25 0 0 -41.34zm6.09 -6.08c-2.06,0 -3.75,-0.6 -5.09,-1.79 -1.33,-1.2 -2,-2.74 -2,-4.63 0,-1.89 0.67,-3.41 2,-4.58 1.34,-1.17 3.03,-1.75 5.09,-1.75 2.11,0 3.82,0.58 5.12,1.75 1.31,1.17 1.96,2.69 1.96,4.58 0,1.89 -0.65,3.43 -1.96,4.63 -1.3,1.19 -3.01,1.79 -5.12,1.79z"/>
  <path id="16" fill="white" fill-rule="nonzero" d="M854.41 186.17c-2.56,0 -4.74,-0.39 -6.54,-1.17 -1.81,-0.78 -3.28,-1.86 -4.42,-3.25 -1.14,-1.39 -1.97,-3.07 -2.5,-5.04 -0.53,-1.98 -0.79,-4.16 -0.79,-6.54l0 -16.75 -5.67 0 0 -9.09 6.34 -0.5 1.41 -11 10.17 0 0 11 9.92 0 0 9.59 -9.92 0 0 16.58c0,2.33 0.49,4.01 1.46,5.04 0.97,1.03 2.26,1.54 3.87,1.54 0.67,0 1.35,-0.08 2.05,-0.25 0.69,-0.16 1.31,-0.36 1.87,-0.58l1.92 8.92c-1.11,0.33 -2.42,0.66 -3.92,0.99 -1.5,0.34 -3.25,0.51 -5.25,0.51z"/>
  <path id="17" fill="white" fill-rule="nonzero" d="M874.99 201.33c-1.27,0 -2.36,-0.07 -3.25,-0.21 -0.89,-0.14 -1.75,-0.34 -2.58,-0.62l2.17 -9.33c0.38,0.11 0.83,0.22 1.33,0.33 0.5,0.11 0.97,0.16 1.42,0.16 2.05,0 3.63,-0.49 4.75,-1.5 1.11,-0.99 1.94,-2.3 2.5,-3.91l0.58 -2.17 -15.92 -40.25 12.34 0 5.91 17.75c0.61,1.89 1.17,3.81 1.67,5.75 0.5,1.95 1.03,3.95 1.58,6l0.34 0c0.44,-1.94 0.9,-3.9 1.37,-5.87 0.47,-1.98 0.96,-3.93 1.46,-5.88l5 -17.75 11.75 0 -14.33 41.75c-1,2.61 -2.05,4.9 -3.13,6.88 -1.08,1.97 -2.33,3.61 -3.75,4.91 -1.42,1.31 -3.03,2.29 -4.83,2.96 -1.81,0.67 -3.93,1 -6.38,1z"/>
  <g id="_1991237897632">
   <path fill="#FEFEFE" d="M376.23 289.57c-22.61,4.44 -65.34,-2.65 -68.14,5.27 -3.73,10.54 5.06,10.16 12.8,9.98 19.79,-0.46 129.2,-3.41 145.65,0.56 10.01,2.42 15.08,26.4 -6.33,27.37 -15.8,0.71 -90.79,-2.34 -96.51,0.04 0.59,6.56 6.38,5.08 17.64,14.3 8.15,6.67 16.42,30.7 -24.76,16.75 -4.82,-1.63 -8.65,-2.78 -12.65,-4.13 -5.03,-1.7 -8.12,-3.96 -12.8,-2.02 -0.11,3.87 -1.55,1.12 2.35,4.38 6.74,5.64 33.67,16.61 35.57,29.14 4.21,27.9 -39.09,2.68 -49.42,5.19 3.41,10.04 37.78,20.15 30.75,36.25 -5.95,13.61 -106.35,-11.24 -112.14,-14.83 -14.87,-9.22 -7.32,-40.62 -7.12,-59.48 0.31,-28.93 -8.04,-39.18 11.7,-53.54 28.73,-20.89 60.98,-34.22 97.17,-39.45 22.83,-3.29 46.26,-7.84 36.24,24.22zm-158.66 55.13c0.01,70.22 -14.04,84.72 56.86,96.3 18.53,3.03 35.12,7.82 56.05,8.78 26.99,1.24 36.44,-4.76 32.5,-31.4 8.12,-4.32 11.75,-4.09 16.74,-12.26 4.3,-7.05 4.09,-16.45 0.51,-24.03 19.3,-5.24 23.7,-15.69 18.14,-35.89l50.84 0.14c16.59,0 38.33,0.57 38.28,-27.57 -0.06,-33.55 -34.4,-28.74 -65.58,-28.74l-31.21 -0.08c0.66,-13.76 3.68,-20.32 -4.74,-30.72 -6.86,-8.47 -14.59,-9.99 -29.55,-8.94 -44.58,3.13 -81.13,15.89 -115.67,40.11 -27.47,19.25 -23.17,22.19 -23.17,54.3z"/>
   <polygon fill="#FEFEFE" points="727.65,261.46 727.69,449.81 783.54,450 783.55,251.53 727.67,251.45 "/>
   <polygon fill="#FEFEFE" points="677.09,308.15 640.5,308.15 640.5,332.87 677.09,332.87 677.09,344.88 694.06,333.06 709.72,320.13 677.09,293.97 "/>
   <polygon fill="#FEFEFE" points="501.86,319.24 534.45,344.56 534.45,333.3 571.13,333.3 571.13,308.37 534.45,308.37 534.45,294.7 "/>
   <polygon fill="#FEFEFE" points="588.88,332.72 624.6,332.72 624.6,308.24 588.88,308.24 "/>
  </g>
 </g>
</svg>
