<?xml version="1.0" encoding="UTF-8"?>
<!DOCTYPE svg PUBLIC "-//W3C//DTD SVG 1.1//EN" "http://www.w3.org/Graphics/SVG/1.1/DTD/svg11.dtd">
<!-- Creator: CorelDRAW X7 -->
<svg xmlns="http://www.w3.org/2000/svg" xml:space="preserve" width="1000px" height="600px" version="1.1" shape-rendering="geometricPrecision" text-rendering="geometricPrecision" image-rendering="optimizeQuality" fill-rule="evenodd" clip-rule="evenodd"
viewBox="0 0 1000 600"
 xmlns:xlink="http://www.w3.org/1999/xlink">
 <g id="Layer_x0020_2">
  <metadata id="CorelCorpID_0Corel-Layer"/>
  <g id="_1992666953744">
   <rect fill="#5EA290" width="1000" height="600" rx="50.37" ry="50"/>
   <rect fill="none" stroke="white" stroke-width="10" x="50" y="50" width="900" height="500" rx="27.2" ry="25"/>
  </g>
 </g>
 <g id="Layer_x0020_1">
  <metadata id="CorelCorpID_1Corel-Layer"/>
  <polygon fill="white" fill-rule="nonzero" points="309.5,125 321.75,125 321.75,145.92 340.5,145.92 340.5,125 352.84,125 352.84,179.33 340.5,179.33 340.5,156.67 321.75,156.67 321.75,179.33 309.5,179.33 "/>
  <path id="1" fill="white" fill-rule="nonzero" d="M383.17 180.33c-2.95,0 -5.7,-0.48 -8.25,-1.46 -2.56,-0.97 -4.78,-2.39 -6.67,-4.25 -1.89,-1.86 -3.36,-4.12 -4.41,-6.79 -1.06,-2.66 -1.59,-5.72 -1.59,-9.16 0,-3.34 0.56,-6.35 1.67,-9.05 1.11,-2.69 2.57,-4.97 4.37,-6.83 1.81,-1.86 3.88,-3.29 6.21,-4.29 2.34,-1 4.75,-1.5 7.25,-1.5 2.95,0 5.52,0.5 7.71,1.5 2.2,1 4.03,2.39 5.5,4.17 1.47,1.77 2.57,3.87 3.29,6.29 0.72,2.41 1.08,5.04 1.08,7.87 0,1.11 -0.05,2.17 -0.16,3.17 -0.11,1 -0.22,1.75 -0.34,2.25l-24.74 0c0.55,3 1.79,5.21 3.7,6.62 1.92,1.42 4.27,2.13 7.05,2.13 2.94,0 5.91,-0.92 8.91,-2.75l4.09 7.42c-2.12,1.44 -4.46,2.58 -7.05,3.41 -2.58,0.84 -5.12,1.25 -7.62,1.25zm5.75 -26.16c0,-2.34 -0.53,-4.23 -1.58,-5.67 -1.06,-1.45 -2.84,-2.17 -5.34,-2.17 -1.94,0 -3.65,0.64 -5.12,1.92 -1.47,1.28 -2.43,3.25 -2.88,5.92l14.92 0z"/>
  <path id="2" fill="white" fill-rule="nonzero" d="M417.33 180.33c-1.88,0 -3.59,-0.32 -5.12,-0.96 -1.53,-0.64 -2.82,-1.52 -3.88,-2.66 -1.05,-1.14 -1.87,-2.46 -2.45,-3.96 -0.59,-1.5 -0.88,-3.14 -0.88,-4.92 0,-4.33 1.83,-7.72 5.5,-10.16 3.67,-2.45 9.59,-4.09 17.75,-4.92 -0.11,-1.83 -0.65,-3.29 -1.62,-4.38 -0.98,-1.08 -2.6,-1.62 -4.88,-1.62 -1.78,0 -3.54,0.33 -5.29,1 -1.75,0.67 -3.63,1.58 -5.63,2.75l-4.41 -8.08c2.66,-1.61 5.46,-2.92 8.37,-3.92 2.92,-1 6.02,-1.5 9.29,-1.5 5.34,0 9.41,1.51 12.21,4.54 2.81,3.03 4.21,7.74 4.21,14.13l0 23.66 -10 0 -0.83 -4.25 -0.34 0c-1.77,1.56 -3.63,2.82 -5.58,3.79 -1.94,0.98 -4.08,1.46 -6.42,1.46zm4.17 -9.5c1.39,0 2.58,-0.3 3.58,-0.92 1,-0.61 2.06,-1.47 3.17,-2.58l0 -7.25c-4.33,0.61 -7.33,1.5 -9,2.67 -1.67,1.17 -2.5,2.55 -2.5,4.16 0,1.34 0.43,2.32 1.29,2.96 0.86,0.64 2.02,0.96 3.46,0.96z"/>
  <path id="3" fill="white" fill-rule="nonzero" d="M450.83 138l10 0 0.84 7.25 0.33 0c1.5,-2.83 3.31,-4.92 5.42,-6.25 2.11,-1.33 4.22,-2 6.33,-2 1.17,0 2.12,0.07 2.87,0.21 0.75,0.14 1.44,0.34 2.05,0.62l-2 10.59c-0.78,-0.23 -1.5,-0.39 -2.17,-0.5 -0.67,-0.12 -1.44,-0.17 -2.33,-0.17 -1.56,0 -3.18,0.55 -4.88,1.67 -1.69,1.11 -3.1,3.08 -4.21,5.91l0 24 -12.25 0 0 -41.33z"/>
  <path id="4" fill="white" fill-rule="nonzero" d="M499.92 180.33c-2.56,0 -4.74,-0.39 -6.55,-1.16 -1.8,-0.78 -3.27,-1.87 -4.41,-3.26 -1.14,-1.38 -1.97,-3.06 -2.5,-5.04 -0.53,-1.97 -0.79,-4.15 -0.79,-6.54l0 -16.75 -5.67 0 0 -9.08 6.33 -0.5 1.42 -11 10.17 0 0 11 9.91 0 0 9.58 -9.91 0 0 16.59c0,2.33 0.48,4.01 1.45,5.04 0.98,1.02 2.27,1.54 3.88,1.54 0.67,0 1.35,-0.09 2.04,-0.25 0.7,-0.17 1.32,-0.36 1.88,-0.59l1.91 8.92c-1.11,0.34 -2.41,0.67 -3.91,1 -1.5,0.34 -3.25,0.5 -5.25,0.5z"/>
  <path id="5" fill="white" fill-rule="nonzero" d="M545.83 150l6.33 0c3.23,0 5.69,-0.68 7.38,-2.04 1.69,-1.36 2.54,-3.38 2.54,-6.04 0,-2.67 -0.85,-4.53 -2.54,-5.59 -1.69,-1.05 -4.15,-1.58 -7.38,-1.58l-6.33 0 0 15.25zm17.17 29.33l-10.42 -19.58 -6.75 0 0 19.58 -12.25 0 0 -54.33 19.59 0c2.88,0 5.59,0.28 8.12,0.83 2.53,0.56 4.74,1.49 6.62,2.79 1.89,1.31 3.39,3.05 4.5,5.21 1.12,2.17 1.67,4.86 1.67,8.09 0,4 -0.87,7.29 -2.62,9.87 -1.75,2.58 -4.1,4.51 -7.04,5.79l12.33 21.75 -13.75 0z"/>
  <path id="6" fill="white" fill-rule="nonzero" d="M593.41 180.33c-1.89,0 -3.59,-0.32 -5.12,-0.96 -1.53,-0.64 -2.82,-1.52 -3.88,-2.66 -1.05,-1.14 -1.87,-2.46 -2.45,-3.96 -0.59,-1.5 -0.88,-3.14 -0.88,-4.92 0,-4.33 1.83,-7.72 5.5,-10.16 3.67,-2.45 9.58,-4.09 17.75,-4.92 -0.11,-1.83 -0.65,-3.29 -1.62,-4.38 -0.98,-1.08 -2.6,-1.62 -4.88,-1.62 -1.78,0 -3.54,0.33 -5.29,1 -1.75,0.67 -3.63,1.58 -5.63,2.75l-4.41 -8.08c2.66,-1.61 5.46,-2.92 8.37,-3.92 2.92,-1 6.02,-1.5 9.29,-1.5 5.34,0 9.41,1.51 12.21,4.54 2.81,3.03 4.21,7.74 4.21,14.13l0 23.66 -10 0 -0.83 -4.25 -0.34 0c-1.77,1.56 -3.64,2.82 -5.58,3.79 -1.94,0.98 -4.08,1.46 -6.42,1.46zm4.17 -9.5c1.39,0 2.58,-0.3 3.58,-0.92 1,-0.61 2.06,-1.47 3.17,-2.58l0 -7.25c-4.33,0.61 -7.33,1.5 -9,2.67 -1.67,1.17 -2.5,2.55 -2.5,4.16 0,1.34 0.43,2.32 1.29,2.96 0.86,0.64 2.02,0.96 3.46,0.96z"/>
  <path id="7" fill="white" fill-rule="nonzero" d="M641.33 180.33c-2.56,0 -4.74,-0.39 -6.54,-1.16 -1.81,-0.78 -3.28,-1.87 -4.42,-3.26 -1.14,-1.38 -1.97,-3.06 -2.5,-5.04 -0.53,-1.97 -0.79,-4.15 -0.79,-6.54l0 -16.75 -5.67 0 0 -9.08 6.34 -0.5 1.41 -11 10.17 0 0 11 9.92 0 0 9.58 -9.92 0 0 16.59c0,2.33 0.49,4.01 1.46,5.04 0.97,1.02 2.26,1.54 3.87,1.54 0.67,0 1.35,-0.09 2.04,-0.25 0.7,-0.17 1.32,-0.36 1.88,-0.59l1.92 8.92c-1.12,0.34 -2.42,0.67 -3.92,1 -1.5,0.34 -3.25,0.5 -5.25,0.5z"/>
  <path id="8" fill="white" fill-rule="nonzero" d="M674.33 180.33c-2.95,0 -5.7,-0.48 -8.25,-1.46 -2.56,-0.97 -4.78,-2.39 -6.67,-4.25 -1.89,-1.86 -3.36,-4.12 -4.41,-6.79 -1.06,-2.66 -1.59,-5.72 -1.59,-9.16 0,-3.34 0.56,-6.35 1.67,-9.05 1.11,-2.69 2.57,-4.97 4.37,-6.83 1.81,-1.86 3.88,-3.29 6.21,-4.29 2.34,-1 4.75,-1.5 7.25,-1.5 2.95,0 5.52,0.5 7.71,1.5 2.19,1 4.03,2.39 5.5,4.17 1.47,1.77 2.57,3.87 3.29,6.29 0.72,2.41 1.08,5.04 1.08,7.87 0,1.11 -0.05,2.17 -0.16,3.17 -0.11,1 -0.22,1.75 -0.34,2.25l-24.74 0c0.55,3 1.79,5.21 3.7,6.62 1.92,1.42 4.27,2.13 7.05,2.13 2.94,0 5.91,-0.92 8.91,-2.75l4.09 7.42c-2.12,1.44 -4.46,2.58 -7.05,3.41 -2.58,0.84 -5.12,1.25 -7.62,1.25zm5.75 -26.16c0,-2.34 -0.53,-4.23 -1.58,-5.67 -1.06,-1.45 -2.84,-2.17 -5.34,-2.17 -1.94,0 -3.65,0.64 -5.12,1.92 -1.47,1.28 -2.43,3.25 -2.88,5.92l14.92 0z"/>
  <g id="_1992666959888">
   <path fill="white" d="M492.58 438.36l0.37 1.65c1.65,0.19 1.04,-0.23 1.37,1.71 1.84,1.24 4.16,5.94 4.93,8.28 1.78,-1.32 0.36,0.02 1.76,-1.65 2.7,-3.22 1.99,-4.84 4.66,-6.63 0.33,-1.94 -0.28,-1.52 1.37,-1.71l0.37 -1.65c2.99,-5.75 7.78,-11.28 11.96,-15.89 15.4,-16.95 7.72,-10.91 28.5,-27.77 24.03,-19.48 62.56,-33.25 68.22,-72.53 7.61,-52.79 -46,-86.66 -87.89,-65.66 -18.82,9.44 -19.52,17.42 -28.47,27.19 -11.3,-20.28 -39.05,-42.51 -74.94,-30.13 -3.72,1.29 -6.53,2.57 -9.66,4.4 -9.3,5.46 -15.38,11.43 -21.88,20.24 -7.9,10.69 -12.06,29.11 -9.14,44.94 5.83,31.57 30.69,46.6 52.33,60.14 2.89,1.81 5.17,3.99 8.04,5.96 2.6,1.78 5.64,3.75 8.31,5.8l15.16 12.95c4.63,4.18 21.18,23.71 24.63,30.36z"/>
   <polygon fill="#5EA290" points="413.84,326.1 509.29,326.1 515.02,311.76 517.21,311.8 525.15,334.09 529.82,321.09 532,321.05 540.16,341.56 552.17,308.53 554.39,308.62 558.92,326.1 586.16,326.1 585.95,328.39 556.95,328.39 553.11,312.75 541.3,345.23 539.13,345.26 530.97,324.77 526.24,337.94 524.04,337.94 516.04,315.49 510.66,328.39 413.64,328.39 "/>
  </g>
 </g>
</svg>
