<?xml version="1.0" encoding="UTF-8"?>
<!DOCTYPE svg PUBLIC "-//W3C//DTD SVG 1.1//EN" "http://www.w3.org/Graphics/SVG/1.1/DTD/svg11.dtd">
<!-- Creator: CorelDRAW X7 -->
<svg xmlns="http://www.w3.org/2000/svg" xml:space="preserve" width="24px" height="24px" version="1.1" shape-rendering="geometricPrecision" text-rendering="geometricPrecision" image-rendering="optimizeQuality" fill-rule="evenodd" clip-rule="evenodd"
viewBox="0 0 24 24"
 xmlns:xlink="http://www.w3.org/1999/xlink">
 <g id="Layer_x0020_1">
  <metadata id="CorelCorpID_0Corel-Layer"/>
  <path id="icon_chart.svg" fill="#5EA290" d="M21.33 0l-18.66 0c-1.47,0 -2.67,1.2 -2.67,2.67l0 18.66c0,1.47 1.2,2.67 2.67,2.67l18.66 0c1.47,0 2.67,-1.2 2.67,-2.67l0 -18.66c0,-1.47 -1.2,-2.67 -2.67,-2.67zm-13.33 18.67l-2.67 0 0 -9.34 2.67 0 0 9.34zm5.33 0l-2.66 0 0 -13.34 2.66 0 0 13.34zm5.34 0l-2.67 0 0 -5.34 2.67 0 0 5.34z"/>
 </g>
</svg>
