<?xml version="1.0" encoding="UTF-8"?>
<!DOCTYPE svg PUBLIC "-//W3C//DTD SVG 1.1//EN" "http://www.w3.org/Graphics/SVG/1.1/DTD/svg11.dtd">
<!-- Creator: CorelDRAW X7 -->
<svg xmlns="http://www.w3.org/2000/svg" xml:space="preserve" width="1000px" height="600px" version="1.1" shape-rendering="geometricPrecision" text-rendering="geometricPrecision" image-rendering="optimizeQuality" fill-rule="evenodd" clip-rule="evenodd"
viewBox="0 0 1000 600"
 xmlns:xlink="http://www.w3.org/1999/xlink">
 <g id="Layer_x0020_2">
  <metadata id="CorelCorpID_0Corel-Layer"/>
  <g id="_1992667236080">
   <rect fill="#5EA290" width="1000" height="600" rx="50.37" ry="50"/>
   <rect fill="none" stroke="white" stroke-width="10" x="50" y="50" width="900" height="500" rx="27.2" ry="25"/>
  </g>
 </g>
 <g id="Layer_x0020_1">
  <metadata id="CorelCorpID_1Corel-Layer"/>
  <path fill="white" fill-rule="nonzero" d="M307.46 182.33c-3.44,0 -6.69,-0.59 -9.75,-1.79 -3.05,-1.19 -5.73,-2.96 -8.04,-5.29 -2.3,-2.33 -4.12,-5.24 -5.46,-8.71 -1.33,-3.47 -2,-7.48 -2,-12.04 0,-4.5 0.7,-8.51 2.09,-12.04 1.39,-3.53 3.25,-6.52 5.58,-8.96 2.33,-2.44 5.06,-4.31 8.17,-5.58 3.11,-1.28 6.39,-1.92 9.83,-1.92 3.5,0 6.64,0.71 9.42,2.12 2.77,1.42 5.08,3.07 6.91,4.96l-6.5 7.84c-1.39,-1.28 -2.84,-2.32 -4.37,-3.13 -1.53,-0.8 -3.27,-1.21 -5.21,-1.21 -1.83,0 -3.57,0.41 -5.21,1.21 -1.64,0.81 -3.05,1.96 -4.25,3.46 -1.19,1.5 -2.14,3.33 -2.83,5.5 -0.7,2.17 -1.04,4.61 -1.04,7.33 0,5.61 1.19,9.96 3.58,13.04 2.39,3.09 5.58,4.63 9.58,4.63 2.22,0 4.21,-0.49 5.96,-1.46 1.75,-0.97 3.29,-2.18 4.63,-3.62l6.5 7.66c-4.56,5.34 -10.42,8 -17.59,8z"/>
  <path id="1" fill="white" fill-rule="nonzero" d="M356.3 158.83l-1.26 -5c-0.77,-2.72 -1.52,-5.61 -2.25,-8.66 -0.72,-3.06 -1.44,-6 -2.16,-8.84l-0.33 0c-0.67,2.89 -1.35,5.85 -2.05,8.88 -0.69,3.03 -1.43,5.9 -2.21,8.62l-1.33 5 11.59 0zm2.49 9.59l-16.58 0 -3.33 12.91 -12.5 0 17 -54.33 14.75 0 17 54.33 -13 0 -3.34 -12.91z"/>
  <path id="2" fill="white" fill-rule="nonzero" d="M381.04 127l18.67 0c3,0 5.81,0.29 8.42,0.88 2.61,0.58 4.89,1.55 6.83,2.91 1.94,1.36 3.49,3.17 4.62,5.42 1.14,2.25 1.71,5.01 1.71,8.29 0,3.17 -0.57,5.92 -1.71,8.25 -1.13,2.33 -2.68,4.25 -4.62,5.75 -1.94,1.5 -4.19,2.61 -6.75,3.33 -2.56,0.73 -5.28,1.09 -8.17,1.09l-6.75 0 0 18.41 -12.25 0 0 -54.33zm18.25 26.17c6.67,0 10,-2.89 10,-8.67 0,-2.83 -0.89,-4.83 -2.66,-6 -1.78,-1.17 -4.34,-1.75 -7.67,-1.75l-5.67 0 0 16.42 6 0z"/>
  <path id="3" fill="white" fill-rule="nonzero" d="M446.46 182.33c-3.56,0 -7.1,-0.65 -10.63,-1.96 -3.52,-1.3 -6.68,-3.26 -9.45,-5.87l7 -8.42c1.94,1.67 4.09,3.03 6.45,4.09 2.37,1.05 4.69,1.58 6.96,1.58 2.56,0 4.46,-0.47 5.71,-1.42 1.25,-0.94 1.88,-2.22 1.88,-3.83 0,-0.83 -0.18,-1.56 -0.55,-2.17 -0.36,-0.61 -0.89,-1.15 -1.58,-1.62 -0.69,-0.47 -1.53,-0.92 -2.5,-1.34 -0.97,-0.41 -2.04,-0.87 -3.21,-1.37l-7.08 -3c-1.39,-0.56 -2.74,-1.28 -4.04,-2.17 -1.31,-0.89 -2.47,-1.93 -3.5,-3.12 -1.03,-1.2 -1.85,-2.59 -2.46,-4.17 -0.61,-1.58 -0.92,-3.37 -0.92,-5.37 0,-2.23 0.48,-4.32 1.42,-6.29 0.94,-1.98 2.28,-3.7 4,-5.17 1.72,-1.47 3.76,-2.63 6.12,-3.46 2.37,-0.83 4.96,-1.25 7.8,-1.25 3.16,0 6.29,0.61 9.37,1.83 3.08,1.23 5.79,3 8.13,5.34l-6.25 7.75c-1.78,-1.39 -3.56,-2.46 -5.34,-3.21 -1.77,-0.75 -3.75,-1.13 -5.91,-1.13 -2.12,0 -3.8,0.43 -5.05,1.29 -1.25,0.87 -1.87,2.07 -1.87,3.63 0,0.83 0.21,1.54 0.62,2.12 0.42,0.59 1,1.12 1.75,1.59 0.75,0.47 1.63,0.91 2.63,1.33 1,0.42 2.08,0.88 3.25,1.38l7 2.83c3.33,1.33 5.96,3.17 7.87,5.5 1.92,2.33 2.88,5.42 2.88,9.25 0,2.28 -0.46,4.43 -1.38,6.46 -0.91,2.02 -2.25,3.8 -4,5.33 -1.75,1.53 -3.9,2.75 -6.45,3.67 -2.56,0.91 -5.45,1.37 -8.67,1.37z"/>
  <polygon id="4" fill="white" fill-rule="nonzero" points="476.21,127 510.21,127 510.21,137.33 488.46,137.33 488.46,148.25 506.96,148.25 506.96,158.5 488.46,158.5 488.46,171 511.04,171 511.04,181.33 476.21,181.33 "/>
  <path id="5" fill="white" fill-rule="nonzero" d="M521.88 127l12.58 0 14.16 27 5.34 12 0.33 0c-0.28,-2.89 -0.6,-6.11 -0.96,-9.67 -0.36,-3.55 -0.54,-6.94 -0.54,-10.16l0 -19.17 11.67 0 0 54.33 -12.59 0 -14.16 -27.08 -5.34 -11.83 -0.33 0c0.28,3 0.6,6.22 0.96,9.66 0.36,3.45 0.54,6.78 0.54,10l0 19.25 -11.66 0 0 -54.33z"/>
  <path id="6" fill="white" fill-rule="nonzero" d="M593.87 182.33c-3.55,0 -7.09,-0.65 -10.62,-1.96 -3.53,-1.3 -6.68,-3.26 -9.46,-5.87l7 -8.42c1.94,1.67 4.1,3.03 6.46,4.09 2.36,1.05 4.68,1.58 6.96,1.58 2.55,0 4.45,-0.47 5.7,-1.42 1.25,-0.94 1.88,-2.22 1.88,-3.83 0,-0.83 -0.18,-1.56 -0.54,-2.17 -0.36,-0.61 -0.89,-1.15 -1.59,-1.62 -0.69,-0.47 -1.52,-0.92 -2.5,-1.34 -0.97,-0.41 -2.04,-0.87 -3.2,-1.37l-7.09 -3c-1.39,-0.56 -2.73,-1.28 -4.04,-2.17 -1.3,-0.89 -2.47,-1.93 -3.5,-3.12 -1.03,-1.2 -1.85,-2.59 -2.46,-4.17 -0.61,-1.58 -0.91,-3.37 -0.91,-5.37 0,-2.23 0.47,-4.32 1.41,-6.29 0.95,-1.98 2.28,-3.7 4,-5.17 1.73,-1.47 3.77,-2.63 6.13,-3.46 2.36,-0.83 4.96,-1.25 7.79,-1.25 3.17,0 6.29,0.61 9.37,1.83 3.09,1.23 5.8,3 8.13,5.34l-6.25 7.75c-1.78,-1.39 -3.56,-2.46 -5.33,-3.21 -1.78,-0.75 -3.75,-1.13 -5.92,-1.13 -2.11,0 -3.79,0.43 -5.04,1.29 -1.25,0.87 -1.88,2.07 -1.88,3.63 0,0.83 0.21,1.54 0.63,2.12 0.41,0.59 1,1.12 1.75,1.59 0.75,0.47 1.62,0.91 2.62,1.33 1,0.42 2.09,0.88 3.25,1.38l7 2.83c3.34,1.33 5.96,3.17 7.88,5.5 1.91,2.33 2.87,5.42 2.87,9.25 0,2.28 -0.46,4.43 -1.37,6.46 -0.92,2.02 -2.25,3.8 -4,5.33 -1.75,1.53 -3.91,2.75 -6.46,3.67 -2.56,0.91 -5.45,1.37 -8.67,1.37z"/>
  <polygon id="7" fill="white" fill-rule="nonzero" points="623.62,127 657.62,127 657.62,137.33 635.87,137.33 635.87,148.25 654.37,148.25 654.37,158.5 635.87,158.5 635.87,171 658.45,171 658.45,181.33 623.62,181.33 "/>
  <path id="8" fill="white" fill-rule="nonzero" d="M670.45 132.25l-7.25 0 0 -7.25 22.42 0 0 7.25 -7.25 0 0 18.92 -7.92 0 0 -18.92zm18.75 -7.25l9 0 3.25 8.25 1.84 5.5 0.33 0 1.92 -5.5 3.16 -8.25 9.09 0 0 26.17 -7.34 0 0 -8 0.92 -9.59 -0.33 0 -4.75 13.75 -5.67 0 -4.67 -13.75 -0.33 0 0.92 9.59 0 8 -7.34 0 0 -26.17z"/>
  <g id="_1992667235664">
   <path fill="#FEFEFF" d="M483.97 392.15c9.8,1 7.06,-2.68 6.87,-12.08 -0.11,-5.76 -0.13,-11.93 -0.38,-17.32 -0.44,-9.55 -1.47,-65.3 1.75,-70.69 2.11,-3.52 9.26,-4.58 13.22,-1.56 6.62,5.03 0.29,55.33 2.79,67.29 7.23,-1.5 5.79,-15.44 17.83,-14.83 13.05,8 -6.36,28.43 -1.83,35.76 5.86,-4.46 12.49,-22.36 20.28,-24.2 8.42,-1.99 9.15,6 7.56,12.58 -1.01,4.18 -4.15,11.97 -3.59,15.88 0.03,0.2 0.25,0.97 0.28,0.83 0.03,-0.15 0.18,0.58 0.34,0.83 6.22,-4.16 8.61,-15.21 16.29,-18.42 15.29,-6.37 3.88,36.77 1.99,46.14 -7.55,37.55 -6.95,28.51 -44.33,28.2 -6.03,-0.06 -18.69,1.52 -23.59,0.12 -16.51,-4.74 -37.67,-67.19 -34.29,-85.43 1.17,-6.32 9.7,-8.47 15.32,-5.08 0.98,0.8 1.15,0.69 1.55,4.78l0.25 17.1c0.09,5.73 -0.78,15.81 1.69,20.1zm-2.21 -51.02c-17.11,-1.75 -26.11,3.27 -24.84,20.94 1.87,26.34 9.6,48 22.94,69.17 6.47,10.27 10.77,19.22 28.15,18.18 46.89,-2.81 56.86,12.19 65.67,-26.8 2.58,-11.42 11.6,-49.32 5.48,-59.6 -2.62,-4.42 -11.8,-8.32 -18.62,-4.79 -3.22,-7 -2.31,-15.32 -21.66,-10.83 -2.18,-10.72 -10.04,-14.8 -22.16,-11.42 0.5,-27.31 7.35,-55.74 -17.59,-55.35 -12.74,0.2 -16.56,10.61 -16.93,23.26 -0.35,12.47 -0.65,24.73 -0.44,37.24z"/>
   <path fill="#FEFEFF" d="M500 254.99c-19.09,-0.05 -25.16,10.76 -32.06,20.43l-65.18 0.18 19.55 -19.64 -6.41 -5.96 -29.66 30.27 29.94 29.95 6.58 -6.33 -19.66 -19.73 62.16 0.17c1.22,11 -0.08,20.01 7.67,26.42 -6.73,-29.07 9.41,-43.83 26.99,-43.83 17.35,0 33.88,14.76 27.15,43.83 7.75,-6.41 6.45,-15.42 7.67,-26.42l62.16 -0.17 -19.66 19.73 6.58 6.33 29.94 -29.95 -29.66 -30.27 -6.41 5.96 19.55 19.64 -65.18 -0.18c-6.9,-9.67 -12.97,-20.48 -32.06,-20.43z"/>
  </g>
 </g>
</svg>
