<?xml version="1.0" encoding="UTF-8"?>
<!DOCTYPE svg PUBLIC "-//W3C//DTD SVG 1.1//EN" "http://www.w3.org/Graphics/SVG/1.1/DTD/svg11.dtd">
<!-- Creator: CorelDRAW X7 -->
<svg xmlns="http://www.w3.org/2000/svg" xml:space="preserve" width="200px" height="200px" version="1.1" shape-rendering="geometricPrecision" text-rendering="geometricPrecision" image-rendering="optimizeQuality" fill-rule="evenodd" clip-rule="evenodd"
viewBox="0 0 200 200"
 xmlns:xlink="http://www.w3.org/1999/xlink">
 <g id="Layer_x0020_1">
  <metadata id="CorelCorpID_0Corel-Layer"/>
  <polygon fill="black" fill-rule="nonzero" points="0,114.49 38.57,114.49 46.25,92.68 48.23,92.77 55.92,122.65 67.48,88.26 69.47,88.35 77.6,122.27 95.65,38.92 97.7,38.99 115.67,155.9 131.49,98.77 133.47,98.71 138.02,111.86 143.21,90.56 145.22,90.55 151.36,114.49 200,114.49 200,116.57 149.75,116.57 144.24,95.09 139.2,115.77 137.21,115.87 132.6,102.54 116.37,161.13 114.34,161.01 96.5,44.86 78.67,127.16 76.65,127.18 68.3,92.34 56.77,126.64 54.78,126.56 47.07,96.59 40.04,116.57 0,116.57 "/>
 </g>
</svg>
