<?xml version="1.0" encoding="UTF-8"?>
<!DOCTYPE svg PUBLIC "-//W3C//DTD SVG 1.1//EN" "http://www.w3.org/Graphics/SVG/1.1/DTD/svg11.dtd">
<!-- Creator: CorelDRAW X7 -->
<svg xmlns="http://www.w3.org/2000/svg" xml:space="preserve" width="1000px" height="600px" version="1.1" shape-rendering="geometricPrecision" text-rendering="geometricPrecision" image-rendering="optimizeQuality" fill-rule="evenodd" clip-rule="evenodd"
viewBox="0 0 1000 600"
 xmlns:xlink="http://www.w3.org/1999/xlink">
 <g id="Layer_x0020_2">
  <metadata id="CorelCorpID_0Corel-Layer"/>
  <g id="_1992665563792">
   <rect fill="#5EA290" width="1000" height="600" rx="50.37" ry="50"/>
   <rect fill="none" stroke="white" stroke-width="10" x="50" y="50" width="900" height="500" rx="27.2" ry="25"/>
  </g>
 </g>
 <g id="Layer_x0020_1">
  <metadata id="CorelCorpID_1Corel-Layer"/>
  <path fill="white" fill-rule="nonzero" d="M386.63 184.42c-3.72,0 -7.21,-0.6 -10.46,-1.8 -3.25,-1.19 -6.07,-2.96 -8.46,-5.29 -2.39,-2.33 -4.26,-5.23 -5.62,-8.71 -1.36,-3.47 -2.04,-7.48 -2.04,-12.04 0,-4.5 0.69,-8.51 2.08,-12.04 1.39,-3.53 3.29,-6.51 5.71,-8.96 2.41,-2.44 5.23,-4.3 8.46,-5.58 3.22,-1.28 6.63,-1.92 10.25,-1.92 3.94,0 7.33,0.73 10.16,2.17 2.83,1.44 5.14,3.08 6.92,4.92l-6.42 7.83c-1.39,-1.22 -2.86,-2.25 -4.42,-3.08 -1.55,-0.84 -3.49,-1.25 -5.83,-1.25 -2.11,0 -4.04,0.4 -5.79,1.2 -1.75,0.81 -3.26,1.96 -4.54,3.46 -1.28,1.5 -2.27,3.34 -2.96,5.5 -0.69,2.17 -1.04,4.61 -1.04,7.34 0,5.61 1.26,9.95 3.79,13.04 2.53,3.08 6.35,4.62 11.46,4.62 1.11,0 2.19,-0.14 3.25,-0.41 1.05,-0.28 1.92,-0.7 2.58,-1.26l0 -9.33 -9 0 0 -10 19.83 0 0 25c-1.88,1.83 -4.38,3.39 -7.5,4.67 -3.11,1.28 -6.58,1.92 -10.41,1.92z"/>
  <path id="1" fill="white" fill-rule="nonzero" d="M426.04 184.42c-2.11,0 -3.89,-0.34 -5.33,-1.01 -1.44,-0.66 -2.6,-1.59 -3.46,-2.79 -0.86,-1.19 -1.48,-2.64 -1.87,-4.33 -0.39,-1.69 -0.59,-3.6 -0.59,-5.71l0 -45.58 12.25 0 0 46.08c0,1.28 0.24,2.17 0.71,2.67 0.47,0.5 0.96,0.75 1.46,0.75 0.28,0 0.51,0 0.71,0 0.19,0 0.46,-0.06 0.79,-0.17l1.5 9.08c-0.67,0.28 -1.51,0.52 -2.54,0.71 -1.03,0.2 -2.24,0.3 -3.63,0.3z"/>
  <path id="2" fill="white" fill-rule="nonzero" d="M451.04 184.42c-4.5,0 -7.76,-1.48 -9.79,-4.42 -2.03,-2.95 -3.04,-7.03 -3.04,-12.25l0 -25.67 12.25 0 0 24.08c0,3 0.42,5.06 1.25,6.17 0.83,1.11 2.14,1.67 3.92,1.67 1.55,0 2.86,-0.36 3.91,-1.09 1.06,-0.72 2.2,-1.88 3.42,-3.49l0 -27.34 12.25 0 0 41.33 -10 0 -0.92 -5.74 -0.25 0c-1.78,2.11 -3.68,3.76 -5.71,4.95 -2.02,1.2 -4.45,1.8 -7.29,1.8z"/>
  <path id="3" fill="white" fill-rule="nonzero" d="M503.96 184.42c-2.89,0 -5.57,-0.49 -8.04,-1.46 -2.48,-0.98 -4.63,-2.38 -6.46,-4.21 -1.83,-1.83 -3.28,-4.1 -4.33,-6.79 -1.06,-2.7 -1.59,-5.77 -1.59,-9.21 0,-3.45 0.59,-6.51 1.75,-9.21 1.17,-2.69 2.74,-4.96 4.71,-6.79 1.97,-1.83 4.26,-3.24 6.88,-4.21 2.61,-0.97 5.33,-1.46 8.16,-1.46 2.56,0 4.82,0.42 6.79,1.25 1.98,0.84 3.74,1.89 5.29,3.17l-5.74 7.92c-1.95,-1.62 -3.81,-2.42 -5.59,-2.42 -3,0 -5.36,1.05 -7.08,3.17 -1.72,2.11 -2.58,4.97 -2.58,8.58 0,3.61 0.87,6.47 2.62,8.58 1.75,2.11 3.96,3.17 6.63,3.17 1.33,0 2.62,-0.29 3.87,-0.88 1.25,-0.58 2.43,-1.29 3.54,-2.12l4.84 8c-2.06,1.78 -4.28,3.04 -6.67,3.79 -2.39,0.75 -4.72,1.13 -7,1.13z"/>
  <path id="4" fill="white" fill-rule="nonzero" d="M540.29 184.42c-2.61,0 -5.14,-0.49 -7.58,-1.46 -2.45,-0.98 -4.6,-2.38 -6.46,-4.21 -1.86,-1.83 -3.35,-4.1 -4.46,-6.79 -1.11,-2.7 -1.67,-5.77 -1.67,-9.21 0,-3.45 0.56,-6.51 1.67,-9.21 1.11,-2.69 2.6,-4.96 4.46,-6.79 1.86,-1.83 4.01,-3.24 6.46,-4.21 2.44,-0.97 4.97,-1.46 7.58,-1.46 2.61,0 5.13,0.49 7.54,1.46 2.42,0.97 4.56,2.38 6.42,4.21 1.86,1.83 3.35,4.1 4.46,6.79 1.11,2.7 1.66,5.76 1.66,9.21 0,3.44 -0.55,6.51 -1.66,9.21 -1.11,2.69 -2.6,4.96 -4.46,6.79 -1.86,1.83 -4,3.23 -6.42,4.21 -2.41,0.97 -4.93,1.46 -7.54,1.46zm0 -9.92c2.5,0 4.39,-1.06 5.67,-3.17 1.28,-2.11 1.91,-4.97 1.91,-8.58 0,-3.61 -0.63,-6.47 -1.91,-8.58 -1.28,-2.12 -3.17,-3.17 -5.67,-3.17 -2.55,0 -4.46,1.05 -5.71,3.17 -1.25,2.11 -1.87,4.97 -1.87,8.58 0,3.61 0.62,6.47 1.87,8.58 1.25,2.11 3.16,3.17 5.71,3.17z"/>
  <path id="5" fill="white" fill-rule="nonzero" d="M580.54 184.42c-2.72,0 -5.51,-0.53 -8.37,-1.59 -2.87,-1.05 -5.35,-2.44 -7.46,-4.17l5.5 -7.66c1.89,1.44 3.69,2.53 5.41,3.25 1.73,0.72 3.48,1.08 5.25,1.08 1.84,0 3.17,-0.3 4,-0.92 0.84,-0.61 1.25,-1.47 1.25,-2.58 0,-0.66 -0.23,-1.26 -0.7,-1.79 -0.48,-0.53 -1.12,-1.01 -1.92,-1.46 -0.81,-0.44 -1.71,-0.85 -2.71,-1.21 -1,-0.36 -2.03,-0.76 -3.08,-1.21 -1.28,-0.49 -2.56,-1.08 -3.84,-1.74 -1.27,-0.67 -2.44,-1.49 -3.5,-2.46 -1.05,-0.98 -1.91,-2.11 -2.58,-3.42 -0.67,-1.31 -1,-2.82 -1,-4.54 0,-1.89 0.38,-3.64 1.13,-5.25 0.75,-1.61 1.81,-2.97 3.2,-4.08 1.39,-1.12 3.06,-1.99 5,-2.63 1.95,-0.64 4.11,-0.96 6.5,-0.96 3.17,0 5.95,0.54 8.34,1.63 2.39,1.08 4.47,2.29 6.25,3.62l-5.5 7.34c-1.5,-1.12 -2.97,-1.98 -4.42,-2.59 -1.44,-0.61 -2.89,-0.91 -4.33,-0.91 -3.11,0 -4.67,1.08 -4.67,3.25 0,0.66 0.22,1.23 0.67,1.7 0.44,0.48 1.04,0.91 1.79,1.3 0.75,0.38 1.61,0.76 2.58,1.12 0.97,0.36 1.99,0.74 3.04,1.12 1.34,0.51 2.66,1.07 3.96,1.71 1.31,0.64 2.5,1.43 3.59,2.38 1.08,0.94 1.95,2.1 2.62,3.46 0.67,1.36 1,2.98 1,4.87 0,1.89 -0.36,3.64 -1.08,5.25 -0.73,1.61 -1.81,3.02 -3.25,4.21 -1.45,1.19 -3.23,2.14 -5.34,2.83 -2.11,0.7 -4.55,1.05 -7.33,1.05z"/>
  <path id="6" fill="white" fill-rule="nonzero" d="M623.79 184.42c-2.95,0 -5.7,-0.49 -8.25,-1.46 -2.56,-0.98 -4.78,-2.39 -6.67,-4.25 -1.89,-1.86 -3.36,-4.13 -4.41,-6.79 -1.06,-2.67 -1.59,-5.73 -1.59,-9.17 0,-3.34 0.56,-6.35 1.67,-9.04 1.11,-2.7 2.57,-4.97 4.37,-6.84 1.81,-1.86 3.88,-3.29 6.21,-4.29 2.34,-1 4.75,-1.5 7.25,-1.5 2.95,0 5.52,0.5 7.71,1.5 2.2,1 4.03,2.39 5.5,4.17 1.47,1.78 2.57,3.87 3.29,6.29 0.72,2.42 1.08,5.04 1.08,7.87 0,1.12 -0.05,2.17 -0.16,3.17 -0.11,1 -0.22,1.75 -0.33,2.25l-24.75 0c0.55,3 1.79,5.21 3.7,6.63 1.92,1.41 4.27,2.12 7.05,2.12 2.94,0 5.91,-0.91 8.91,-2.75l4.09 7.42c-2.12,1.44 -4.46,2.58 -7.05,3.41 -2.58,0.84 -5.12,1.26 -7.62,1.26zm5.75 -26.17c0,-2.33 -0.53,-4.22 -1.58,-5.67 -1.06,-1.44 -2.84,-2.16 -5.34,-2.16 -1.94,0 -3.65,0.63 -5.12,1.91 -1.47,1.28 -2.43,3.25 -2.88,5.92l14.92 0z"/>
  <g id="_1992665560016">
   <path fill="#FDFFFF" d="M480.67 322.18c0,-8.61 -0.55,-15.34 3.29,-21.67 6.67,-11.03 25.27,-11.77 32.41,0.64 4.06,7.06 2.93,12.39 2.93,21.03 6.89,0.31 11.95,-0.8 17.5,2.36 13.3,7.58 8.62,30.58 8.67,51.26 0.04,14.69 1.7,25.37 -9.32,30.73 -7.35,3.57 -27.05,1.91 -36.66,1.91 -40.84,0 -45.08,3.82 -44.99,-33.64 0.02,-8.24 -0.99,-33.09 0.57,-39.4 3.71,-14.96 17.91,-12.87 25.6,-13.22zm8.56 -71.51c-52.35,6.04 -94.2,50.68 -89.09,110.16 2.32,27.07 16,48.29 34.19,65.18 29.02,26.94 78.4,31.76 114.93,11.54 32.47,-17.97 54.69,-55.75 50.52,-98.25 -5.01,-51.05 -52.79,-95.3 -110.55,-88.63z"/>
   <path fill="#FDFFFF" d="M496.93 392.36c-5.06,0.88 -8.65,-3.3 -10.4,-6.59 -6.02,-11.29 9.91,-35.05 12.24,-37.16 -1.33,10.74 -10.5,35.28 -1.84,43.75zm2.06 -63.7c-3.39,14.65 -12.83,25.19 -18.13,38.48 -6.69,16.81 1.66,33.13 19.63,32.79 17.71,-0.34 25.25,-16.91 18.32,-33.49 -4.04,-9.67 -9.86,-17.7 -14.5,-28.34 -2.77,-6.34 -1.98,-7.65 -5.32,-9.44z"/>
   <path fill="#FDFFFF" d="M498.39 298.68c-12.17,3.28 -7.42,19.04 3.55,16.75 11.63,-2.42 6.62,-19.5 -3.55,-16.75z"/>
  </g>
 </g>
</svg>
