<?xml version="1.0" encoding="UTF-8"?>
<!DOCTYPE svg PUBLIC "-//W3C//DTD SVG 1.1//EN" "http://www.w3.org/Graphics/SVG/1.1/DTD/svg11.dtd">
<!-- Creator: CorelDRAW X7 -->
<svg xmlns="http://www.w3.org/2000/svg" xml:space="preserve" width="1000px" height="600px" version="1.1" shape-rendering="geometricPrecision" text-rendering="geometricPrecision" image-rendering="optimizeQuality" fill-rule="evenodd" clip-rule="evenodd"
viewBox="0 0 1000 600"
 xmlns:xlink="http://www.w3.org/1999/xlink">
 <g id="Layer_x0020_2">
  <metadata id="CorelCorpID_0Corel-Layer"/>
  <g id="_1991243534352">
   <rect fill="#5EA290" width="1000" height="600" rx="50.37" ry="50"/>
   <rect fill="none" stroke="white" stroke-width="10" x="50" y="50" width="900" height="500" rx="27.2" ry="25"/>
  </g>
 </g>
 <g id="Layer_x0020_1">
  <metadata id="CorelCorpID_1Corel-Layer"/>
  <path fill="white" fill-rule="nonzero" d="M312.46 184.42c-3.55,0 -7.09,-0.66 -10.62,-1.96 -3.53,-1.31 -6.68,-3.27 -9.46,-5.88l7 -8.41c1.94,1.66 4.1,3.02 6.46,4.08 2.36,1.05 4.68,1.58 6.96,1.58 2.55,0 4.45,-0.47 5.7,-1.41 1.25,-0.95 1.88,-2.23 1.88,-3.84 0,-0.83 -0.18,-1.55 -0.54,-2.16 -0.36,-0.62 -0.89,-1.16 -1.59,-1.63 -0.69,-0.47 -1.52,-0.92 -2.5,-1.33 -0.97,-0.42 -2.04,-0.88 -3.2,-1.38l-7.09 -3c-1.39,-0.55 -2.73,-1.28 -4.04,-2.16 -1.3,-0.89 -2.47,-1.94 -3.5,-3.13 -1.03,-1.19 -1.85,-2.58 -2.46,-4.17 -0.61,-1.58 -0.91,-3.37 -0.91,-5.37 0,-2.22 0.47,-4.32 1.41,-6.29 0.95,-1.97 2.28,-3.7 4,-5.17 1.73,-1.47 3.77,-2.62 6.13,-3.46 2.36,-0.83 4.96,-1.25 7.79,-1.25 3.17,0 6.29,0.61 9.37,1.84 3.09,1.22 5.8,3 8.13,5.33l-6.25 7.75c-1.78,-1.39 -3.56,-2.46 -5.33,-3.21 -1.78,-0.75 -3.75,-1.12 -5.92,-1.12 -2.11,0 -3.79,0.43 -5.04,1.29 -1.25,0.86 -1.88,2.07 -1.88,3.62 0,0.84 0.21,1.54 0.63,2.13 0.41,0.58 1,1.11 1.75,1.58 0.75,0.47 1.62,0.92 2.62,1.33 1,0.42 2.09,0.88 3.25,1.38l7 2.83c3.34,1.34 5.96,3.17 7.88,5.5 1.91,2.34 2.87,5.42 2.87,9.25 0,2.28 -0.46,4.43 -1.37,6.46 -0.92,2.03 -2.25,3.81 -4,5.33 -1.75,1.53 -3.91,2.75 -6.46,3.67 -2.56,0.92 -5.44,1.38 -8.67,1.38z"/>
  <path id="1" fill="white" fill-rule="nonzero" d="M359.71 184.42c-2.94,0 -5.69,-0.49 -8.25,-1.46 -2.55,-0.98 -4.78,-2.39 -6.66,-4.25 -1.89,-1.86 -3.37,-4.13 -4.42,-6.79 -1.06,-2.67 -1.58,-5.73 -1.58,-9.17 0,-3.34 0.55,-6.35 1.66,-9.04 1.11,-2.7 2.57,-4.97 4.38,-6.84 1.8,-1.86 3.87,-3.29 6.21,-4.29 2.33,-1 4.75,-1.5 7.25,-1.5 2.94,0 5.51,0.5 7.7,1.5 2.2,1 4.03,2.39 5.5,4.17 1.48,1.78 2.57,3.87 3.29,6.29 0.73,2.42 1.09,5.04 1.09,7.87 0,1.12 -0.06,2.17 -0.17,3.17 -0.11,1 -0.22,1.75 -0.33,2.25l-24.75 0c0.55,3 1.79,5.21 3.71,6.63 1.91,1.41 4.26,2.12 7.04,2.12 2.94,0 5.91,-0.91 8.91,-2.75l4.09 7.42c-2.11,1.44 -4.46,2.58 -7.04,3.41 -2.59,0.84 -5.13,1.26 -7.63,1.26zm5.75 -26.17c0,-2.33 -0.53,-4.22 -1.58,-5.67 -1.06,-1.44 -2.83,-2.16 -5.33,-2.16 -1.95,0 -3.66,0.63 -5.13,1.91 -1.47,1.28 -2.43,3.25 -2.87,5.92l14.91 0z"/>
  <path id="2" fill="white" fill-rule="nonzero" d="M384.38 142.08l10 0 0.83 5.25 0.33 0c1.78,-1.66 3.73,-3.12 5.84,-4.37 2.11,-1.25 4.58,-1.88 7.41,-1.88 4.5,0 7.77,1.47 9.8,4.42 2.02,2.94 3.04,7.03 3.04,12.25l0 25.66 -12.25 0 0 -24.08c0,-3 -0.41,-5.05 -1.21,-6.16 -0.81,-1.12 -2.1,-1.67 -3.88,-1.67 -1.55,0 -2.88,0.35 -4,1.04 -1.11,0.7 -2.33,1.68 -3.66,2.96l0 27.91 -12.25 0 0 -41.33z"/>
  <path id="3" fill="white" fill-rule="nonzero" d="M444.21 184.42c-2.72,0 -5.51,-0.53 -8.37,-1.59 -2.87,-1.05 -5.35,-2.44 -7.46,-4.17l5.5 -7.66c1.89,1.44 3.69,2.53 5.41,3.25 1.73,0.72 3.48,1.08 5.25,1.08 1.84,0 3.17,-0.3 4,-0.92 0.84,-0.61 1.25,-1.47 1.25,-2.58 0,-0.66 -0.23,-1.26 -0.71,-1.79 -0.47,-0.53 -1.11,-1.01 -1.91,-1.46 -0.81,-0.44 -1.71,-0.85 -2.71,-1.21 -1,-0.36 -2.03,-0.76 -3.08,-1.21 -1.28,-0.49 -2.56,-1.08 -3.84,-1.74 -1.27,-0.67 -2.44,-1.49 -3.5,-2.46 -1.05,-0.98 -1.91,-2.11 -2.58,-3.42 -0.67,-1.31 -1,-2.82 -1,-4.54 0,-1.89 0.38,-3.64 1.13,-5.25 0.75,-1.61 1.81,-2.97 3.2,-4.08 1.39,-1.12 3.06,-1.99 5,-2.63 1.95,-0.64 4.11,-0.96 6.5,-0.96 3.17,0 5.95,0.54 8.34,1.63 2.39,1.08 4.47,2.29 6.25,3.62l-5.5 7.34c-1.5,-1.12 -2.97,-1.98 -4.42,-2.59 -1.44,-0.61 -2.89,-0.91 -4.33,-0.91 -3.11,0 -4.67,1.08 -4.67,3.25 0,0.66 0.22,1.23 0.67,1.7 0.44,0.48 1.04,0.91 1.79,1.3 0.75,0.38 1.61,0.76 2.58,1.12 0.97,0.36 1.99,0.74 3.04,1.12 1.34,0.51 2.66,1.07 3.96,1.71 1.31,0.64 2.5,1.43 3.59,2.38 1.08,0.94 1.95,2.1 2.62,3.46 0.67,1.36 1,2.98 1,4.87 0,1.89 -0.36,3.64 -1.08,5.25 -0.73,1.61 -1.81,3.02 -3.25,4.21 -1.45,1.19 -3.23,2.14 -5.34,2.83 -2.11,0.7 -4.55,1.05 -7.33,1.05z"/>
  <path id="4" fill="white" fill-rule="nonzero" d="M486.71 184.42c-2.61,0 -5.14,-0.49 -7.58,-1.46 -2.45,-0.98 -4.6,-2.38 -6.46,-4.21 -1.86,-1.83 -3.35,-4.1 -4.46,-6.79 -1.11,-2.7 -1.67,-5.77 -1.67,-9.21 0,-3.45 0.56,-6.51 1.67,-9.21 1.11,-2.69 2.6,-4.96 4.46,-6.79 1.86,-1.83 4.01,-3.24 6.46,-4.21 2.44,-0.97 4.97,-1.46 7.58,-1.46 2.61,0 5.12,0.49 7.54,1.46 2.42,0.97 4.56,2.38 6.42,4.21 1.86,1.83 3.34,4.1 4.45,6.79 1.12,2.7 1.67,5.76 1.67,9.21 0,3.44 -0.55,6.51 -1.67,9.21 -1.11,2.69 -2.59,4.96 -4.45,6.79 -1.86,1.83 -4,3.23 -6.42,4.21 -2.42,0.97 -4.93,1.46 -7.54,1.46zm0 -9.92c2.5,0 4.39,-1.06 5.67,-3.17 1.27,-2.11 1.91,-4.97 1.91,-8.58 0,-3.61 -0.64,-6.47 -1.91,-8.58 -1.28,-2.12 -3.17,-3.17 -5.67,-3.17 -2.56,0 -4.46,1.05 -5.71,3.17 -1.25,2.11 -1.87,4.97 -1.87,8.58 0,3.61 0.62,6.47 1.87,8.58 1.25,2.11 3.15,3.17 5.71,3.17z"/>
  <path id="5" fill="white" fill-rule="nonzero" d="M515.21 142.08l10 0 0.83 7.25 0.33 0c1.5,-2.83 3.31,-4.91 5.42,-6.25 2.11,-1.33 4.22,-2 6.33,-2 1.17,0 2.13,0.07 2.88,0.21 0.75,0.14 1.43,0.35 2.04,0.63l-2 10.58c-0.78,-0.22 -1.5,-0.39 -2.17,-0.5 -0.66,-0.11 -1.44,-0.17 -2.33,-0.17 -1.55,0 -3.18,0.56 -4.87,1.67 -1.7,1.11 -3.1,3.08 -4.21,5.91l0 24 -12.25 0 0 -41.33z"/>
  <polygon id="6" fill="white" fill-rule="nonzero" points="566.04,129.08 578.29,129.08 578.29,150 597.04,150 597.04,129.08 609.37,129.08 609.37,183.41 597.04,183.41 597.04,160.75 578.29,160.75 578.29,183.41 566.04,183.41 "/>
  <path id="7" fill="white" fill-rule="nonzero" d="M633.62 184.42c-4.5,0 -7.76,-1.48 -9.79,-4.42 -2.03,-2.95 -3.04,-7.03 -3.04,-12.25l0 -25.67 12.25 0 0 24.08c0,3 0.41,5.06 1.25,6.17 0.83,1.11 2.14,1.67 3.91,1.67 1.56,0 2.87,-0.36 3.92,-1.09 1.06,-0.72 2.2,-1.88 3.42,-3.49l0 -27.34 12.25 0 0 41.33 -10 0 -0.92 -5.74 -0.25 0c-1.78,2.11 -3.68,3.76 -5.71,4.95 -2.03,1.2 -4.46,1.8 -7.29,1.8z"/>
  <path id="8" fill="white" fill-rule="nonzero" d="M690.2 184.42c-1.83,0 -3.68,-0.46 -5.54,-1.38 -1.86,-0.92 -3.59,-2.26 -5.21,-4.04l-0.33 0 -1 4.41 -9.58 0 0 -58.41 12.25 0 0 14.33 -0.34 6.34c1.61,-1.45 3.35,-2.57 5.21,-3.38 1.86,-0.8 3.77,-1.21 5.71,-1.21 2.5,0 4.75,0.5 6.75,1.5 2,1 3.71,2.41 5.13,4.21 1.41,1.81 2.49,4 3.24,6.58 0.75,2.59 1.13,5.46 1.13,8.63 0,3.55 -0.49,6.72 -1.46,9.5 -0.97,2.78 -2.28,5.12 -3.91,7.04 -1.64,1.92 -3.5,3.37 -5.59,4.38 -2.08,0.99 -4.23,1.5 -6.46,1.5zm-2.83 -10.01c2.11,0 3.92,-0.95 5.42,-2.87 1.5,-1.92 2.25,-5.01 2.25,-9.29 0,-7.45 -2.39,-11.17 -7.17,-11.17 -2.44,0 -4.8,1.25 -7.08,3.75l0 16.92c1.11,1 2.22,1.69 3.33,2.08 1.11,0.39 2.2,0.58 3.25,0.58z"/>
  <g id="_1991243533168">
   <path fill="#FEFEFF" d="M576.29 414.02c10.71,-3.81 13.78,10.94 5.83,14.47 -4.85,2.16 -9.35,-0.66 -10.69,-4.16 -2.36,-6.2 1.08,-8.97 4.86,-10.31zm-24.39 -0.2c10.77,-2.93 12.97,12.29 4.48,14.93 -10,3.1 -15.48,-11.94 -4.48,-14.93zm-24.95 0.06c10.51,-3.02 13.03,12.23 4.43,14.84 -9.8,2.97 -15.45,-11.68 -4.43,-14.84zm53.79 36.15c20.22,0.03 18.95,-5.59 18.96,-23.99 0.02,-16.09 3.46,-35.25 -7.71,-35.25l-83.29 0c-0.01,-13.09 -0.03,-26.66 -0.04,-39.75 -0.02,-11.85 3.27,-27.55 -10.93,-27.42 -13.48,0.13 -11.41,16.36 -11,28.42 0.43,12.68 0.18,26.05 0.17,38.75l-73.35 0c-14,0 -13.5,1 -13.49,29.56 0.49,14.69 -3.51,29.19 8.24,29.44l172.44 0.24zm-162.69 -45.74l28.5 0c1.65,0 3,1.35 3,3l0 28.25c0,1.65 -1.35,3 -3,3l-28.5 0c-1.65,0 -3,-1.35 -3,-3l0 -28.25c0,-1.65 1.35,-3 3,-3z"/>
   <path fill="#FEFEFF" d="M430.75 299.25c1.87,0.33 1.67,-0.27 1.26,1.35 4.83,-0.15 2.47,-0.1 7.88,-6.4 15.28,-17.77 33.44,-28.52 58.88,-27.82 14.35,0.4 27.63,4.35 37.85,10.78 4.67,2.94 10.77,8.39 13.61,11.4l11.41 13.1 4.9 -1.96c-0.28,-1.54 -0.52,-0.97 1.2,-1.36 1.98,-4.2 5.03,-3.45 7.9,-7.3 -22.45,-38.58 -80.23,-53.8 -123.75,-28.86 -6.33,3.63 -12.12,8.29 -16.66,12.37 -2.76,2.48 -11.91,12.57 -13.7,16.49l4.91 4.32c1.75,1.32 3.17,2.21 4.31,3.89z"/>
   <path fill="#FEFEFF" d="M450.03 312.04c2.83,4.17 8.01,7.16 12.71,10.07 5.91,-6.02 13.04,-20.52 35,-20.66 22.41,-0.14 29.58,15.59 35,21.81 4.44,-1.57 11.21,-6.58 13.23,-10.22 -3.58,-7.69 -11.63,-14.41 -18.17,-19.07 -16.93,-12.04 -41.57,-11.94 -59.13,-1.02 -6.9,4.28 -14.43,12.26 -18.64,19.09z"/>
   <path fill="none" d="M571.43 424.33c1.34,3.5 5.84,6.32 10.69,4.16 7.95,-3.53 4.88,-18.28 -5.83,-14.47"/>
   <path fill="none" d="M556.38 428.75c8.49,-2.64 6.29,-17.86 -4.48,-14.93"/>
   <path fill="none" d="M531.38 428.72c8.6,-2.61 6.08,-17.86 -4.43,-14.84"/>
  </g>
 </g>
</svg>
