<?xml version="1.0" encoding="UTF-8"?>
<!DOCTYPE svg PUBLIC "-//W3C//DTD SVG 1.1//EN" "http://www.w3.org/Graphics/SVG/1.1/DTD/svg11.dtd">
<!-- Creator: CorelDRAW X7 -->
<svg xmlns="http://www.w3.org/2000/svg" xml:space="preserve" width="200px" height="200px" version="1.1" shape-rendering="geometricPrecision" text-rendering="geometricPrecision" image-rendering="optimizeQuality" fill-rule="evenodd" clip-rule="evenodd"
viewBox="0 0 200 200"
 xmlns:xlink="http://www.w3.org/1999/xlink">
 <g id="Layer_x0020_1">
  <metadata id="CorelCorpID_0Corel-Layer"/>
  <g id="_2160785931808">
   <path fill="black" d="M73.56 111.99c-1.21,-5.69 7.65,-5.14 8.59,-0.61 1.05,5.04 -7.87,3.96 -8.59,0.61zm-36.93 13.83c-0.93,0.85 1.36,0.94 -2.79,1.04 -1.03,-1.4 -0.92,0.04 -1.42,-2.41 -0.95,-4.67 -0.14,-1.34 0.41,-2.61 3.04,-7.51 17.21,-13.74 26.94,-14.74 5.67,-0.58 8.18,-0.8 10.47,2.89 -2.57,6.25 -11.09,2 -18.72,5.76 -5.42,2.67 -10.49,8.87 -14.89,10.07zm100.04 -114.19c43.8,-9.56 66.15,39.09 45.69,66.48 -25.41,34.02 -70.51,18.32 -78.14,-13.75 -6.46,-27.13 11.36,-48.12 32.45,-52.73zm-33.44 75.14l-4.46 4.52c-4.72,-2.47 -5.43,-5.17 -9.36,-7.88 4.83,-12.3 -5.74,-12.99 -7.03,-12.54 -1.51,0.54 -11.53,11.04 -12.41,13.12 2.86,5.98 6.71,10.51 12.65,5.26 3.64,3.45 7.76,4.26 9.33,8.74 -2.03,3.57 -1.51,1.2 -3.77,4.39 -9.54,-1.21 -17.82,-8.78 -40.49,-0.49 -5.57,2.04 -11.42,4.87 -16.07,7.89 -10.85,7.05 -30.35,24.6 -31.53,40.28 -1.83,24.21 25.26,50.27 46.68,49.89 12.67,-0.23 26.51,-11.92 31.62,-17.19 11.24,-11.61 22.14,-30.28 22.72,-48.89 0.32,-10.22 -2.55,-13.47 -3.57,-20.99 2.54,-2.07 1.7,-2.32 5,-3.89 6.89,5.41 30.11,39.47 41.37,22.59 2.43,-3.63 4.26,-8.44 11.39,-7.95 4.68,0.32 9.73,5.89 11.43,7.97 8.42,10.37 -6.74,18.56 -10.08,22.31l5.6 5.69c2.37,-1.22 12.51,-9.88 14.46,-14.08 7.42,-15.96 -12.16,-31.82 -24.35,-30.68 -9.52,0.88 -12.38,9.65 -17.95,12.5 -3.64,-2.39 -23.95,-21.9 -25.6,-25.35 2.13,-2.46 2.48,-3.14 5.68,-4.79 5.45,2.17 9.61,5.78 16.77,7.94 13.94,4.23 29.99,2.18 42.55,-4.59 29.49,-15.89 35.49,-61.8 10.73,-85.91 -29.55,-28.78 -86.23,-13.33 -91.32,31.73 -2.63,23.31 7.14,31.25 10.01,40.4z"/>
   <path fill="black" d="M116.34 52.97c5.92,3.07 15.71,1.61 22.93,3.21 5.27,1.18 3.55,4.43 8.94,3.84 7.28,-0.79 9.1,-13.4 0.09,-13.86 -4.7,-0.24 -6.27,2.74 -8.76,3.79 -3.98,1.68 -17.62,2.08 -23.2,3.02z"/>
   <path fill="black" d="M183.06 47.11c-1.51,-14.48 -12.93,-29.58 -30.42,-29.75 7.66,3.45 12.06,6.6 17.28,11.96 2.85,2.92 4.63,4.28 7.16,7.84 2.38,3.36 4.25,7.31 5.98,9.95z"/>
   <path fill="black" d="M134.75 77.26c0.47,3.67 1.32,3.92 5.49,3.66l0.15 -4.57c-1.81,-0.38 -4.54,-0.81 -5.64,0.91z"/>
   <path fill="black" d="M167.72 36.45l0.2 -3.54c-0.49,-0.05 0.76,-2.05 -3.37,-0.7 -2.53,0.82 -3.87,6.22 3.17,4.24z"/>
   <path fill="black" d="M142.35 24.73c-1.14,0.59 -2.76,0.5 -0.84,3.1 0.46,0.63 2.24,2.09 3.45,1.54 3.06,-1.41 1.17,-6.62 -2.61,-4.64z"/>
   <path fill="black" d="M121.04 38.99c1.66,2.32 1.47,2.75 4.98,2.63 0.37,-0.94 1.4,1.82 0.63,-2.56 -0.36,-2.01 -0.46,-1.32 -1.17,-2.33 -2.09,-0.31 -3.43,0.64 -4.44,2.26z"/>
   <path fill="black" d="M171.12 58.12c2.59,1.2 4.84,-0.01 4.32,-2.99 -0.21,-0.17 -0.46,-2.89 -3.88,-0.98 -2.69,1.51 -0.79,3.26 -0.44,3.97z"/>
   <path fill="black" d="M157.72 75.13c0.99,2.2 2.06,3.56 4.52,3.13 1.32,-1.85 1.4,2.36 1.08,-2.24 -0.24,-3.54 -4.75,-3.3 -5.6,-0.89z"/>
   <path fill="black" d="M118.52 60.44c0.62,3.24 0.65,3.16 2.94,4.59 5.71,-3.92 0.99,-5.3 0.98,-5.31l-3.92 0.72z"/>
   <path fill="black" d="M36.63 125.82l-3.31 -0.47 -0.49 -3.51c-0.55,1.27 -1.36,-2.06 -0.41,2.61 0.5,2.45 0.39,1.01 1.42,2.41 4.15,-0.1 1.86,-0.19 2.79,-1.04z"/>
  </g>
 </g>
</svg>
